<?xml version="1.0" standalone="no"?>
<!DOCTYPE svg PUBLIC "-//W3C//DTD SVG 1.1//EN" "http://www.w3.org/Graphics/SVG/1.1/DTD/svg11.dtd" >
<svg>
<metadata>
Created by FontForge 20090914 at Fri Mar 22 11:29:47 2013
 By www-data
Copyright 1990-1998 Bitstream Inc.  All rights reserved.
</metadata>
<defs>
<font id="CenturySchoolbookBT-Monospace" horiz-adv-x="1233" >
  <font-face 
    font-family="CentSchbook Mono BT"
    font-weight="400"
    font-stretch="normal"
    units-per-em="2048"
    panose-1="2 4 6 9 5 5 5 2 3 4"
    ascent="1556"
    descent="-492"
    x-height="948"
    cap-height="1374"
    bbox="-37 -483 1329 1950"
    underline-thickness="125"
    underline-position="-151"
    unicode-range="U+0020-U+F002"
  />
<missing-glyph 
d="M104 -362v1806h1024v-1806h-1024zM219 -248h795v1577h-795v-1577z" />
    <glyph glyph-name=".notdef" 
d="M104 -362v1806h1024v-1806h-1024zM219 -248h795v1577h-795v-1577z" />
    <glyph glyph-name="space" unicode=" " 
 />
    <glyph glyph-name="exclam" unicode="!" 
d="M657 587l-2 -192.001h-82l-4 193c-2 146 -16.5 300.833 -43.5 464.5s-40.5 257.834 -40.5 282.501c0 56 11.333 99.333 34 130s54.334 46 95.001 46c42.667 0 74.5 -14.833 95.5 -44.5s31.5 -74.167 31.5 -133.5c0 -24 -13.333 -117.5 -40 -280.5
s-41.334 -318.167 -44.001 -465.5zM614 222.999c34.667 0 64.167 -12.333 88.5 -37s36.5 -54.667 36.5 -90c0 -34.667 -12 -64.5 -36 -89.5s-53.667 -37.5 -89 -37.5c-34.667 0 -64.5 12.5 -89.5 37.5s-37.5 54.833 -37.5 89.5s12.5 64.5 37.5 89.5s54.833 37.5 89.5 37.5z
" />
    <glyph glyph-name="quotedbl" unicode="&#x22;" 
d="M764 860l-70.002 459c-0.666992 4.66699 -1.16699 9.5 -1.5 14.5s-0.5 12.5 -0.5 22.5c0 34 7.83301 60.167 23.5 78.5s37.834 27.5 66.501 27.5s50.834 -9 66.501 -27s23.5 -43 23.5 -75c0 -4.66699 -0.166992 -9.66699 -0.5 -15s-1.5 -14.333 -3.5 -27l-69 -458h-35z
M431.998 860l-67.001 459.001c-0.666992 1.33301 -1 3.33301 -1 6c-2.66699 18 -4 29.667 -4 35c0 32.667 7.83301 57.834 23.5 75.501s37.5 26.5 65.5 26.5c28.667 0 50.834 -9.16699 66.501 -27.5s23.5 -44.5 23.5 -78.5c0 -10.667 -0.166992 -18.334 -0.5 -23.001
s-0.833008 -9.33398 -1.5 -14.001l-70 -459h-35z" />
    <glyph glyph-name="numbersign" unicode="#" 
d="M729 539l57 270h-282l-58 -270h283zM528 922h283l92 430h119l-92 -430h203l-25 -113h-203l-57 -270h203l-25 -113h-201l-92 -426h-119l91 426h-283l-90 -426h-119l90 426h-205l25 113h205l57 270h-205l25 113h205l90 430h118z" />
    <glyph glyph-name="dollar" unicode="$" 
d="M565 854v461c-77.333 -6.66699 -139 -30.834 -185 -72.501s-69 -94.167 -69 -157.5c0 -60 21 -109.167 63 -147.5s105.667 -66.166 191 -83.499zM565 641c-133.333 29.333 -230.834 75.501 -292.501 138.501s-92.5 147.833 -92.5 254.5
c0 102.667 35.167 187.334 105.5 254.001s163.5 103.667 279.5 111v119h101v-119c108.667 -6.66699 197.167 -36.667 265.5 -90s102.5 -117 102.5 -191c0 -44 -12 -78.833 -36 -104.5s-57 -38.5 -99 -38.5c-35.333 0 -64.333 11 -87 33s-34 50.667 -34 86
c0 36.667 15 65.167 45 85.5s45 34.166 45 41.499c0 19.333 -20.167 39.333 -60.5 60s-87.5 32 -141.5 34v-494c154.667 -40 264.334 -92 329.001 -156s97 -150.333 97 -259c0 -117.333 -38.333 -214.5 -115 -291.5s-180.334 -121.833 -311.001 -134.5v-256h-101v256
c-4 0 -10 -0.5 -18 -1.5s-13.667 -1.5 -17 -1.5c-100.667 0 -190.334 32.667 -269.001 98s-118 140.666 -118 225.999c0 52.667 13.833 95.167 41.5 127.5s63.834 48.5 108.501 48.5c34 0 63 -12.167 87 -36.5s36 -53.833 36 -88.5c0 -45.333 -19.167 -81 -57.5 -107
s-57.5 -42.667 -57.5 -50c0 -27.333 25.833 -55 77.5 -83s111.834 -42 180.501 -42h6v571zM665.999 74.001c85.333 8.66699 152.333 37.3311 201 85.998s73 110.667 73 186c0 70.667 -17.333 123.834 -52 159.501s-108.667 69.834 -222 102.501v-534z" />
    <glyph glyph-name="percent" unicode="%" 
d="M1098 1409l-842.005 -1444h-100l749 1288c-27.333 -20 -55.666 -35.5 -84.999 -46.5s-57.666 -16.5 -84.999 -16.5c-17.333 0 -33.333 1.33301 -48 4s-28 6.66699 -40 12c0.666992 -6.66699 1.16699 -13.5 1.5 -20.5s0.5 -13.833 0.5 -20.5
c0 -103.333 -41.667 -203.833 -125 -301.5s-174 -146.5 -272 -146.5c-67.333 0 -121.666 21 -162.999 63s-62 97.333 -62 166c0 102 43.667 200.5 131 295.5s177.333 142.5 270 142.5c44 0 82 -7.5 114 -22.5s58.333 -38.167 79 -69.5
c14.667 -14.667 32.834 -26.167 54.501 -34.5s44.834 -12.5 69.501 -12.5c46.667 0 96 16 148 48s89.667 70.667 113 116h92zM591.995 1171c0 44 -11.666 79.333 -34.999 106s-53.333 40 -90 40c-30.667 0 -60 -11.833 -88 -35.5s-62.333 -67.167 -103 -130.5
c-34.667 -56 -61.334 -106 -80.001 -150s-28 -80 -28 -108c0 -32 11.5 -57.833 34.5 -77.5s53.167 -29.5 90.5 -29.5c69.333 0 136.5 43 201.5 129s97.5 171.333 97.5 256zM1149 422c0 44 -11.3311 79.167 -33.998 105.5s-52.334 39.5 -89.001 39.5
c-31.333 0 -61 -12 -89 -36s-61.667 -68 -101 -132c-36 -56 -63.167 -105.667 -81.5 -149s-27.5 -79 -27.5 -107c0 -32 11.5 -57.667 34.5 -77s53.167 -29 90.5 -29c69.333 0 136.166 42.833 200.499 128.5s96.5 171.167 96.5 256.5zM986.998 633
c69.333 0 123.167 -18.499 161.5 -55.499s57.5 -88.833 57.5 -155.5c0 -109.333 -41.167 -212.833 -123.5 -310.5s-172.833 -146.5 -271.5 -146.5c-67.333 0 -122 21.333 -164 64s-63 98 -63 166c0 101.333 44 199.666 132 294.999s178.333 143 271 143z" />
    <glyph glyph-name="ampersand" unicode="&#x26;" 
d="M1139 780l-0.000976562 -88.001c-44.667 0 -77.334 -6 -98.001 -18s-39.334 -35.333 -56.001 -70c-8 -17.333 -20 -46.333 -36 -87c-47.333 -118.667 -95.333 -211.667 -144 -279c42 -46.667 73.667 -76.834 95 -90.501s43 -20.5 65 -20.5c26 0 48.5 16.667 67.5 50
s35.167 85 48.5 155l93 -19c-18 -118.667 -48.167 -205.334 -90.5 -260.001s-101.166 -82 -176.499 -82c-44.667 0 -89.167 14.333 -133.5 43s-71.5 59.334 -81.5 92.001c-25.333 -44 -63.666 -79.167 -114.999 -105.5s-107.666 -39.5 -168.999 -39.5
c-98.667 0 -179 36.667 -241 110s-93 166.333 -93 279c0 92.667 20.5 172.834 61.5 240.501s108.5 131.5 202.5 191.5c-21.333 38.667 -38.666 85.667 -51.999 141s-20 108 -20 158c0 98 24.833 176.833 74.5 236.5s115.167 89.5 196.5 89.5
c75.333 0 135.666 -24.5 180.999 -73.5s68 -114.5 68 -196.5c0 -70.667 -17.333 -130.5 -52 -179.5s-106.667 -107.5 -216 -175.5l147 -295.5c54 -105 82.333 -163.5 85 -175.5c8 20.667 20.333 49.334 37 86.001c42 94 63 159.667 63 197c0 34 -9.83301 58.833 -29.5 74.5
s-51.5 23.5 -95.5 23.5h-27v88h441zM484.999 861.999c60 50.667 100.667 95.332 122 133.999s32 82 32 130c0 62 -9 108.667 -27 140s-45.333 47 -82 47c-34 0 -59.5 -15.667 -76.5 -47s-25.5 -78.666 -25.5 -141.999c0 -36 13 -101 39 -195c8 -28.667 14 -51 18 -67z
M366.999 706.997c-43.333 -37.333 -74.333 -73.833 -93 -109.5s-28 -76.5 -28 -122.5c0 -97.333 25.167 -185.833 75.5 -265.5s102.166 -119.5 155.499 -119.5c35.333 0 67.333 7.83301 96 23.5s49.334 36.5 62.001 62.5c-52 70 -100.667 150 -146 240s-86 187 -122 291z
" />
    <glyph glyph-name="quotesingle" unicode="'" 
d="M598 860l-68 459.001c0 2 -0.333008 5 -1 9c-2 12.667 -3 22 -3 28c0 33.333 8 59.333 24 78s38 28 66 28c28.667 0 51 -8.83301 67 -26.5s24 -42.834 24 -75.501c0 -4 -0.333008 -9 -1 -15s-2 -15 -4 -27l-69 -458h-35z" />
    <glyph glyph-name="parenleft" unicode="(" 
d="M889 1460c-116.667 -86.667 -200.833 -192.334 -252.5 -317.001s-77.5 -287.334 -77.5 -488.001c0 -218 25.5 -391.667 76.5 -521s135.5 -238.333 253.5 -327v-53c-152.667 82.667 -272.167 202.334 -358.5 359.001s-129.5 332.667 -129.5 528
c0 187.333 41.167 354.833 123.5 502.5s203.833 271.834 364.5 372.501v-56z" />
    <glyph glyph-name="parenright" unicode=")" 
d="M348 1460l0.000976562 55.998c160 -99.333 281.333 -223 364 -371s124 -316 124 -504c0 -194.667 -43 -370.167 -129 -526.5s-205.667 -276.5 -359 -360.5v53c118 88.667 202.5 197.667 253.5 327s76.5 303 76.5 521c0 200.667 -25.833 363.334 -77.5 488.001
s-135.834 230.334 -252.501 317.001z" />
    <glyph glyph-name="asterisk" unicode="*" 
d="M641 1104c53.333 -33.333 120.002 -54.334 200.002 -63.001c22 -2.66699 37.333 -5 46 -7c29.333 -7.33301 52.666 -20.166 69.999 -38.499s26 -38.166 26 -59.499c0 -22 -7.83301 -40.5 -23.5 -55.5s-35.167 -22.5 -58.5 -22.5c-34 0 -75.833 30.5 -125.5 91.5
s-98.5 104.833 -146.5 131.5v-16c0 -50.667 11.5 -105.167 34.5 -163.5s34.5 -94.5 34.5 -108.5c0 -31.333 -7.5 -56 -22.5 -74s-35.5 -27 -61.5 -27c-23.333 0 -42.333 8.16699 -57 24.5s-22 37.5 -22 63.5c0 20.667 11.5 61.5 34.5 122.5s34.5 116.5 34.5 166.5v12
c-46.667 -24 -94.667 -66.833 -144 -128.5s-94 -92.5 -134 -92.5c-22 0 -40.167 7.5 -54.5 22.5s-21.5 33.5 -21.5 55.5c0 24 8.66699 44.333 26 61s42 28.334 74 35.001c6 1.33301 16.333 2.66602 31 3.99902c79.333 8.66699 149.666 30.667 210.999 66
c-54 32.667 -120.333 53.334 -199 62.001c-22 2.66699 -37.333 5 -46 7c-32 8.66699 -56.167 21.167 -72.5 37.5s-24.5 36.166 -24.5 59.499c0 22 8 40.833 24 56.5s35.333 23.5 58 23.5c34 0 75.833 -30.833 125.5 -92.5s98.5 -106.167 146.5 -133.5v17
c0 48.667 -11.5 102.667 -34.5 162s-34.5 98 -34.5 116c0 28.667 7.5 52 22.5 70s34.5 27 58.5 27s43.667 -8.5 59 -25.5s23 -38.833 23 -65.5c0 -20 -11.5 -60.167 -34.5 -120.5s-34.5 -116.166 -34.5 -167.499v-13c46.667 24.667 94.667 68.167 144 130.5
s94 93.5 134 93.5c22.667 0 41 -7.83301 55 -23.5s21 -35.834 21 -60.501c0 -24 -10.5 -44.333 -31.5 -61s-50.167 -28 -87.5 -34c-4.66699 -0.666992 -12.667 -1.33398 -24 -2.00098c-70.667 -6.66699 -137 -27.667 -199 -63z" />
    <glyph glyph-name="plus" unicode="+" 
d="M688 586h404v-140h-404v-446h-143v446h-404v140h404v446h143v-446z" />
    <glyph glyph-name="comma" unicode="," 
d="M649 -13c-10 -3.33301 -19.499 -6.16797 -28.499 -8.50098s-17.167 -3.5 -24.5 -3.5c-39.333 0 -70.333 10.833 -93 32.5s-34 51.167 -34 88.5c0 34.667 12.667 64.5 38 89.5s55 37.5 89 37.5c48.667 0 88.5 -18.667 119.5 -56s46.5 -85.333 46.5 -144
c0 -79.333 -21.833 -152.666 -65.5 -219.999s-109.834 -130 -198.501 -188l-47 59c64.667 48 114.167 96.5 148.5 145.5s51.5 94.833 51.5 137.5c0 8.66699 -0.166992 15.167 -0.5 19.5s-0.833008 7.83301 -1.5 10.5z" />
    <glyph glyph-name="hyphen" unicode="-" 
d="M956 573v-174h-682v174h682z" />
    <glyph glyph-name="period" unicode="." 
d="M489 96c0 34.667 12.667 64.5 38 89.5s55 37.5 89 37.5c34.667 0 64.167 -12.333 88.5 -37s36.5 -54.667 36.5 -90c0 -34.667 -12 -64.5 -36 -89.5s-53.667 -37.5 -89 -37.5c-34.667 0 -64.5 12.5 -89.5 37.5s-37.5 54.833 -37.5 89.5z" />
    <glyph glyph-name="slash" unicode="/" 
d="M801 1419h145l-514 -1609h-145z" />
    <glyph glyph-name="zero" unicode="0" 
d="M616 1319c-89.333 0 -153.5 -48.334 -192.5 -145.001s-58.5 -258.667 -58.5 -486c0 -226 19.5 -387 58.5 -483s103.167 -144 192.5 -144c90 0 154.5 48.333 193.5 145s58.5 257.334 58.5 482.001c0 227.333 -19.5 389.333 -58.5 486s-103.5 145 -193.5 145zM141 687.999
c0 216.667 44.1689 391 132.502 523s202.5 198 342.5 198c143.333 0 258.166 -65.333 344.499 -196s129.5 -305.667 129.5 -525c0 -217.333 -43.833 -392.166 -131.5 -524.499s-201.834 -198.5 -342.501 -198.5s-255 66.667 -343 200s-132 307.666 -132 522.999z" />
    <glyph glyph-name="one" unicode="1" 
d="M1040 98l0.00195312 -97.998h-768v98h138c59.333 0 97.666 6.66699 114.999 20s26 38.333 26 75v917c0 25.333 -6.5 42.666 -19.5 51.999s-38.5 14 -76.5 14h-197v88c98.667 4.66699 184 19.167 256 43.5s131.333 58.166 178 101.499h56v-1221
c0 -34 9.16699 -57.5 27.5 -70.5s56.166 -19.5 113.499 -19.5h151z" />
    <glyph glyph-name="two" unicode="2" 
d="M1038 0l-911.001 -0.00292969v66c84 106.667 218.333 259.334 403 458.001l125 135c70.667 78 120.167 147 148.5 207s42.5 125 42.5 195c0 82 -23 144.5 -69 187.5s-112.333 64.5 -199 64.5c-80 0 -148.167 -19.833 -204.5 -59.5s-84.5 -83.5 -84.5 -131.5
c0 -23.333 23.333 -42.666 70 -57.999l3 -1c29.333 -9.33301 51.5 -23.5 66.5 -42.5s22.5 -43.167 22.5 -72.5c0 -32.667 -12 -61 -36 -85s-53.667 -36 -89 -36c-50.667 0 -90.667 18.167 -120 54.5s-44 85.833 -44 148.5c0 106.667 42.5 195.834 127.5 267.501
s193.833 107.5 326.5 107.5c139.333 0 249 -33.667 329 -101s120 -158.666 120 -273.999c0 -78.667 -15.667 -147.334 -47 -206.001s-92.666 -128 -183.999 -208l-46 -36c-134.667 -104.667 -263 -214.667 -385 -330l-63 -60h465c69.333 0 112 9.66699 128 29
s33.333 76 52 170l10 51h82z" />
    <glyph glyph-name="three" unicode="3" 
d="M756 743c106 -21.333 186.331 -63.9961 240.998 -127.996s82 -146.667 82 -248c0 -118.667 -45.167 -215.334 -135.5 -290.001s-208.166 -112 -353.499 -112c-134.667 0 -242.834 30.5 -324.501 91.5s-122.5 140.5 -122.5 238.5c0 54 14 97.833 42 131.5
s64 50.5 108 50.5c37.333 0 67.166 -11.833 89.499 -35.5s33.5 -56.167 33.5 -97.5c0 -42.667 -19.5 -78.5 -58.5 -107.5s-58.5 -47.167 -58.5 -54.5c0 -28.667 25.5 -56.667 76.5 -84s112.167 -41 183.5 -41c98.667 0 172.834 26.333 222.501 79s74.5 131.667 74.5 237
c0 113.333 -20.5 195.166 -61.5 245.499s-107.833 75.5 -200.5 75.5c-17.333 0 -39.833 -1.66699 -67.5 -5s-46.834 -5 -57.501 -5c-17.333 0 -31.166 4.66699 -41.499 14s-15.5 21.666 -15.5 36.999c0 18 5.5 31.833 16.5 41.5s26.5 14.5 46.5 14.5
c6 0 21.833 -1.16699 47.5 -3.5s48.167 -3.5 67.5 -3.5c84 0 145.167 23.167 183.5 69.5s57.5 119.5 57.5 219.5c0 80.667 -20.5 141.834 -61.5 183.501s-101.5 62.5 -181.5 62.5c-62.667 0 -115.167 -11.5 -157.5 -34.5s-63.5 -49.167 -63.5 -78.5
c0 -8 14.667 -24.5 44 -49.5s44 -56.833 44 -95.5c0 -35.333 -10.833 -63 -32.5 -83s-51.167 -30 -88.5 -30c-38.667 0 -69.5 13 -92.5 39s-34.5 61 -34.5 105c0 93.333 37.833 169.166 113.5 227.499s175.834 87.5 300.501 87.5c126.667 0 226.834 -30.167 300.501 -90.5
s110.5 -142.166 110.5 -245.499c0 -82.667 -22.5 -150.834 -67.5 -204.501s-114.5 -94.834 -208.5 -123.501z" />
    <glyph glyph-name="four" unicode="4" 
d="M680 1073l-451 -602h451v602zM559 96h25c36 0 60.667 5.33301 74 16s20 32 20 64v178h-567v119l686 932h75v-934h244v-117h-244v-178c0 -32.667 7.5 -54.167 22.5 -64.5s47.833 -15.5 98.5 -15.5h88v-96h-610v96h88z" />
    <glyph glyph-name="five" unicode="5" 
d="M1010 1427l21.999 -14c-19.333 -81.333 -62.666 -143.666 -129.999 -186.999s-154.333 -65 -261 -65c-37.333 0 -77.166 2.66699 -119.499 8s-85.833 13 -130.5 23c-7.33301 -49.333 -14.166 -101.833 -20.499 -157.5s-12.5 -116.5 -18.5 -182.5
c54.667 22.667 103 38.5 145 47.5s84.667 13.5 128 13.5c132 0 240.333 -41.833 325 -125.5s127 -191.834 127 -324.501c0 -152.667 -47.333 -273.834 -142 -363.501s-222 -134.5 -382 -134.5c-116.667 0 -214.167 31.667 -292.5 95s-117.5 141.666 -117.5 234.999
c0 54 14 97.833 42 131.5s64 50.5 108 50.5c37.333 0 67.166 -11.833 89.499 -35.5s33.5 -56.167 33.5 -97.5c0 -42 -19.5 -77.667 -58.5 -107s-58.5 -47.666 -58.5 -54.999c0 -28.667 24.667 -56.667 74 -84s108 -41 176 -41c98.667 0 175.167 35.833 229.5 107.5
s81.5 172.5 81.5 302.5c0 109.333 -26.5 195 -79.5 257s-125.5 93 -217.5 93c-40 0 -78.167 -6.16699 -114.5 -18.5s-69.833 -30.833 -100.5 -55.5c-4 -43.333 -13 -75.333 -27 -96s-33.667 -31 -59 -31c-20 0 -36.167 6.33301 -48.5 19s-18.5 29 -18.5 49
c0 16 3.66699 31.333 11 46s20.666 31.334 39.999 50.001c12 52 23 134 33 246s17.333 239 22 381h49c38 -15.333 89.667 -27.333 155 -36s137.333 -13 216 -13c63.333 0 119.833 6 169.5 18s89.5 29 119.5 51z" />
    <glyph glyph-name="six" unicode="6" 
d="M363 678c45.333 62.667 96.6689 109.665 154.002 140.998s120.666 47 189.999 47c119.333 0 214.666 -37.5 285.999 -112.5s107 -175.833 107 -302.5c0 -143.333 -43.667 -260.166 -131 -350.499s-199.333 -135.5 -336 -135.5c-151.333 0 -271.5 59.667 -360.5 179
s-133.5 281 -133.5 485c0 230 55.167 417.5 165.5 562.5s252.5 217.5 426.5 217.5c95.333 0 172.5 -22.667 231.5 -68s88.5 -104 88.5 -176c0 -40 -11.667 -72.5 -35 -97.5s-53.333 -37.5 -90 -37.5c-34 0 -62.667 11.167 -86 33.5s-35 49.5 -35 81.5
c0 24 7.16699 48.833 21.5 74.5s21.5 39.834 21.5 42.501c0 16 -11.667 29.5 -35 40.5s-53.333 16.5 -90 16.5c-114.667 0 -203.167 -55.333 -265.5 -166s-93.833 -269 -94.5 -475zM645.003 740.998c-82.667 0 -148.002 -29.833 -196.002 -89.5s-72 -141.5 -72 -245.5
c0 -106 22.833 -190.333 68.5 -253s106.834 -94 183.501 -94c80.667 0 143.834 31.167 189.501 93.5s68.5 148.833 68.5 259.5c0 106 -21 187.333 -63 244s-101.667 85 -179 85z" />
    <glyph glyph-name="seven" unicode="7" 
d="M260 1407c52.667 -8.66699 111.166 -15.001 175.499 -19.001s143.166 -6 236.499 -6c88.667 0 167.834 1.16699 237.501 3.5s132.5 5.83301 188.5 10.5v-67c-126 -260.667 -214.5 -465.834 -265.5 -615.501s-76.5 -275.5 -76.5 -377.5
c0 -21.333 0.666992 -52.166 2 -92.499s2 -70.166 2 -89.499c0 -64 -12.167 -112.167 -36.5 -144.5s-60.166 -48.5 -107.499 -48.5c-36 0 -64.667 13 -86 39s-32 61.333 -32 106c0 92 36.333 225.5 109 400.5s190.334 412.167 353.001 711.5
c-70.667 -3.33301 -127.167 -5.83301 -169.5 -7.5s-77.833 -2.5 -106.5 -2.5c-31.333 0 -72 1 -122 3s-84.333 3 -103 3c-53.333 0 -85.833 -5 -97.5 -15s-22.834 -41.667 -33.501 -95l-39 -195l-86 9z" />
    <glyph glyph-name="eight" unicode="8" 
d="M731 809c54.667 40.667 94 82.833 118 126.5s36 94.167 36 151.5c0 72 -24.333 129.333 -73 172s-114 64 -196 64c-80.667 0 -144.5 -20 -191.5 -60s-70.5 -94.333 -70.5 -163c0 -65.333 27.833 -119.833 83.5 -163.5s153.5 -86.167 293.5 -127.5zM529 648.999
c-74.667 -28.667 -130.333 -68.832 -167 -120.499s-55 -115.167 -55 -190.5c0 -90 26.5 -159.333 79.5 -208s128.167 -73 225.5 -73c100 0 179.333 25.167 238 75.5s88 118.166 88 203.499c0 117.333 -117.333 215.333 -352 294zM444.001 686.001
c-78.667 30 -138.833 73.501 -180.5 130.501s-62.5 124.833 -62.5 203.5c0 113.333 39.333 206.166 118 278.499s180.667 108.5 306 108.5c121.333 0 218.833 -29.5 292.5 -88.5s110.5 -136.833 110.5 -233.5c0 -62 -19.833 -119.667 -59.5 -173
s-94.167 -96.666 -163.5 -129.999c100 -35.333 174.833 -84.333 224.5 -147s74.5 -139 74.5 -229c0 -130.667 -47.833 -236.834 -143.5 -318.501s-221.167 -122.5 -376.5 -122.5c-138 0 -247.333 33.833 -328 101.5s-121 159.5 -121 275.5c0 80.667 27 151.167 81 211.5
s130 104.5 228 132.5z" />
    <glyph glyph-name="nine" unicode="9" 
d="M874 696c-46 -63.333 -97.668 -110.833 -155.001 -142.5s-120.333 -47.5 -189 -47.5c-118.667 0 -214.167 38 -286.5 114s-108.5 177.333 -108.5 304c0 142 44 258 132 348s200.333 135 337 135c150.667 0 270.334 -59.667 359.001 -179s133 -281 133 -485
c0 -230.667 -54.833 -418.334 -164.5 -563.001s-251.5 -217 -425.5 -217c-95.333 0 -172.5 22.833 -231.5 68.5s-88.5 104.834 -88.5 177.501c0 39.333 11.667 71.333 35 96s53.333 37 90 37c32.667 0 60.667 -11.167 84 -33.5s35 -49.5 35 -81.5
c0 -24 -7.16699 -48.5 -21.5 -73.5s-21.5 -38.5 -21.5 -40.5c0 -16 12 -29.667 36 -41s54.333 -17 91 -17c115.333 0 204 55.333 266 166s93.333 269 94 475zM591.999 631c80 0 144.334 29.667 193.001 89s73 137.333 73 234c0 113.333 -22 201.5 -66 264.5
s-105.333 94.5 -184 94.5c-80.667 0 -143.834 -30.833 -189.501 -92.5s-68.5 -147.5 -68.5 -257.5c0 -106.667 21 -188.667 63 -246s101.667 -86 179 -86z" />
    <glyph glyph-name="colon" unicode=":" 
d="M616 -31c-34.667 0 -64.5 12.333 -89.5 37s-37.5 54 -37.5 88s12.667 63.667 38 89s55 38 89 38c34.667 0 64.167 -12.333 88.5 -37s36.5 -54.667 36.5 -90c0 -34.667 -12 -64.167 -36 -88.5s-53.667 -36.5 -89 -36.5zM616 676c-34.667 0 -64.5 12.5 -89.5 37.5
s-37.5 54.833 -37.5 89.5c0 34 12.5 63.333 37.5 88s54.833 37 89.5 37c35.333 0 65 -12.167 89 -36.5s36 -53.833 36 -88.5s-12 -64.5 -36 -89.5s-53.667 -37.5 -89 -37.5z" />
    <glyph glyph-name="semicolon" unicode=";" 
d="M616 676c-34 0 -63.167 12.5 -87.5 37.5s-36.5 54.833 -36.5 89.5s12 64.167 36 88.5s53.333 36.5 88 36.5c35.333 0 65 -12.167 89 -36.5s36 -53.833 36 -88.5s-12 -64.5 -36 -89.5s-53.667 -37.5 -89 -37.5zM670 -13c-10 -3.33301 -19.834 -6.16797 -29.501 -8.50098
s-18.5 -3.5 -26.5 -3.5c-38.667 0 -69.167 10.833 -91.5 32.5s-33.5 51.167 -33.5 88.5c0 34.667 12.667 64.5 38 89.5s55 37.5 89 37.5c48.667 0 88.167 -18.667 118.5 -56s45.5 -85.333 45.5 -144c0 -80 -21.667 -153.667 -65 -221s-109 -129.666 -197 -186.999l-47 59
c64.667 48 114.334 96.5 149.001 145.5s52 94.833 52 137.5c0 8.66699 -0.166992 15 -0.5 19s-0.833008 7.66699 -1.5 11z" />
    <glyph glyph-name="less" unicode="&#x3c;" 
d="M1092 178v-164l-951 437v129l951 436v-162l-754 -338z" />
    <glyph glyph-name="equal" unicode="=" 
d="M1092 641h-951v139h951v-139zM1092 244h-951v139h951v-139z" />
    <glyph glyph-name="greater" unicode="&#x3e;" 
d="M1092 580v-129l-951 -437v164l754 338l-754 338v162z" />
    <glyph glyph-name="question" unicode="?" 
d="M559 -27c-34.667 0 -64.167 12.5 -88.5 37.5s-36.5 54.833 -36.5 89.5c0 35.333 12.167 65.333 36.5 90s53.833 37 88.5 37s64.5 -12.333 89.5 -37s37.5 -54.667 37.5 -90c0 -34 -12.333 -63.667 -37 -89s-54.667 -38 -90 -38zM604 487v-79.001h-82v141
c0 52 6.66699 96 20 132s40.333 80 81 132c4.66699 6.66699 11.667 15.667 21 27c94.667 120.667 142 230.334 142 329.001c0 86.667 -19.5 151.334 -58.5 194.001s-97.833 64 -176.5 64c-48 0 -90.667 -11.333 -128 -34s-56 -47.334 -56 -74.001c0 -8 15.333 -26 46 -54
s46 -61.333 46 -100c0 -35.333 -10.833 -63.833 -32.5 -85.5s-50.5 -32.5 -86.5 -32.5c-39.333 0 -71 14.333 -95 43s-36 66.667 -36 114c0 88 37.667 162.333 113 223s170 91 284 91c114.667 0 208.167 -32.333 280.5 -97s108.5 -148 108.5 -250
c0 -125.333 -79 -258 -237 -398l-45 -40c-43.333 -39.333 -72.333 -76.5 -87 -111.5s-22 -79.833 -22 -134.5z" />
    <glyph glyph-name="at" unicode="@" 
d="M688 979c-28.667 0 -54.834 -12.166 -78.501 -36.499s-47.167 -64.166 -70.5 -119.499c-27.333 -64 -47.166 -121 -59.499 -171s-18.5 -96.667 -18.5 -140c0 -45.333 8 -80.5 24 -105.5s38 -37.5 66 -37.5c29.333 0 58.333 17.333 87 52s55.667 84.667 81 150
c18 49.333 32 97.666 42 144.999s15 88.666 15 123.999c0 45.333 -7.5 79.833 -22.5 103.5s-36.833 35.5 -65.5 35.5zM731 466.001c-29.333 -56 -60.6641 -97.165 -93.9971 -123.498s-71 -39.5 -113 -39.5c-66 0 -118 25.333 -156 76s-57 120.334 -57 209.001
c0 116 36.833 220.333 110.5 313s155.167 139 244.5 139c44 0 78.833 -12.333 104.5 -37s42.5 -62 50.5 -112l33 135h135l-119 -498c-4.66699 -18.667 -8.16699 -35.667 -10.5 -51s-3.5 -30.333 -3.5 -45c0 -24.667 5 -42.834 15 -54.501s25.667 -17.5 47 -17.5
c62 0 120.5 48.833 175.5 146.5s82.5 209.5 82.5 335.5c0 152 -43.833 275.333 -131.5 370s-200.167 142 -337.5 142c-165.333 0 -303.666 -68.667 -414.999 -206s-167 -310.333 -167 -519c0 -184.667 48.5 -331.5 145.5 -440.5s226.5 -163.5 388.5 -163.5
c77.333 0 151.666 13.833 222.999 41.5s144 71.167 218 130.5l26 -43c-69.333 -62 -143.5 -108.667 -222.5 -140s-161.167 -47 -246.5 -47c-198.667 0 -357.834 61.667 -477.501 185s-179.5 287.666 -179.5 492.999c0 100.667 16.167 196 48.5 286s78.833 170 139.5 240
c67.333 78 144.166 137.167 230.499 177.5s178.166 60.5 275.499 60.5c162 0 292.333 -52.333 391 -157s148 -243.334 148 -416.001c0 -145.333 -35.333 -270.5 -106 -375.5s-151.334 -157.5 -242.001 -157.5c-46.667 0 -83.167 14 -109.5 42s-41.166 68.333 -44.499 121z
" />
    <glyph glyph-name="A" unicode="A" 
d="M569 1092l-188 -543h383zM1100 188c14 -38 29.167 -62.499 45.5 -73.499s51.5 -17.167 105.5 -18.5v-96h-532v96c7.33301 0 18 0.333008 32 1c92 1.33301 138 16 138 44c0 8.66699 -1.33301 19 -4 31s-6 24 -10 36l-80 236h-445l-55 -145
c-6.66699 -17.333 -12.167 -37 -16.5 -59s-6.5 -40 -6.5 -54c0 -32.667 10.833 -55.834 32.5 -69.501s61.5 -20.5 119.5 -20.5h18v-96h-462v96h20c44 0 77.5 10.167 100.5 30.5s46.167 62.833 69.5 127.5l405 1143h84z" />
    <glyph glyph-name="B" unicode="B" 
d="M57 96l19 -0.000976562c75.333 0 120.833 5.5 136.5 16.5s23.5 34.833 23.5 71.5v1006c0 38 -7.66699 62.833 -23 74.5s-48 17.5 -98 17.5h-58v92h668c124.667 0 219.667 -28.333 285 -85s98 -139 98 -247c0 -86.667 -26 -157.667 -78 -213
s-125.667 -90.666 -221 -105.999c116.667 -12 206.667 -47 270 -105s95 -134.333 95 -229c0 -126 -40.167 -222.333 -120.5 -289s-196.5 -100 -348.5 -100h-648v96zM655 95.999c104 0 178.167 21.668 222.5 65.001s66.5 114.666 66.5 213.999
c0 104 -27.167 178.833 -81.5 224.5s-144.5 68.5 -270.5 68.5h-148v-486c0 -34.667 5.83301 -57.667 17.5 -69s35.167 -17 70.5 -17h123zM633 1282l-111.001 0.000976562c-29.333 0 -49.666 -5.16699 -60.999 -15.5s-17 -29.833 -17 -58.5v-6v-446h131
c122.667 0 206 20.5 250 61.5s66 113.833 66 218.5c0 85.333 -20.5 147.666 -61.5 186.999s-106.5 59 -196.5 59z" />
    <glyph glyph-name="C" unicode="C" 
d="M969 1278l60.998 119.002h84l23 -561h-88c-25.333 155.333 -69.666 274 -132.999 356s-142 123 -236 123c-124.667 0 -218 -52.333 -280 -157s-93 -262 -93 -472c0 -212 31.167 -368.833 93.5 -470.5s158.166 -152.5 287.499 -152.5c100 0 182.167 35.5 246.5 106.5
s109.833 176.167 136.5 315.5l100 -12c-16.667 -158.667 -70 -283.334 -160 -374.001s-204.333 -136 -343 -136c-171.333 0 -312.5 67.667 -423.5 203s-166.5 308.666 -166.5 519.999c0 206.667 54.667 378.167 164 514.5s246.333 204.5 411 204.5
c66.667 0 126.834 -10.833 180.501 -32.5s98.834 -53.167 135.501 -94.5z" />
    <glyph glyph-name="D" unicode="D" 
d="M35 0l0.000976562 96h24c47.333 0 78.333 6 93 18s22 34.667 22 68v1010c0 34.667 -7.83301 57.667 -23.5 69s-54.167 17 -115.5 17v96h500c200 0 354 -59.333 462 -178s162 -288 162 -508c0 -212.667 -51.833 -380.5 -155.5 -503.5s-244.834 -184.5 -423.501 -184.5
h-545zM383.001 182c0 -34 8.33105 -56.833 24.998 -68.5s55.334 -17.5 116.001 -17.5c96.667 0 167.334 9.83301 212.001 29.5s82 54.167 112 103.5c28 47.333 49 109 63 185s21 167.333 21 274c0 218 -30 370.833 -90 458.5s-165.333 131.5 -316 131.5
c-62 0 -101.333 -5.83301 -118 -17.5s-25 -34.5 -25 -68.5v-1010z" />
    <glyph glyph-name="E" unicode="E" 
d="M57 0v96.001c6.66699 0 15.667 0.333008 27 1c98 0.666992 147 29.667 147 87v1006c0 57.333 -49.333 86.666 -148 87.999h-26v96h1014l25 -489h-92c-24 162 -61 268.667 -111 320s-152.333 77 -307 77c-62.667 0 -102.667 -5.83301 -120 -17.5s-26 -34.5 -26 -68.5v-434
h11c88.667 0 151 18.5 187 55.5s57.333 105.167 64 204.5h91v-610h-91c-6.66699 98.667 -28 166.667 -64 204s-98.333 56 -187 56h-11v-494c0 -34.667 8.83301 -58 26.5 -70s62.834 -18 135.501 -18c166.667 0 275.667 25.667 327 77s92.666 170.333 123.999 357h86
l-27 -524h-1055z" />
    <glyph glyph-name="F" unicode="F" 
d="M465 184c0 -56.667 51.667 -85.666 155 -86.999c29.333 0 52.666 -0.333008 69.999 -1v-96h-627v96c9.33301 0 22 0.333008 38 1c103.333 0.666992 155 29.667 155 87v1006c0 57.333 -50.333 86.666 -151 87.999h-42v96h1096l23 -489h-92
c-23.333 162 -60.166 268.667 -110.499 320s-173.5 77 -369.5 77c-62.667 0 -102.5 -5.83301 -119.5 -17.5s-25.5 -34.5 -25.5 -68.5v-434h39c92.667 0 157.334 18.5 194.001 55.5s58.667 105.167 66 204.5h90v-610h-90c-7.33301 99.333 -29.333 167.5 -66 204.5
s-101.334 55.5 -194.001 55.5h-39v-488z" />
    <glyph glyph-name="G" unicode="G" 
d="M1210 631l0.000976562 -96.002h-96c-27.333 0 -45 -5.83301 -53 -17.5s-12 -34.5 -12 -68.5v-482h-88l-50 178c-3.33301 -48 -34.333 -89.667 -93 -125s-127.334 -53 -206.001 -53c-162 0 -292.833 65.667 -392.5 197s-149.5 305.333 -149.5 522
c0 214.667 48.833 388.5 146.5 521.5s224.167 199.5 379.5 199.5c67.333 0 131 -13.667 191 -41s92.667 -56.666 98 -87.999l49 121h90l18 -547h-94c-26.667 158.667 -67.167 275.5 -121.5 350.5s-125.166 112.5 -212.499 112.5c-104.667 0 -183 -52.167 -235 -156.5
s-78 -261.833 -78 -472.5c0 -211.333 26.5 -368.666 79.5 -471.999s133.833 -155 242.5 -155c74 0 131.333 25 172 75s61 120.667 61 212v92c0 36.667 -3.83301 62 -11.5 76s-20.834 21 -39.501 21h-14h-101v96h520z" />
    <glyph glyph-name="H" unicode="H" 
d="M522 1374l0.000976562 -96h-45c-35.333 0 -59.833 -6.33301 -73.5 -19s-20.5 -35 -20.5 -67v-420h467v420c0 33.333 -7.66699 56 -23 68s-46.666 18 -93.999 18h-22v96h487v-96h-35c-40.667 0 -68.167 -6 -82.5 -18s-21.5 -34.667 -21.5 -68v-1010
c0 -33.333 7.33301 -56 22 -68s45.667 -18 93 -18h24v-96h-487v96h22c47.333 0 78.666 6 93.999 18s23 34.667 23 68v486h-467v-486c0 -33.333 7.66699 -56 23 -68s46.666 -18 93.999 -18h22v-96h-487v96h24c47.333 0 78.333 6 93 18s22 34.667 22 68v1010
c0 34.667 -7.83301 57.667 -23.5 69s-54.167 17 -115.5 17v96h487z" />
    <glyph glyph-name="I" unicode="I" 
d="M221 0v96h193c36 0 61.333 6.33301 76 19s22 35 22 67v1010c0 32 -7.33301 54.333 -22 67s-40 19 -76 19h-193v96h789v-96h-191c-36.667 0 -62.167 -6.33301 -76.5 -19s-21.5 -35 -21.5 -67v-1010c0 -32.667 7.16699 -55.167 21.5 -67.5s39.833 -18.5 76.5 -18.5h191v-96
h-789z" />
    <glyph glyph-name="J" unicode="J" 
d="M451 1278v95.9971h720v-96h-159c-30 0 -52.167 -7.33301 -66.5 -22s-21.5 -36.667 -21.5 -66v-832c0 -122 -38.5 -218 -115.5 -288s-183.5 -105 -319.5 -105c-121.333 0 -216.833 30.333 -286.5 91s-104.5 143.667 -104.5 249c0 70.667 18 128.334 54 173.001
s81.667 67 137 67c44.667 0 80 -13.333 106 -40s39 -62.667 39 -108c0 -43.333 -11.833 -77.666 -35.5 -102.999s-56.167 -38 -97.5 -38c-10 0 -21.333 0.666992 -34 2s-20.334 2 -23.001 2c-18 0 -30 -2.16699 -36 -6.5s-9 -13.166 -9 -26.499
c0 -39.333 24.333 -74.666 73 -105.999s108.334 -47 179.001 -47c92.667 0 160.167 22.167 202.5 66.5s63.5 116.166 63.5 215.499v834c0 31.333 -7 53.833 -21 67.5s-36.333 20.5 -67 20.5h-27h-151z" />
    <glyph glyph-name="K" unicode="K" 
d="M815 1161c8 10.667 14.4971 21.6699 19.4971 33.0029s7.5 21.666 7.5 30.999c0 20.667 -8 34.667 -24 42s-61.333 11 -136 11v96h498v-96h-43c-40 0 -75.833 -9.5 -107.5 -28.5s-65.5 -51.167 -101.5 -96.5l-240 -299l381 -674
c18.667 -32.667 37.334 -55.167 56.001 -67.5s44.334 -18.5 77.001 -18.5c3.33301 0 8.5 0.333008 15.5 1s12.167 1 15.5 1v-96h-543v96c7.33301 0 18.333 0.333008 33 1c87.333 1.33301 131 14.666 131 39.999c0 3.33301 -1.16699 8.16602 -3.5 14.499
s-6.16602 14.833 -11.499 25.5l-282 513l-162 -194v-314c0 -33.333 8 -56 24 -68s47.667 -18 95 -18h23v-96h-498v96h29c48.667 0 80.5 5.83301 95.5 17.5s22.5 34.5 22.5 68.5v1010c0 32.667 -7 55.167 -21 67.5s-42.333 18.5 -85 18.5h-41v96h498v-96h-45
c-36 0 -61.167 -6.33301 -75.5 -19s-21.5 -35 -21.5 -67v-555z" />
    <glyph glyph-name="L" unicode="L" 
d="M57 0v96c11.333 0 26.666 0.333008 45.999 1c103.333 0.666992 155 29.667 155 87v1006c0 58 -50.333 87.333 -151 88h-50v96h611v-96h-72c-59.333 0 -95.666 -5.66699 -108.999 -17s-20 -35 -20 -71v-1006c0 -38 7.5 -63.167 22.5 -75.5s57.167 -18.5 126.5 -18.5
c176 0 289.667 25.667 341 77s92 170.333 122 357h86l-26 -524h-1082z" />
    <glyph glyph-name="M" unicode="M" 
d="M858 1374h356.002v-96h-47c-36 0 -59.667 -5.5 -71 -16.5s-17 -34.833 -17 -71.5v-1006c0 -38 6.66699 -62.167 20 -72.5s51.666 -15.5 114.999 -15.5v-96h-458v96c70.667 0 112.5 5.33301 125.5 16s19.5 34.667 19.5 72v1045l-266 -727h-94l-289 727v-901
c0 -96 9.83301 -160 29.5 -192s55.5 -48 107.5 -48h17v-88h-402v88h8c54.667 0 92 15 112 45s30 95 30 195v862c0 38 -6.33301 62.167 -19 72.5s-54.334 15.5 -125.001 15.5v96h344l264 -663z" />
    <glyph glyph-name="N" unicode="N" 
d="M203 328v890.998c-13.333 38.667 -62 59 -146 61h-12v94h344l539 -1034v733c0 82.667 -12 138.834 -36 168.501s-68 44.5 -132 44.5h-8v88h434l-1 -88c-60.667 -0.666992 -102.667 -17 -126 -49s-35 -95.333 -35 -190v-1080h-117l-606 1149v-809
c0 -83.333 11.5 -140.666 34.5 -171.999s63.5 -47 121.5 -47h18v-88h-430v88c60 2.66699 101.333 19.167 124 49.5s34 90.833 34 181.5v9z" />
    <glyph glyph-name="O" unicode="O" 
d="M616 1315c-106.667 0 -185.5 -52.333 -236.5 -157s-76.5 -266.667 -76.5 -486c0 -205.333 26 -358.833 78 -460.5s130.333 -152.5 235 -152.5c105.333 0 184 52 236 156s78 261 78 471c0 214 -25.667 372.333 -77 475s-130.333 154 -237 154zM70 686
c0 211.333 51.167 384.333 153.5 519s232.5 202 390.5 202c159.333 0 290.333 -67.333 393 -202s154 -307.667 154 -519c0 -212.667 -51.167 -385.667 -153.5 -519s-233.5 -200 -393.5 -200c-158 0 -288.167 66.833 -390.5 200.5s-153.5 306.5 -153.5 518.5z" />
    <glyph glyph-name="P" unicode="P" 
d="M455 705c20.667 -2.66699 41.333 -4.49902 62 -5.49902s41.667 -1.5 63 -1.5c133.333 0 227 22.667 281 68s81 121.666 81 228.999c0 106.667 -22.333 181.167 -67 223.5s-135 63.5 -271 63.5c-64 0 -104.833 -5 -122.5 -15s-26.5 -33.667 -26.5 -71v-2v-489z
M58.999 96.001c92 0 146.501 5.16797 163.501 15.501s25.5 34.5 25.5 72.5v1006c0 57.333 -51 86.666 -153 87.999h-36v96h695c129.333 0 229.5 -33 300.5 -99s106.5 -159.333 106.5 -280c0 -133.333 -45.667 -231.833 -137 -295.5s-233.333 -95.5 -426 -95.5
c-41.333 0 -71.833 0.333008 -91.5 1s-36.834 1.66699 -51.501 3v-424c0 -56.667 67.667 -86 203 -88h1v-96h-600v96z" />
    <glyph glyph-name="Q" unicode="Q" 
d="M370 179c-3.33301 17.333 -5.83203 32.3291 -7.49902 44.9961s-2.5 23.334 -2.5 32.001c0 78 21.167 141.167 63.5 189.5s96.5 72.5 162.5 72.5c75.333 0 136.166 -26.167 182.499 -78.5s78.166 -131.166 95.499 -236.499c20.667 40.667 37.834 108.334 51.501 203.001
s20.5 199 20.5 313c0 192 -27.5 339.333 -82.5 442s-134.167 154 -237.5 154c-108 0 -188.167 -52.5 -240.5 -157.5s-78.5 -266.167 -78.5 -483.5c0 -117.333 6.16699 -217.166 18.5 -299.499s30.5 -147.5 54.5 -195.5zM924.001 13.9961
c27.333 -97.333 46.9971 -157.832 58.9971 -181.499s25 -35.5 39 -35.5c16.667 0 28.834 10.167 36.501 30.5s14.167 63.5 19.5 129.5h87c0 -8.66699 0.333008 -18.834 1 -30.501s1 -19.167 1 -22.5c0 -83.333 -18.667 -148.5 -56 -195.5s-89 -70.5 -155 -70.5
c-71.333 0 -124.666 29.167 -159.999 87.5s-53.666 146.833 -54.999 265.5c-16 -8 -33.333 -14 -52 -18s-43.667 -6 -75 -6c-159.333 0 -289.833 66.667 -391.5 200s-152.5 306.333 -152.5 519c0 214.667 50.167 388.5 150.5 521.5s231.5 199.5 393.5 199.5
c164.667 0 297 -66.167 397 -198.5s150 -306.5 150 -522.5c0 -138 -20.5 -257.5 -61.5 -358.5s-104.5 -188.167 -190.5 -261.5zM732.998 97.9971l-0.000976562 34.999c0 90.667 -13.167 160.834 -39.5 210.501s-63.5 74.5 -111.5 74.5
c-37.333 0 -67.166 -16.667 -89.499 -50s-33.5 -77.333 -33.5 -132c0 -56.667 13.333 -100.667 40 -132s64.334 -47 113.001 -47c28.667 0 54.167 3.83301 76.5 11.5s37.166 17.5 44.499 29.5z" />
    <glyph glyph-name="R" unicode="R" 
d="M440 762c4 0 9.33301 -0.333008 16 -1c40 -2 69.667 -3 89 -3c124 0 211 20.167 261 60.5s75 108.833 75 205.5c0 96 -20.667 163 -62 201s-130.666 57 -267.999 57c-44.667 0 -74.334 -4 -89.001 -12s-22 -22.333 -22 -43v-25v-440zM231 184l-0.00488281 1006
c0 57.333 -46.667 86.666 -140 87.999h-34v96h637c132 0 232.667 -28.667 302 -86s104 -141.333 104 -252c0 -100 -32.833 -179.5 -98.5 -238.5s-160.5 -93.5 -284.5 -103.5c66.667 -4.66699 120.834 -27.5 162.501 -68.5s70.167 -99.167 85.5 -174.5l45 -213
c8.66699 -42 18.334 -73 29.001 -93s22.667 -30 36 -30c19.333 0 33.833 15.833 43.5 47.5s15.834 81.834 18.501 150.501h84v-49c0 -98 -18.167 -172.333 -54.5 -223s-89.166 -76 -158.499 -76c-73.333 0 -126.166 22 -158.499 66s-56.166 151 -71.499 321
c-11.333 122 -34.333 204.5 -69 247.5s-96.334 64.5 -185.001 64.5h-84v-480c0 -58 47.667 -87 143 -87c21.333 -0.666992 38 -1 50 -1v-96h-576v96h45c60 0 96.5 5.5 109.5 16.5s19.5 34.833 19.5 71.5z" />
    <glyph glyph-name="S" unicode="S" 
d="M147 -25l-8.00098 560h88c26.667 -158.667 77.167 -278 151.5 -358s172.166 -120 293.499 -120c89.333 0 159.833 24 211.5 72s77.5 113.667 77.5 197c0 122 -109 211.333 -327 268l-46 12c-173.333 46 -289.666 98.833 -348.999 158.5s-89 144.167 -89 253.5
c0 115.333 35.667 209 107 281s164 108 278 108c72.667 0 139 -11.5 199 -34.5s111.667 -56.5 155 -100.5l72 117h71l19 -500h-84c-32 139.333 -83.5 244.833 -154.5 316.5s-159.5 107.5 -265.5 107.5c-77.333 0 -137.333 -19.667 -180 -59s-64 -94 -64 -164
c0 -114.667 109.333 -199.334 328 -254.001l43 -11c169.333 -43.333 285.333 -97.666 348 -162.999s94 -157 94 -275c0 -134 -39.667 -237.5 -119 -310.5s-192.666 -109.5 -339.999 -109.5c-72 0 -141.167 13 -207.5 39s-118.5 60.333 -156.5 103l-76 -134h-70z" />
    <glyph glyph-name="T" unicode="T" 
d="M920 96l0.00195312 -96h-611v96h41c76 0 121.667 4.83301 137 14.5s23 34.167 23 73.5v1014c0 43.333 -4.83301 70.5 -14.5 81.5s-28.167 16.5 -55.5 16.5h-43c-70 0 -124.5 -34.833 -163.5 -104.5s-68.5 -185.5 -88.5 -347.5h-82l25 530h1053l26 -530h-84
c-20.667 166.667 -50.334 283.667 -89.001 351s-94.334 101 -167.001 101h-24c-38 0 -61.5 -6.5 -70.5 -19.5s-13.5 -39.167 -13.5 -78.5v-1014c0 -38 8 -62.167 24 -72.5s62 -15.5 138 -15.5h39z" />
    <glyph glyph-name="U" unicode="U" 
d="M197 1192c0 34 -7.83398 56.835 -23.501 68.502s-50.167 17.5 -103.5 17.5h-35v96h528v-96h-63c-35.333 0 -59.833 -6.33301 -73.5 -19s-20.5 -35 -20.5 -67v-766c0 -120.667 22 -208.834 66 -264.501s113.333 -83.5 208 -83.5c94 0 160.833 30.667 200.5 92
s59.5 176.666 59.5 345.999v643c0 47.333 -10.833 79 -32.5 95s-68.167 24 -139.5 24v96h440v-96h-14c-62 0 -102.5 -9.5 -121.5 -28.5s-28.5 -64.833 -28.5 -137.5v-604c0 -196 -33.167 -335.167 -99.5 -417.5s-175.166 -123.5 -326.499 -123.5
c-138 0 -242.667 39 -314 117s-107 192.667 -107 344v764z" />
    <glyph glyph-name="V" unicode="V" 
d="M141 1196c-19.333 54.667 -62.3311 82 -128.998 82h-32v96h546v-96h-63c-38 0 -64.333 -3.83301 -79 -11.5s-22 -22.167 -22 -43.5c0 -8.66699 0.833008 -17.667 2.5 -27s4.5 -19.666 8.5 -30.999l299 -866l264 776c8.66699 28.667 14.5 51 17.5 67s4.5 31.333 4.5 46
c0 31.333 -10 54.166 -30 68.499s-53 21.5 -99 21.5h-28h-15v96h461v-96h-20c-42.667 0 -75.334 -10.167 -98.001 -30.5s-45.334 -62.833 -68.001 -127.5l-402 -1153h-81z" />
    <glyph glyph-name="W" unicode="W" 
d="M463 -33l-105 0.000976562l-268 1241c-6 30 -15.167 49.167 -27.5 57.5s-35.833 12.5 -70.5 12.5v96h387v-96h-10c-28.667 0 -49.167 -4.16699 -61.5 -12.5s-18.5 -21.833 -18.5 -40.5c0 -20.667 0.5 -38.167 1.5 -52.5s2.5 -24.833 4.5 -31.5l166 -779l123 590h161
l127 -598l146 719c4 22 7 43.667 9 65s3 40.666 3 57.999c0 32 -6.16699 53.667 -18.5 65s-37.5 17 -75.5 17h-18v96h325v-96c-2 0 -5 0.333008 -9 1s-7 1 -9 1c-25.333 0 -45.5 -11.667 -60.5 -35s-28.5 -65 -40.5 -125l-225 -1153h-108l-168 735z" />
    <glyph glyph-name="X" unicode="X" 
d="M-4 0v95.9971h18c48 0 91.667 16.333 131 49s88 94.334 146 185.001l219 342l-340 534v1c-30 47.333 -64 71 -102 71h-68v96h539v-96h-105c-12 0 -20.833 -2 -26.5 -6s-8.5 -10.333 -8.5 -19c0 -7.33301 1.33301 -14.666 4 -21.999s7 -15.666 13 -24.999l215 -356
l172 280c9.33301 16.667 16.333 31.5 21 44.5s7 24.833 7 35.5c0 24 -8.66699 41.333 -26 52s-46 16 -86 16h-27v96h482v-96h-9c-53.333 0 -96.666 -9.66699 -129.999 -29s-71 -62.333 -113 -129l-232 -358l361 -569c26.667 -42 50.5 -68.667 71.5 -80s50.833 -17 89.5 -17
h33v-96h-577v96h90c28.667 0 48.5 2.66699 59.5 8s16.5 14.333 16.5 27s-8 31.667 -24 57c-4 6 -7 10.667 -9 14l-234 384l-170 -277c-19.333 -30.667 -33 -56 -41 -76s-12 -39 -12 -57c0 -26.667 10.167 -46.667 30.5 -60s51.166 -20 92.499 -20h27v-96h-498z" />
    <glyph glyph-name="Y" unicode="Y" 
d="M942 96l-0.00195312 -95.999h-629v96h146c22.667 0 39.167 6.83301 49.5 20.5s15.5 35.5 15.5 65.5v385l-368 609c-27.333 45.333 -50 73.666 -68 84.999s-41.333 17 -70 17h-18v96h545v-96h-82c-33.333 0 -56.666 -3 -69.999 -9s-20 -16 -20 -30
c0 -7.33301 2.16699 -16.333 6.5 -27s10.833 -23.334 19.5 -38.001l285 -476l234 432c7.33301 14 12.833 27 16.5 39s5.5 23 5.5 33c0 27.333 -10.5 46.833 -31.5 58.5s-57.5 17.5 -109.5 17.5h-35v96h469v-96h-16c-35.333 0 -62.666 -6.16699 -81.999 -18.5
s-41.333 -40.166 -66 -83.499l-336 -598v-396c0 -33.333 6 -56 18 -68s36 -18 72 -18h119z" />
    <glyph glyph-name="Z" unicode="Z" 
d="M698 96c105.333 0 180.501 27.667 225.501 83s81.833 170.333 110.5 345h86l-26 -524h-1008v94l774 1188h-303c-108 0 -183.833 -25.167 -227.5 -75.5s-79.834 -153.5 -108.501 -309.5h-86l31 477h942v-86l-776 -1192h366z" />
    <glyph glyph-name="bracketleft" unicode="[" 
d="M594 1417v-1583h315v-61h-465v1706h465v-62h-315z" />
    <glyph glyph-name="backslash" unicode="\" 
d="M432 1419l514 -1609h-145l-514 1609h145z" />
    <glyph glyph-name="bracketright" unicode="]" 
d="M786 -227h-467v61h318v1583h-318v62h467v-1706z" />
    <glyph glyph-name="asciicircum" unicode="^" 
d="M684 1360l276.999 -353.001c4 -6 7 -12 9 -18s3 -12 3 -18c0 -14.667 -5.16699 -26.834 -15.5 -36.501s-22.166 -14.5 -35.499 -14.5c-6.66699 0 -11.834 0.666992 -15.501 2s-7.5 4 -11.5 8l-279 278l-278 -278c-3.33301 -3.33301 -7 -5.83301 -11 -7.5
s-9.33301 -2.5 -16 -2.5c-13.333 0 -25.166 4.83301 -35.499 14.5s-15.5 21.834 -15.5 36.501c0 6 1 12 3 18s5 12 9 18l279 353c6 8 14.5 14 25.5 18s24.167 6 39.5 6c14.667 0 28 -2.16699 40 -6.5s21.333 -10.166 28 -17.499z" />
    <glyph glyph-name="underscore" unicode="_" 
d="M1233 -358v-125h-1233v125h1233z" />
    <glyph glyph-name="grave" unicode="`" 
d="M418 1276c-34 20.667 -56.5 37.833 -67.5 51.5s-16.5 29.167 -16.5 46.5c0 21.333 7.5 40 22.5 56s32.833 24 53.5 24c16.667 0 34 -5.16699 52 -15.5s36 -25.5 54 -45.5l277 -301h-76z" />
    <glyph glyph-name="a" unicode="a" 
d="M784 514c-154 -20.667 -264.833 -52 -332.5 -94s-101.5 -100 -101.5 -174c0 -60 13 -103.667 39 -131s67 -41 123 -41c84 0 150.333 25.833 199 77.5s73 124.167 73 217.5v145zM971 678l0.000976562 -474.999c0 -31.333 6.5 -54.833 19.5 -70.5s32.5 -23.5 58.5 -23.5
c15.333 0 32.333 4.66699 51 14s30.334 14 35.001 14c8 0 14.333 -2.83301 19 -8.5s7 -13.834 7 -24.501c0 -26.667 -19.167 -54 -57.5 -82s-81.833 -42 -130.5 -42c-48 0 -87 13 -117 39s-49 63.333 -57 112c-36 -48.667 -88.167 -88.167 -156.5 -118.5
s-139.166 -45.5 -212.499 -45.5c-84.667 0 -152.5 22.667 -203.5 68s-76.5 106 -76.5 182c0 98.667 49.167 177.834 147.5 237.501s260.5 107.5 486.5 143.5v147c0 47.333 -18.833 83.833 -56.5 109.5s-91.834 38.5 -162.501 38.5c-54 0 -98.167 -7.16699 -132.5 -21.5
s-51.5 -31.833 -51.5 -52.5c0 -4.66699 8.5 -18 25.5 -40s25.5 -46.667 25.5 -74c0 -32 -9.83301 -57.167 -29.5 -75.5s-45.834 -27.5 -78.501 -27.5c-38 0 -67.333 10.167 -88 30.5s-31 49.166 -31 86.499c0 75.333 36.667 137.833 110 187.5s167.666 74.5 282.999 74.5
c130.667 0 225.5 -23.5 284.5 -70.5s88.5 -124.5 88.5 -232.5z" />
    <glyph glyph-name="b" unicode="b" 
d="M666 59c85.333 0 147.5 32.665 186.5 97.998s58.5 169.333 58.5 312c0 140.667 -20.667 243.834 -62 309.501s-106.666 98.5 -195.999 98.5c-90.667 0 -156.667 -32.167 -198 -96.5s-62 -168.166 -62 -311.499c0 -144.667 21.667 -249.167 65 -313.5
s112.666 -96.5 207.999 -96.5zM244 -25.002l-72.001 0.00195312c12.667 63.333 21.334 117.166 26.001 161.499s7 88.166 7 131.499v969c0 32 -6.5 53 -19.5 63s-43.5 15 -91.5 15l-10.5 1c-7 0.666992 -13.833 1 -20.5 1l-10.5 -1c-7 -0.666992 -14.167 -1 -21.5 -1v82
l362 22v-588c35.333 52 76.333 90 123 114s102.667 36 168 36c130 0 235.5 -46.5 316.5 -139.5s121.5 -215.833 121.5 -368.5c0 -150.667 -40.5 -273 -121.5 -367s-185.167 -141 -312.5 -141c-72.667 0 -135.667 13.167 -189 39.5s-107 70.5 -161 132.5z" />
    <glyph glyph-name="c" unicode="c" 
d="M1094 264c-40 -100.667 -94.5 -175.333 -163.5 -224s-155.167 -73 -258.5 -73c-143.333 0 -260.166 45.5 -350.499 136.5s-135.5 209.5 -135.5 355.5c0 156 47.833 282 143.5 378s221.5 144 377.5 144c103.333 0 188.833 -22.833 256.5 -68.5
s101.5 -102.834 101.5 -171.501c0 -44.667 -12.667 -80.334 -38 -107.001s-58.333 -40 -99 -40c-36 0 -65.5 10.5 -88.5 31.5s-34.5 48.167 -34.5 81.5c0 30.667 10.833 56.834 32.5 78.501s32.5 35.5 32.5 41.5c0 20.667 -15.667 37.834 -47 51.501
s-71.666 20.5 -120.999 20.5c-102 0 -177.333 -33.167 -226 -99.5s-73 -169.833 -73 -310.5c0 -134 26.333 -233.667 79 -299s133 -98 241 -98c69.333 0 127.666 17 174.999 51s86.666 86.667 117.999 158z" />
    <glyph glyph-name="d" unicode="d" 
d="M563 868c-88.667 0 -153.833 -31.333 -195.5 -94s-62.5 -161.667 -62.5 -297c0 -139.333 20.5 -239.666 61.5 -300.999s107.167 -92 198.5 -92c90 0 155.5 31.167 196.5 93.5s61.5 162.166 61.5 299.499c0 139.333 -20.5 239.333 -61.5 300s-107.167 91 -198.5 91z
M834.001 152c-40.667 -61.333 -86.501 -106.833 -137.501 -136.5s-109.167 -44.5 -174.5 -44.5c-123.333 0 -225.5 47.167 -306.5 141.5s-121.5 214.5 -121.5 360.5c0 147.333 41 268.833 123 364.5s184.333 143.5 307 143.5c64.667 0 120.834 -12.167 168.501 -36.5
s91.167 -62.833 130.5 -115.5v408c0 32 -6.66699 53 -20 63s-45.333 15 -96 15h-7c-12.667 1.33301 -23.334 2 -32.001 2c-1.33301 0 -3.66602 -0.333008 -6.99902 -1c-13.333 -0.666992 -26 -1 -38 -1v82l387 22v-1255c0 -30 7.16699 -50.5 21.5 -61.5
s42.5 -16.5 84.5 -16.5c4.66699 0 12.5 0.333008 23.5 1s19.5 1 25.5 1v-88l-331 -23v175z" />
    <glyph glyph-name="e" unicode="e" 
d="M365 459l0.000976562 -32.998c0 -109.333 26.5 -195 79.5 -257s126.167 -93 219.5 -93c78.667 0 148.167 18.167 208.5 54.5s112.166 91.833 155.499 166.5l66 -41c-49.333 -96 -113 -168.167 -191 -216.5s-170 -72.5 -276 -72.5c-142 0 -257.5 46.833 -346.5 140.5
s-133.5 215.5 -133.5 365.5s44.5 272.167 133.5 366.5s204.5 141.5 346.5 141.5c142.667 0 256.5 -43.167 341.5 -129.5s127.5 -202.833 127.5 -349.5c0 -4.66699 -0.333008 -11.834 -1 -21.501s-1 -16.834 -1 -21.501h-729zM365.001 547.002h429.999
c31.333 0 52.333 4.5 63 13.5s16 25.5 16 49.5c0 91.333 -20.167 162 -60.5 212s-97.166 75 -170.499 75c-93.333 0 -162 -27.667 -206 -83s-68 -144.333 -72 -267z" />
    <glyph glyph-name="f" unicode="f" 
d="M188 88l183 -0.000976562c27.333 3.33301 45.333 9.66602 54 18.999s13 29 13 59v698h-262v84h262v13c0 152 36.833 266 110.5 342s183.834 114 330.501 114c94 0 170 -18.667 228 -56s87 -86.333 87 -147c0 -36 -10 -65 -30 -87s-46.333 -33 -79 -33
c-30.667 0 -56.334 10.333 -77.001 31s-31 46.334 -31 77.001c0 16 5.5 34.833 16.5 56.5s16.5 34.834 16.5 39.501c0 14 -7.5 23.667 -22.5 29s-45.167 8 -90.5 8c-91.333 0 -159.5 -28 -204.5 -84s-67.5 -141.333 -67.5 -256c0 -4.66699 0.333008 -12.167 1 -22.5
s1 -18.5 1 -24.5h360v-84h-360v-698c0 -30 4.66699 -50 14 -60s27.333 -16 54 -18h268v-88h-775v88z" />
    <glyph glyph-name="g" unicode="g" 
d="M465 -16c-46.667 -6.66699 -85.002 -25.499 -115.002 -56.499s-45 -68.167 -45 -111.5c0 -48 21.833 -84.333 65.5 -109s107.834 -37 192.501 -37c126.667 0 219.834 14.667 279.501 44s89.5 74.666 89.5 135.999c0 47.333 -15.833 81.5 -47.5 102.5
s-87.5 31.5 -167.5 31.5h-252zM595.998 891.001c-71.333 0 -124 -20.166 -158 -60.499s-51 -102.833 -51 -187.5c0 -80.667 17.167 -140.834 51.5 -180.501s86.833 -59.5 157.5 -59.5c72 0 124.833 19.667 158.5 59s50.5 101 50.5 185c0 83.333 -17 144.833 -51 184.5
s-86.667 59.5 -158 59.5zM888.998 928.002c36 31.333 68.002 53.498 96.002 66.498s56.667 19.5 86 19.5c40 0 70.5 -10.833 91.5 -32.5s31.5 -53.167 31.5 -94.5c0 -26 -8.5 -47.167 -25.5 -63.5s-39.167 -24.5 -66.5 -24.5c-42 0 -70 18.333 -84 55s-22.333 55 -25 55
c-4 0 -9 -1.83301 -15 -5.5s-13 -9.16699 -21 -16.5l-42 -33c25.333 -28 43.666 -57.833 54.999 -89.5s17 -69.5 17 -113.5c0 -108 -41.167 -191 -123.5 -249s-200.833 -87 -355.5 -87c-72.667 0 -123.334 -7 -152.001 -21s-43 -37.667 -43 -71
c0 -27.333 10.667 -46.833 32 -58.5s59.333 -17.5 114 -17.5h20l166 5h111c116.667 0 200.667 -20 252 -60s77 -104 77 -192c0 -105.333 -45.5 -185.666 -136.5 -240.999s-222.833 -83 -395.5 -83c-134 0 -238.167 18.833 -312.5 56.5s-111.5 89.834 -111.5 156.501
c0 46 18.333 86.167 55 120.5s87.334 58.5 152.001 72.5c-55.333 12.667 -95.5 33.5 -120.5 62.5s-37.5 68.833 -37.5 119.5c0 55.333 17.833 101.333 53.5 138s84.834 59.667 147.501 69c-56.667 25.333 -99.834 61.5 -129.501 108.5s-44.5 102.167 -44.5 165.5
c0 100.667 35.833 181.834 107.5 243.501s166.167 92.5 283.5 92.5c53.333 0 101.166 -6.33301 143.499 -19s81.833 -32.334 118.5 -59.001z" />
    <glyph glyph-name="h" unicode="h" 
d="M213 1237c0 32 -6.33105 53 -18.998 63s-43.334 15 -92.001 15l-10.5 1c-7 0.666992 -13.5 1 -19.5 1c-0.666992 0 -4.5 -0.333008 -11.5 -1s-14.167 -1 -21.5 -1v82l362 22v-631c40 62 86.667 108.333 140 139s114.666 46 183.999 46c98 0 174 -28.5 228 -85.5
s81 -137.833 81 -242.5v-479c0 -30 4.33301 -49.833 13 -59.5s27 -15.167 55 -16.5l88 -4v-86h-498v86l88 4c28 1.33301 46.333 7 55 17s13 29.667 13 59v487c0 65.333 -15.167 113.833 -45.5 145.5s-76.5 47.5 -138.5 47.5c-88 0 -153.833 -28.5 -197.5 -85.5
s-65.5 -142.5 -65.5 -256.5v-338c0 -31.333 4.5 -51.5 13.5 -60.5s27.167 -14.167 54.5 -15.5l88 -4v-86h-500v86l88 4c28 1.33301 46.333 6.83301 55 16.5s13 29.5 13 59.5v1071z" />
    <glyph glyph-name="i" unicode="i" 
d="M197 86l267.999 4c26.667 0 45 5 55 15s15 30.333 15 61v622c0 31.333 -6.66699 52.5 -20 63.5s-37.666 16.5 -72.999 16.5h-223v80l502 25v-807c0 -31.333 4.66699 -51.833 14 -61.5s28 -14.5 56 -14.5l262 -4v-86h-856v86zM742.999 1360
c0 -33.333 -11.668 -61.833 -35.001 -85.5s-51.666 -35.5 -84.999 -35.5c-34 0 -62.667 11.833 -86 35.5s-35 52.167 -35 85.5c0 32.667 11.833 61 35.5 85s52.167 36 85.5 36c32 0 60 -12 84 -36s36 -52.333 36 -85z" />
    <glyph glyph-name="j" unicode="j" 
d="M836 1358c0 -33.333 -11.833 -61.5 -35.5 -84.5s-52.167 -34.5 -85.5 -34.5c-32.667 0 -60.667 11.833 -84 35.5s-35 51.5 -35 83.5c0 32.667 12 61 36 85s51.667 36 83 36c32.667 0 61 -11.833 85 -35.5s36 -52.167 36 -85.5zM633 788
c0 32.667 -6.49805 54.167 -19.498 64.5s-40.167 15.5 -81.5 15.5h-36h-254v78l577 27v-905c0 -168.667 -37 -292.167 -111 -370.5s-190 -117.5 -348 -117.5c-80.667 0 -143.834 14.833 -189.501 44.5s-68.5 70.834 -68.5 123.501c0 38.667 10.833 69.167 32.5 91.5
s50.5 33.5 86.5 33.5c31.333 0 56.666 -9.16699 75.999 -27.5s29 -41.833 29 -70.5c0 -25.333 -8 -50.333 -24 -75c-3.33301 -5.33301 -5 -8.33301 -5 -9c0 -8.66699 6.16699 -15.334 18.5 -20.001s30.833 -7 55.5 -7c94 0 161.167 23.333 201.5 70s60.5 140.667 60.5 282
v772z" />
    <glyph glyph-name="k" unicode="k" 
d="M169 90c28.667 1.33301 47.335 6.66602 56.002 15.999s13 29.333 13 60v1073c0 32 -6.5 53 -19.5 63s-44.167 15 -93.5 15c-0.666992 0 -4.33398 0.333008 -11.001 1s-13.334 1 -20.001 1h-3c-8.66699 -1.33301 -17 -2 -25 -2v82l360 22v-919l313 289
c6.66699 6 12.834 13.667 18.501 23s8.5 16.666 8.5 21.999c0 12 -8.16699 20.667 -24.5 26s-43.833 8 -82.5 8h-65v78h524v-78h-6c-54.667 0 -104.334 -10.167 -149.001 -30.5s-103 -63.166 -175 -128.499l-102 -97l320 -428c24.667 -33.333 52 -57.5 82 -72.5
s70 -24.167 120 -27.5v-86h-528v86l61 4c32 1.33301 52.333 4.33301 61 9s13 12 13 22s-5.66699 23 -17 39l-1 2l-246 332l-125 -111v-217c0 -30.667 4.33301 -50.667 13 -60s27 -14.666 55 -15.999l90 -4v-86h-508v86z" />
    <glyph glyph-name="l" unicode="l" 
d="M465 90c26.667 0 45.001 5.00098 55.001 15.001s15 30.333 15 61v1071c0 31.333 -6.66699 52.166 -20 62.499s-40.333 15.5 -81 15.5h-5c-12 1.33301 -23.333 2 -34 2c-2.66699 0 -9.66699 -0.333008 -21 -1c-40.667 -0.666992 -79.334 -1 -116.001 -1v82l463 22v-1253
c0 -31.333 4.66699 -51.833 14 -61.5s28 -14.5 56 -14.5h260v-90h-852v90h266z" />
    <glyph glyph-name="m" unicode="m" 
d="M33 0l-0.00390625 85.998c31.333 0 52.5 4.83301 63.5 14.5s16.5 30.834 16.5 63.501v624c0 36.667 -4.83301 59.167 -14.5 67.5s-31.5 12.5 -65.5 12.5v80l235 25v-148c28 46.667 60.833 83 98.5 109s76.5 39 116.5 39c48.667 0 90.334 -14 125.001 -42
s58 -66.667 70 -116c34.667 54.667 70.167 94.667 106.5 120s76.5 38 120.5 38c65.333 0 117.833 -22.833 157.5 -68.5s59.5 -106.834 59.5 -183.501v-23v-534c0 -32 5.66699 -53 17 -63s33 -15 65 -15v-86h-330v86h11c30 0 50.167 4.83301 60.5 14.5
s15.5 30.834 15.5 63.501v500c0 72.667 -9.16699 121.834 -27.5 147.501s-49.5 38.5 -93.5 38.5c-50 0 -86.167 -20.667 -108.5 -62s-33.5 -112.333 -33.5 -213v-411c0 -32.667 5.33301 -53.834 16 -63.501s31.334 -14.5 62.001 -14.5h12v-86h-339v86h12
c30.667 0 51.334 5 62.001 15s16 31 16 63v500c0 72.667 -9.16699 121.834 -27.5 147.501s-49.5 38.5 -93.5 38.5c-50.667 0 -87 -20.333 -109 -61s-33 -112 -33 -214v-411c0 -32 5.33301 -53 16 -63s31.334 -15 62.001 -15h11v-86h-332z" />
    <glyph glyph-name="n" unicode="n" 
d="M145 90c28 1.33301 46.333 6.83301 55 16.5s13 29.5 13 59.5v622c0 32.667 -6.83301 54.167 -20.5 64.5s-44.5 15.5 -92.5 15.5h-28h-25v80l342 25v-197c46.667 68.667 96.667 118.667 150 150s114.666 47 183.999 47c98.667 0 174.834 -28.333 228.501 -85
s80.5 -137.667 80.5 -243v-479c0 -30 4.16699 -49.833 12.5 -59.5s26.833 -15.167 55.5 -16.5l80 -4v-86h-486v86l84 4c28 1.33301 46.167 6.83301 54.5 16.5s12.833 29.5 13.5 59.5v487c0 61.333 -16 108.833 -48 142.5s-77.333 50.5 -136 50.5
c-88 0 -153.833 -28.5 -197.5 -85.5s-65.5 -142.5 -65.5 -256.5v-338c0 -31.333 4.5 -51.5 13.5 -60.5s27.167 -14.167 54.5 -15.5l86 -4v-86h-485v86z" />
    <glyph glyph-name="o" unicode="o" 
d="M618 897c-91.333 0 -158.5 -34.167 -201.5 -102.5s-64.5 -175.5 -64.5 -321.5c0 -145.333 21.5 -252 64.5 -320s110.167 -102 201.5 -102c92 0 159.167 33.5 201.5 100.5s63.5 174.167 63.5 321.5c0 148 -21.167 255.667 -63.5 323s-109.5 101 -201.5 101zM133 473
c0 151.333 44.833 273.833 134.5 367.5s205.834 140.5 348.501 140.5s259 -47.167 349 -141.5s135 -216.5 135 -366.5s-44.833 -271.833 -134.5 -365.5s-206.167 -140.5 -349.5 -140.5c-142.667 0 -258.834 46.667 -348.501 140s-134.5 215.333 -134.5 366z" />
    <glyph glyph-name="p" unicode="p" 
d="M659 78c92 0 159.5 31.334 202.5 94.001s64.5 161.667 64.5 297c0 137.333 -20.333 237.166 -61 299.499s-105 93.5 -193 93.5c-98 0 -169 -30.5 -213 -91.5s-66 -161.5 -66 -301.5c0 -138 21.167 -237.667 63.5 -299s109.833 -92 202.5 -92zM379 795.001
c39.333 62.667 84.999 109.336 136.999 140.003s111.333 46 178 46c128 0 233.833 -47.333 317.5 -142s125.5 -216.667 125.5 -366c0 -148 -43 -269.667 -129 -365s-195.333 -143 -328 -143c-60 0 -112.667 11.667 -158 35s-88.333 61 -129 113v-375
c0 -30.667 4.33301 -50.334 13 -59.001s27 -13.667 55 -15l86 -4v-86h-500v86l90 4c28 1.33301 46.333 6.66602 55 15.999s13 28.666 13 57.999v1036c0 35.333 -6.66699 58.5 -20 69.5s-41.666 16.5 -84.999 16.5h-24h-3c-9.33301 -1.33301 -18 -2 -26 -2v88l332 25v-176z
" />
    <glyph glyph-name="q" unicode="q" 
d="M879 809l94.001 162.003h69c-10.667 -49.333 -18.667 -98 -24 -146s-8 -97 -8 -147v-940c0 -30.667 4.33301 -50.334 13 -59.001s27 -13.667 55 -15l87 -4v-86h-499v86l89 4c28.667 1.33301 47.167 6.66602 55.5 15.999s12.5 28.666 12.5 57.999v381
c-37.333 -54 -79.5 -93.167 -126.5 -117.5s-103.833 -36.5 -170.5 -36.5c-122.667 0 -225.334 48 -308.001 144s-124 217.333 -124 364c0 152 41.333 274.667 124 368s191 140 325 140c64.667 0 124 -13.833 178 -41.5s106.667 -71.167 158 -130.5zM565.001 887.003
c-90 0 -155.834 -31.167 -197.501 -93.5s-62.5 -160.833 -62.5 -295.5c0 -150 20.5 -257.5 61.5 -322.5s107.167 -97.5 198.5 -97.5c90 0 155.5 31.833 196.5 95.5s61.5 166.167 61.5 307.5c0 140.667 -20.667 243.5 -62 308.5s-106.666 97.5 -195.999 97.5z" />
    <glyph glyph-name="r" unicode="r" 
d="M858 86l-0.00195312 -86h-686v86l145 4c27.333 1.33301 45.5 6.66602 54.5 15.999s13.5 29.333 13.5 60v622c0 32 -6.66699 53.333 -20 64s-39.333 16 -78 16h-56h-79v80l409 25v-289c38 96 87.833 169.167 149.5 219.5s132.834 75.5 213.501 75.5
c64.667 0 116.667 -16 156 -48s59 -74 59 -126c0 -39.333 -11.5 -70.666 -34.5 -93.999s-53.833 -35 -92.5 -35c-33.333 0 -60.833 11.167 -82.5 33.5s-32.5 50.833 -32.5 85.5c0 18.667 3.5 35.667 10.5 51s16.833 27.333 29.5 36c-7.33301 2 -14.166 3.33301 -20.499 4
s-12.833 1 -19.5 1c-80.667 0 -155.167 -49.333 -223.5 -148s-102.5 -216.667 -102.5 -354v-219c0 -30.667 4.83301 -51 14.5 -61s27.5 -15 53.5 -15z" />
    <glyph glyph-name="s" unicode="s" 
d="M360 63l-69 -94.001h-68v406h74c25.333 -102 71.333 -181.5 138 -238.5s147 -85.5 241 -85.5c70 0 126.333 16 169 48s64 74 64 126c0 74.667 -75.333 126.334 -226 155.001l-48 9c-164 32 -271.5 71 -322.5 117s-76.5 111.333 -76.5 196
c0 85.333 29.5 152.833 88.5 202.5s139.167 74.5 240.5 74.5c57.333 0 108.666 -6.33301 153.999 -19s89 -33 131 -61l59 72h64v-340h-64c-24.667 82 -66.667 145.5 -126 190.5s-130.666 67.5 -213.999 67.5c-64 0 -115.167 -12 -153.5 -36s-57.5 -55 -57.5 -93
c0 -80.667 81.333 -135 244 -163l64 -11c146 -28 245.167 -64.5 297.5 -109.5s78.5 -109.5 78.5 -193.5c0 -98.667 -33.333 -176.667 -100 -234s-158 -86 -274 -86c-57.333 0 -113 8.83301 -167 26.5s-101 42.167 -141 73.5z" />
    <glyph glyph-name="t" unicode="t" 
d="M352 365v493.002h-223v82h16c96.667 0 170.5 35 221.5 105s79.833 176.333 86.5 319h86v-416h426v-90h-426v-565c0 -68.667 14 -119.334 42 -152.001s71.333 -49 130 -49c79.333 0 138.5 22.167 177.5 66.5s61.833 115.166 68.5 212.499h73v-52
c0 -110 -34.167 -196.5 -102.5 -259.5s-162.5 -94.5 -282.5 -94.5c-105.333 0 -180.5 28.833 -225.5 86.5s-67.5 162.167 -67.5 313.5z" />
    <glyph glyph-name="u" unicode="u" 
d="M834 164c-49.333 -70 -100.5 -120.666 -153.5 -151.999s-113.833 -47 -182.5 -47c-98.667 0 -175 28.333 -229 85s-81 137.667 -81 243v495c0 32.667 -6.66699 54.167 -20 64.5s-43.333 15.5 -90 15.5h-31h-33v80l363 25v-688c0 -65.333 15.167 -113.833 45.5 -145.5
s76.5 -47.5 138.5 -47.5c78 0 140.833 26.167 188.5 78.5s71.5 121.166 71.5 206.499c0 0.666992 0.333008 2.66699 1 6c0.666992 11.333 1 23 1 35v370c0 32.667 -6.66699 54.167 -20 64.5s-43.333 15.5 -90 15.5h-33h-33v80l363 25v-823
c0 -27.333 7.16699 -45.833 21.5 -55.5s45.833 -14.5 94.5 -14.5h58v-80l-350 -25v189z" />
    <glyph glyph-name="v" unicode="v" 
d="M242 780c-15.333 34 -32.4971 56.166 -51.4971 66.499s-51.167 15.5 -96.5 15.5v86h459v-86c-52.667 -1.33301 -86.334 -5.16602 -101.001 -11.499s-22 -18.166 -22 -35.499c0 -4.66699 1.83301 -12.334 5.5 -23.001s9.5 -24.667 17.5 -42l221 -510l182 471
c7.33301 18 12.666 33.833 15.999 47.5s5 25.167 5 34.5c0 21.333 -9.66699 38.5 -29 51.5s-46 19.5 -80 19.5c-2.66699 0 -6.83398 -0.333008 -12.501 -1s-10.5 -1 -14.5 -1v86h398l-1 -86c-42.667 -2 -76.667 -13 -102 -33s-49 -56.667 -71 -110l-306 -752h-63z" />
    <glyph glyph-name="w" unicode="w" 
d="M331 858c-16 -1.33301 -26.999 -4.99902 -32.999 -10.999s-9 -17.333 -9 -34c0 -4.66699 2 -13.334 6 -26.001c2 -6 3.33301 -10.333 4 -13l143 -502l129 478l-6 30c-6.66699 31.333 -16.834 52.833 -30.501 64.5s-35.5 17.5 -65.5 17.5h-20v86h370v-86l-60 -4
c-12.667 -0.666992 -21.834 -4.5 -27.501 -11.5s-8.5 -18.167 -8.5 -33.5c0 -6.66699 3.66699 -23.334 11 -50.001c1.33301 -6 2.33301 -10.333 3 -13l133 -474l109 435c0.666992 3.33301 2 8.33301 4 15c8 26 12 49.667 12 71c0 16.667 -6 31.334 -18 44.001
s-27.667 19 -47 19c-0.666992 0 -2 0.333008 -4 1c-6.66699 0.666992 -13.667 1 -21 1v86h312v-86h-5c-31.333 0 -57.166 -11.167 -77.499 -33.5s-37.5 -58.833 -51.5 -109.5l-211 -752h-71l-180 656l-177 -656h-69l-250 813c-10 34 -21.5 56.167 -34.5 66.5
s-34.833 15.5 -65.5 15.5v86h348v-86z" />
    <glyph glyph-name="x" unicode="x" 
d="M268 172l258.002 291.002l-284 342c-18 20.667 -35.833 35.334 -53.5 44.001s-38.834 13 -63.501 13h-19v86h474v-78c-48.667 -1.33301 -80.334 -4.5 -95.001 -9.5s-22 -13.167 -22 -24.5s8 -26.666 24 -45.999c2.66699 -3.33301 4.66699 -5.66602 6 -6.99902l148 -181
l141 156c8 8.66699 14.5 18.167 19.5 28.5s7.5 19.166 7.5 26.499c0 20 -9 34.333 -27 43s-49.333 13.667 -94 15v77h410l-1 -86c-36 -1.33301 -66 -7 -90 -17s-51 -31.667 -81 -65l-230 -254l262 -339l7 -9c48 -62.667 105.333 -94 172 -94v-84h-498v86
c46 1.33301 78 5 96 11s27 15.333 27 28c0 6 -1.83301 12.5 -5.5 19.5s-12.167 19.5 -25.5 37.5l-149 203l-168 -180c-9.33301 -10.667 -16.5 -21.334 -21.5 -32.001s-7.5 -21.334 -7.5 -32.001c0 -20 9.33301 -34.167 28 -42.5s53 -12.5 103 -12.5v-86h-422l1 86
c38 3.33301 68.833 10.166 92.5 20.499s50.5 32.166 80.5 65.499z" />
    <glyph glyph-name="y" unicode="y" 
d="M563 948l0.000976562 -85.9961h-55h-27c-16.667 0 -29.667 -3.66699 -39 -11s-14 -18 -14 -32c0 -4.66699 1.83301 -12.334 5.5 -23.001s9.5 -24.334 17.5 -41.001l217 -499l204 491c3.33301 6.66699 6 14 8 22s3 16 3 24c0 26 -8.83301 43.667 -26.5 53
s-56.5 14.666 -116.5 15.999l-1 86h396v-86c-38 0 -68.833 -8.5 -92.5 -25.5s-44.167 -45.167 -61.5 -84.5l-346 -805c-58.667 -135.333 -118.667 -231.333 -180 -288s-133.666 -85 -216.999 -85c-58 0 -104 14 -138 42s-51 65.333 -51 112c0 36 11.667 65.833 35 89.5
s52.666 35.5 87.999 35.5c33.333 0 59.5 -9.5 78.5 -28.5s28.5 -45.167 28.5 -78.5c0 -11.333 -2.83301 -22.5 -8.5 -33.5s-8.5 -17.5 -8.5 -19.5c0 -7.33301 3 -12.833 9 -16.5s15.333 -5.83398 28 -6.50098c36.667 0 78.667 29.5 126 88.5s90.666 136.833 129.999 233.5
l14 33l-325 749c-14 32.667 -31.667 55.5 -53 68.5s-52.333 19.5 -93 19.5h-12v86h477z" />
    <glyph glyph-name="z" unicode="z" 
d="M971 0h-772v82l565 782h-227c-67.333 0 -119 -20.667 -155 -62s-58.333 -105.333 -67 -192h-75l20 338h725v-76l-561 -782h235c86.667 0 148.5 19.667 185.5 59s63.5 114 79.5 224h69z" />
    <glyph glyph-name="braceleft" unicode="{" 
d="M952 1505l0.00292969 -61.001c-91.333 -2 -153.333 -20 -186 -54s-49 -104 -49 -210v-133c0 -151.333 -19.833 -253.5 -59.5 -306.5s-112.834 -90.833 -219.501 -113.5c107.333 -22.667 180.666 -60.5 219.999 -113.5s59 -155.833 59 -308.5v-135
c0 -105.333 16.333 -175 49 -209s94.667 -52 186 -54v-61c-152.667 1.33301 -256.667 26 -312 74s-83 138.667 -83 272v209c0 106.667 -19 179.667 -57 219s-111 64 -219 74v65c109.333 11.333 182.666 36.333 219.999 75s56 111.334 56 218.001v207
c0 134 27.833 225 83.5 273s159.5 72.333 311.5 73z" />
    <glyph glyph-name="bar" unicode="|" 
d="M692 1565v-2048h-149v2048h149z" />
    <glyph glyph-name="braceright" unicode="}" 
d="M281 1505c151.333 -0.666992 254.669 -24.8301 310.002 -72.4971s83 -138.834 83 -273.501v-207c0 -106.667 18.667 -179.334 56 -218.001s110.666 -63.667 219.999 -75v-65c-108.667 -10 -181.834 -34.5 -219.501 -73.5s-56.5 -112.167 -56.5 -219.5v-209
c0 -134 -27.5 -224.833 -82.5 -272.5s-158.5 -72.167 -310.5 -73.5v61c91.333 2 153.333 20 186 54s49 103.667 49 209v135c0 154 19.5 257.167 58.5 309.5s111.833 89.833 218.5 112.5c-106.667 22 -179.5 59.167 -218.5 111.5s-58.5 155.166 -58.5 308.499v133
c0 106 -16.5 176 -49.5 210s-94.833 52 -185.5 54v61z" />
    <glyph glyph-name="asciitilde" unicode="~" 
d="M133 586c0 36.667 29.3301 72.834 87.9971 108.501s122.334 53.5 191.001 53.5c46 0 115.167 -14.333 207.5 -43s160.833 -43 205.5 -43c44 0 90.167 12.167 138.5 36.5s77.5 36.5 87.5 36.5c16 0 28.167 -5.16699 36.5 -15.5s12.5 -25.5 12.5 -45.5
c0 -36.667 -29.5 -72.834 -88.5 -108.501s-122.5 -53.5 -190.5 -53.5c-45.333 0 -114.166 14.333 -206.499 43s-161.166 43 -206.499 43c-44 0 -90.333 -12.333 -139 -37s-77.667 -37 -87 -37c-16 0 -28.167 5.33301 -36.5 16s-12.5 26 -12.5 46z" />
    <glyph glyph-name="euro" 
d="M918 598l-30.998 -84h-428c8 -165.333 33.667 -281.333 77 -348s112.333 -100 207 -100c74.667 0 137.667 27 189 81s90.333 134 117 240l92 -12c-26.667 -129.333 -76.334 -230 -149.001 -302s-161 -108 -265 -108c-128 0 -235.167 49 -321.5 147
s-140.833 232 -163.5 402h-181l33 84h139c-0.666992 10.667 -1.16699 22 -1.5 34s-0.5 30.667 -0.5 56c0 24 0.166992 41.833 0.5 53.5s0.833008 22.5 1.5 32.5h-172l33 84h148c23.333 168 77.333 301.833 162 401.5s188.334 149.5 311.001 149.5
c56.667 0 107.667 -10.833 153 -32.5s83.666 -53.167 114.999 -94.5l51 119h72l18 -465h-88c-26 124.667 -64.5 219.667 -115.5 285s-112.167 98 -183.5 98c-89.333 0 -155.833 -35.833 -199.5 -107.5s-69.834 -189.5 -78.501 -353.5h555l-31 -84h-528v-176h463z" />
    <glyph glyph-name="euro" unicode="&#x20ac;" 
d="M918 598l-30.998 -84h-428c8 -165.333 33.667 -281.333 77 -348s112.333 -100 207 -100c74.667 0 137.667 27 189 81s90.333 134 117 240l92 -12c-26.667 -129.333 -76.334 -230 -149.001 -302s-161 -108 -265 -108c-128 0 -235.167 49 -321.5 147
s-140.833 232 -163.5 402h-181l33 84h139c-0.666992 10.667 -1.16699 22 -1.5 34s-0.5 30.667 -0.5 56c0 24 0.166992 41.833 0.5 53.5s0.833008 22.5 1.5 32.5h-172l33 84h148c23.333 168 77.333 301.833 162 401.5s188.334 149.5 311.001 149.5
c56.667 0 107.667 -10.833 153 -32.5s83.666 -53.167 114.999 -94.5l51 119h72l18 -465h-88c-26 124.667 -64.5 219.667 -115.5 285s-112.167 98 -183.5 98c-89.333 0 -155.833 -35.833 -199.5 -107.5s-69.834 -189.5 -78.501 -353.5h555l-31 -84h-528v-176h463z" />
    <glyph glyph-name="nonbreakingspace" unicode="&#xa0;" 
 />
    <glyph glyph-name="exclamdown" unicode="&#xa1;" 
d="M569 892l3.99902 193h82l2 -192c2.66699 -146.667 17.334 -301.5 44.001 -464.5s40 -256.833 40 -281.5c0 -56.667 -11 -100.5 -33 -131.5s-53.333 -46.5 -94 -46.5c-42 0 -74 15 -96 45s-33 74.333 -33 133c0 24.667 13.5 118.5 40.5 281.5s41.5 317.5 43.5 463.5z
M613.999 1260c-34.667 0 -64.5 12.167 -89.5 36.5s-37.5 53.5 -37.5 87.5c0 34.667 12.5 64.5 37.5 89.5s54.833 37.5 89.5 37.5s64.5 -12.667 89.5 -38s37.5 -55 37.5 -89s-12.5 -63.167 -37.5 -87.5s-54.833 -36.5 -89.5 -36.5z" />
    <glyph glyph-name="cent" unicode="&#xa2;" 
d="M459 162l227.001 560.999c9.33301 22.667 22.666 41.667 39.999 57s26 26.333 26 33c0 16 -13.5 30.667 -40.5 44s-58.833 20 -95.5 20c-84.667 0 -148.167 -33.833 -190.5 -101.5s-63.5 -169.167 -63.5 -304.5c0 -74 8.33301 -137.167 25 -189.5
s40.667 -92.166 72 -119.499zM358.001 -291.001l-86.002 -0.000976562l123 297c-82 39.333 -144.5 96.166 -187.5 170.499s-64.5 163.5 -64.5 267.5c0 155.333 43.333 279.833 130 373.5s201 140.5 343 140.5c26.667 0 52.834 -2 78.501 -6s50.834 -10 75.501 -18l92 219h82
l-102 -250c36.667 -22 64.167 -47.667 82.5 -77s27.5 -61.666 27.5 -96.999c0 -42.667 -12.5 -77.167 -37.5 -103.5s-58.167 -39.5 -99.5 -39.5c-17.333 0 -34.166 2.5 -50.499 7.5s-29.5 11.833 -39.5 20.5l-201 -497c22.667 -9.33301 43 -16.166 61 -20.499
s34.667 -6.5 50 -6.5c60.667 0 114.167 17.667 160.5 53s82.166 86 107.499 152l76 -35c-34.667 -97.333 -86 -170.833 -154 -220.5s-151.333 -74.5 -250 -74.5c-16 0 -32.5 1.33301 -49.5 4s-35.833 7 -56.5 13z" />
    <glyph glyph-name="sterling" unicode="&#xa3;" 
d="M131 741l240 -0.00292969c-18.667 56 -32.667 108.333 -42 157s-14 92.667 -14 132c0 109.333 39.167 199.5 117.5 270.5s179.833 106.5 304.5 106.5c102 0 184.5 -26 247.5 -78s94.5 -120.333 94.5 -205c0 -51.333 -13.167 -91.833 -39.5 -121.5
s-62.833 -44.5 -109.5 -44.5c-35.333 0 -63.666 10.333 -84.999 31s-32 47.334 -32 80.001c0 48.667 22.5 84 67.5 106s67.5 38 67.5 48c0 24 -19.5 46 -58.5 66s-87.167 30 -144.5 30c-72.667 0 -130 -20.5 -172 -61.5s-63 -96.833 -63 -167.5
c0 -38 6.16699 -87.667 18.5 -149s30.166 -128 53.499 -200h348v-92h-328c8.66699 -33.333 15.334 -66 20.001 -98s7 -62.667 7 -92c0 -45.333 -6 -89 -18 -131s-29.333 -81 -52 -117c53.333 -22.667 100.5 -39 141.5 -49s80.5 -15 118.5 -15c68.667 0 124.667 15 168 45
s74 75.333 92 136l72 -27c-29.333 -108.667 -73 -191.5 -131 -248.5s-127.667 -85.5 -209 -85.5c-57.333 0 -111.333 10 -162 30s-101.667 51.667 -153 95c-31.333 -43.333 -65.833 -75.333 -103.5 -96s-80.5 -31 -128.5 -31c-51.333 0 -93.5 15.333 -126.5 46
s-49.5 69.334 -49.5 116.001c0 54 17.167 97.5 51.5 130.5s79.166 49.5 134.499 49.5c40.667 0 97 -15 169 -45c6 -2.66699 10.333 -4.66699 13 -6c6 12.667 10.333 26.334 13 41.001s4 33 4 55c0 32 -6.66699 75.5 -20 130.5s-31.333 110.5 -54 166.5h-268v92zM418 151.997
c-34 24 -63.168 41.8311 -87.501 53.498s-45.166 17.5 -62.499 17.5c-30.667 0 -55 -7.66699 -73 -23s-27 -35.666 -27 -60.999c0 -26 9.16699 -46.833 27.5 -62.5s42.5 -23.5 72.5 -23.5c29.333 0 57.5 8.83301 84.5 26.5s48.833 41.834 65.5 72.501z" />
    <glyph glyph-name="currency" unicode="&#xa4;" 
d="M918 598l-30.998 -84h-428c8 -165.333 33.667 -281.333 77 -348s112.333 -100 207 -100c74.667 0 137.667 27 189 81s90.333 134 117 240l92 -12c-26.667 -129.333 -76.334 -230 -149.001 -302s-161 -108 -265 -108c-128 0 -235.167 49 -321.5 147
s-140.833 232 -163.5 402h-181l33 84h139c-0.666992 10.667 -1.16699 22 -1.5 34s-0.5 30.667 -0.5 56c0 24 0.166992 41.833 0.5 53.5s0.833008 22.5 1.5 32.5h-172l33 84h148c23.333 168 77.333 301.833 162 401.5s188.334 149.5 311.001 149.5
c56.667 0 107.667 -10.833 153 -32.5s83.666 -53.167 114.999 -94.5l51 119h72l18 -465h-88c-26 124.667 -64.5 219.667 -115.5 285s-112.167 98 -183.5 98c-89.333 0 -155.833 -35.833 -199.5 -107.5s-69.834 -189.5 -78.501 -353.5h555l-31 -84h-528v-176h463z" />
    <glyph glyph-name="yen" unicode="&#xa5;" 
d="M434 96c40 0 67.168 6.83301 81.501 20.5s21.5 38.167 21.5 73.5v363h-537v84h500l-144 227h-356v86h303l-162 260c-26.667 42.667 -49.167 69.834 -67.5 81.501s-42.833 18.167 -73.5 19.5v96h528v-96h-82c-48 0 -78 -3.66699 -90 -11s-18 -20.666 -18 -39.999
c0 -6 0.833008 -12 2.5 -18s4.16699 -11.667 7.5 -17l336 -535l264 463c8 15.333 13.833 28.833 17.5 40.5s5.5 23.5 5.5 35.5c0 28.667 -10.5 49.5 -31.5 62.5s-54.833 19.5 -101.5 19.5h-60v96h455v-98c-35.333 -6.66699 -64.833 -19.834 -88.5 -39.501
s-50.834 -55.834 -81.501 -108.501l-123 -211h293v-86h-342l-135 -227h477v-84h-506v-363c0 -35.333 7 -59.833 21 -73.5s41 -20.5 81 -20.5h123v-96h-641v96h123z" />
    <glyph glyph-name="brokenbar" unicode="&#xa6;" 
d="M555 674v758h121v-758h-121zM555 -352v760h121v-760h-121z" />
    <glyph glyph-name="section" unicode="&#xa7;" 
d="M397 418c-61.333 52.667 -106.002 101.998 -134.002 147.998s-42 93 -42 141c0 71.333 27 130.833 81 178.5s122.333 72.167 205 73.5c-72.667 64 -122.167 117.167 -148.5 159.5s-39.5 86.5 -39.5 132.5c0 76.667 29.333 140 88 190s134 75 226 75
c82 0 149.167 -20.167 201.5 -60.5s78.5 -91.166 78.5 -152.499c0 -34.667 -11 -63.5 -33 -86.5s-49.667 -34.5 -83 -34.5c-29.333 0 -53.833 8.66699 -73.5 26s-29.5 38.666 -29.5 63.999c0 20.667 11 43.834 33 69.501s33 43.5 33 53.5c0 16.667 -12.667 32 -38 46
s-55.666 21 -90.999 21c-50 0 -89.5 -12.833 -118.5 -38.5s-43.5 -60.5 -43.5 -104.5c0 -38.667 12.833 -76.667 38.5 -114s76.167 -88 151.5 -152l179 -150c58.667 -49.333 102.334 -98 131.001 -146s43 -96.333 43 -145c0 -73.333 -26.333 -133 -79 -179
s-122.667 -70.333 -210 -73c66 -54 114.5 -105 145.5 -153s46.5 -96 46.5 -144c0 -74.667 -31.667 -135.5 -95 -182.5s-147 -70.5 -251 -70.5c-79.333 0 -146.5 20.333 -201.5 61s-82.5 89 -82.5 145c0 37.333 10.5 67.5 31.5 90.5s48.5 34.5 82.5 34.5
c30 0 54.667 -9.16699 74 -27.5s29 -41.833 29 -70.5c0 -25.333 -10.667 -49.5 -32 -72.5s-32 -38.5 -32 -46.5c0 -18.667 13.5 -34.167 40.5 -46.5s62.167 -18.5 105.5 -18.5c52.667 0 95.5 14.167 128.5 42.5s49.5 64.5 49.5 108.5c0 34 -13.167 69.333 -39.5 106
s-74.5 85.334 -144.5 146.001zM357.998 777.998c0 -36 9.16699 -69.667 27.5 -101s57.166 -74.666 116.499 -129.999c52 -49.333 94.833 -83.833 128.5 -103.5s65.834 -29.5 96.501 -29.5c41.333 0 75.5 12.667 102.5 38s40.5 57.666 40.5 96.999
c0 34 -11.5 69.5 -34.5 106.5s-59.833 77.833 -110.5 122.5c-61.333 54 -106.5 89 -135.5 105s-57.5 24 -85.5 24c-39.333 0 -73.5 -13 -102.5 -39s-43.5 -56 -43.5 -90z" />
    <glyph glyph-name="dieresis" unicode="&#xa8;" 
d="M799 1368c30 0 55.833 -11.167 77.5 -33.5s32.5 -48.833 32.5 -79.5c0 -32.667 -10.333 -59.5 -31 -80.5s-47 -31.5 -79 -31.5c-32.667 0 -60 10.667 -82 32s-33 48 -33 80c0 30 11.5 56.333 34.5 79s49.833 34 80.5 34zM436 1368c29.333 0 55.167 -11.333 77.5 -34
s33.5 -49 33.5 -79c0 -32 -10.5 -58.667 -31.5 -80s-47.5 -32 -79.5 -32c-32.667 0 -59.834 10.667 -81.501 32s-32.5 48 -32.5 80c0 30 11.333 56.333 34 79s49.334 34 80.001 34z" />
    <glyph glyph-name="copyright" unicode="&#xa9;" 
d="M616 1180c-64.667 0 -127.169 -12.6689 -187.502 -38.002s-113.833 -61.333 -160.5 -108c-46 -46.667 -81.667 -100.5 -107 -161.5s-38 -123.167 -38 -186.5s12.833 -125.5 38.5 -186.5s61.834 -114.833 108.501 -161.5c47.333 -47.333 100.666 -83.333 159.999 -108
s121.333 -37 186 -37s127.334 12.667 188.001 38s114.334 61 161.001 107c46.667 48 82.5 101.833 107.5 161.5s37.5 121.834 37.5 186.501c0 65.333 -12.667 128.5 -38 189.5s-61 114.5 -107 160.5c-47.333 46.667 -101 82.334 -161 107.001s-122.667 37 -188 37z
M24.998 685.998c0 79.333 14.665 154.835 43.998 226.502s72 135.5 128 191.5s120.167 99 192.5 129s147.833 45 226.5 45c78 0 153.5 -15 226.5 -45s136.833 -72.333 191.5 -127s97.334 -119 128.001 -193s46 -149.667 46 -227c0 -78.667 -15.167 -154 -45.5 -226
s-73.833 -136.667 -130.5 -194c-55.333 -56.667 -118.5 -99.834 -189.5 -129.501s-146.5 -44.5 -226.5 -44.5c-57.333 0 -113.666 8.33301 -168.999 25s-107.333 41 -156 73c-85.333 56.667 -151 128.167 -197 214.5s-69 180.166 -69 281.499zM767.996 1024
c4.66699 7.33301 11.3311 12.8291 19.998 16.4961s19.667 5.83398 33 6.50098c24 0 40 -8.33301 48 -25s12 -57 12 -121v-67c0 -25.333 -4.66699 -43 -14 -53s-25.333 -15 -48 -15c-33.333 0 -56 27 -68 81c-1.33301 6 -2.66602 11.333 -3.99902 16
c-5.33301 22 -20.5 40.667 -45.5 56s-54.167 23 -87.5 23c-64 0 -114.333 -23.167 -151 -69.5s-55 -110.5 -55 -192.5c0 -75.333 19.5 -136.166 58.5 -182.499s89.5 -69.5 151.5 -69.5c44 0 89.833 14.333 137.5 43s73.834 43 78.501 43c18 0 32.333 -5.16699 43 -15.5
s16 -24.166 16 -41.499c0 -32.667 -29.667 -66.167 -89 -100.5s-123.333 -51.5 -192 -51.5c-98 0 -179.833 35 -245.5 105s-98.5 158 -98.5 264c0 108.667 33.167 199.334 99.5 272.001s149.166 109 248.499 109c24.667 0 49.334 -2.5 74.001 -7.5s50.667 -12.833 78 -23.5z
" />
    <glyph glyph-name="ordfeminine" unicode="&#xaa;" 
d="M989 479v-119h-713v119h713zM922 1159l0.00292969 -381c0 -24 4.83301 -41.5 14.5 -52.5s25.167 -16.5 46.5 -16.5c11.333 0 25.166 3.66699 41.499 11s27.166 11 32.499 11c8 0 14.333 -3 19 -9s7 -14 7 -24c0 -22 -16.833 -44.5 -50.5 -67.5
s-71.834 -34.5 -114.501 -34.5c-40 0 -72.667 9.83301 -98 29.5s-42.666 48.167 -51.999 85.5c-32.667 -38 -77.334 -68.333 -134.001 -91s-115.667 -34 -177 -34c-74 0 -133.167 18.333 -177.5 55s-66.5 85.667 -66.5 147c0 80.667 42 145.334 126 194.001
s222.333 88 415 118v110c0 37.333 -15.667 66.166 -47 86.499s-76 30.5 -134 30.5c-43.333 0 -79.666 -5.5 -108.999 -16.5s-44 -23.833 -44 -38.5c0 -2.66699 7.16699 -13 21.5 -31s21.5 -38.333 21.5 -61c0 -26.667 -8.83301 -47.667 -26.5 -63s-41.5 -23 -71.5 -23
c-32.667 0 -58.334 8.83301 -77.001 26.5s-28 41.5 -28 71.5c0 62.667 32.5 114.167 97.5 154.5s150.5 60.5 256.5 60.5c106.667 0 184.667 -19.667 234 -59s74 -102.333 74 -189zM754.003 1022c-128.667 -16 -221.001 -40.334 -277.001 -73.001s-84 -78 -84 -136
c0 -46.667 10.5 -80.5 31.5 -101.5s54.833 -31.5 101.5 -31.5c70.667 0 126.334 20.333 167.001 61s61 97.334 61 170.001v111z" />
    <glyph glyph-name="guillemotleft" unicode="&#xab;" 
d="M170 473l-0.00292969 22.999c82.667 66.667 169.334 145.667 260.001 237s145.334 137 164.001 137c5.33301 0 9.66602 -2.5 12.999 -7.5s5 -11.167 5 -18.5c0 -17.333 -22 -58 -66 -122s-104.333 -143 -181 -237c73.333 -87.333 132.833 -164.666 178.5 -231.999
s68.5 -110 68.5 -128c0 -7.33301 -1.66699 -13.333 -5 -18s-7.66602 -7 -12.999 -7c-20.667 0 -76.167 46 -166.5 138s-176.166 170.333 -257.499 235zM644.997 472.999l0.000976562 22.999c83.333 67.333 170 146.5 260 237.5s144 136.5 162 136.5
c5.33301 0 9.66602 -2.5 12.999 -7.5s5 -11.167 5 -18.5c0 -17.333 -22 -58 -66 -122s-104.333 -143 -181 -237c73.333 -87.333 132.833 -164.666 178.5 -231.999s68.5 -110 68.5 -128c0 -7.33301 -1.66699 -13.333 -5 -18s-7.66602 -7 -12.999 -7
c-20.667 0 -75.834 45.833 -165.501 137.5s-175.167 170.167 -256.5 235.5z" />
    <glyph glyph-name="logicalnot" unicode="&#xac;" 
d="M981 764l-803.001 0.000976562c-23.333 0 -42.166 6.83301 -56.499 20.5s-21.5 31.5 -21.5 53.5c0 20.667 7.5 37.667 22.5 51s33.5 20 55.5 20h897c18.667 0 33 -3.33301 43 -10s15 -16.334 15 -29.001v-440c0 -23.333 -7.16699 -42.5 -21.5 -57.5
s-32.5 -22.5 -54.5 -22.5c-20.667 0 -38.5 7.83301 -53.5 23.5s-22.5 34.5 -22.5 56.5v334z" />
    <glyph glyph-name="sfthyphen" unicode="&#xad;" 
d="M956 573v-174h-682v174h682z" />
    <glyph glyph-name="registered" unicode="&#xae;" 
d="M532 926v-183.002h58c44 0 77.167 7.83301 99.5 23.5s33.5 38.834 33.5 69.501s-10.5 53.334 -31.5 68.001s-54.167 22 -99.5 22h-60zM532 470.998h19c26 0 45.167 -4.5 57.5 -13.5s18.5 -22.833 18.5 -41.5c0 -20 -5.5 -34.333 -16.5 -43s-29.5 -13 -55.5 -13h-180
c-17.333 0 -31 5 -41 15s-15 23.667 -15 41c0 20.667 5.83301 35 17.5 43s33.167 12 64.5 12h15v455h-15c-32 0 -53.667 3.83301 -65 11.5s-17 21.5 -17 41.5c0 17.333 5 30.833 15 40.5s23.667 14.5 41 14.5h190c98 0 170.333 -16.5 217 -49.5s70 -84.167 70 -153.5
c0 -40 -11.167 -75.333 -33.5 -106s-52.833 -52.667 -91.5 -66c3.33301 -2.66699 7 -6.66699 11 -12l14 -19l104 -157h8c24 0 41.667 -4.5 53 -13.5s17 -22.833 17 -41.5c0 -17.333 -4.83301 -31 -14.5 -41s-23.167 -15 -40.5 -15h-60c-14.667 0 -27.167 3.5 -37.5 10.5
s-21.5 20.833 -33.5 41.5l-105 157c-22 33.333 -38.167 53.333 -48.5 60s-24.833 10 -43.5 10h-19v-168zM616 1180c-64.667 0 -127.169 -12.6689 -187.502 -38.002s-113.833 -61.333 -160.5 -108c-46 -46.667 -81.667 -100.5 -107 -161.5s-38 -123.167 -38 -186.5
s12.833 -125.5 38.5 -186.5s61.834 -114.833 108.501 -161.5c47.333 -47.333 100.666 -83.333 159.999 -108s121.333 -37 186 -37s127.334 12.667 188.001 38s114.334 61 161.001 107c46.667 48 82.5 101.833 107.5 161.5s37.5 121.834 37.5 186.501
c0 65.333 -12.667 128.5 -38 189.5s-61 114.5 -107 160.5c-47.333 46.667 -101 82.334 -161 107.001s-122.667 37 -188 37zM24.998 685.996c0 79.333 14.665 154.835 43.998 226.502s72 135.5 128 191.5s120.167 99 192.5 129s147.833 45 226.5 45c78 0 153.5 -15 226.5 -45
s136.833 -72.333 191.5 -127s97.334 -119 128.001 -193s46 -149.667 46 -227c0 -78.667 -15.167 -154 -45.5 -226s-73.833 -136.667 -130.5 -194c-55.333 -56.667 -118.5 -99.834 -189.5 -129.501s-146.5 -44.5 -226.5 -44.5c-57.333 0 -113.666 8.33301 -168.999 25
s-107.333 41 -156 73c-85.333 56.667 -151 128.167 -197 214.5s-69 180.166 -69 281.499z" />
    <glyph glyph-name="macron" unicode="&#xaf;" 
d="M887 1325v-139h-541v139h541z" />
    <glyph glyph-name="degree" unicode="&#xb0;" 
d="M811 1169c0 54 -18.833 99.667 -56.5 137s-83.834 56 -138.501 56c-53.333 0 -99 -18.667 -137 -56s-57 -83 -57 -137s18.833 -100.167 56.5 -138.5s83.5 -57.5 137.5 -57.5c54.667 0 100.834 19.167 138.501 57.5s56.5 84.5 56.5 138.5zM616 1456
c79.333 0 147.332 -28.167 203.999 -84.5s85 -124.5 85 -204.5c0 -78 -28 -145.167 -84 -201.5s-124.333 -84.5 -205 -84.5c-80 0 -148 27.833 -204 83.5s-84 123.167 -84 202.5c0 80 28.333 148.167 85 204.5s124.334 84.5 203.001 84.5z" />
    <glyph glyph-name="plusminus" unicode="&#xb1;" 
d="M139 0v139h955v-139h-955zM688 1032v-297h406v-139h-406v-297h-143v297h-406v139h406v297h143z" />
    <glyph glyph-name="twosuperior" unicode="&#xb2;" 
d="M422 616l374.999 0.000976562c45.333 0 78.333 41.333 99 124c4 15.333 7 27.333 9 36h80l-33 -297h-725v53c74 76.667 172.667 169 296 277c175.333 153.333 263 272 263 356c0 50 -17.167 88.5 -51.5 115.5s-83.166 40.5 -146.499 40.5s-115.666 -11.667 -156.999 -35
s-62 -50 -62 -80c0 -10 21.167 -22.167 63.5 -36.5s63.5 -39.5 63.5 -75.5c0 -24 -10 -44 -30 -60s-45.667 -24 -77 -24c-40 0 -72.167 12 -96.5 36s-36.5 55.667 -36.5 95c0 77.333 33.667 139 101 185s159.333 69 276 69c104.667 0 187.5 -23.167 248.5 -69.5
s91.5 -108.5 91.5 -186.5c0 -96 -95 -206.667 -285 -332c-112.667 -74.667 -201.334 -138.334 -266.001 -191.001z" />
    <glyph glyph-name="threesuperior" unicode="&#xb3;" 
d="M762 963c75.333 -20 131.334 -49.8359 168.001 -89.5029s55 -90.5 55 -152.5c0 -77.333 -36.333 -140.666 -109 -189.999s-167.334 -74 -284.001 -74c-104.667 0 -189.5 20.5 -254.5 61.5s-97.5 92.167 -97.5 153.5c0 38.667 11.333 69.834 34 93.501s53 35.5 91 35.5
c31.333 0 56.166 -8.5 74.499 -25.5s27.5 -39.833 27.5 -68.5c0 -28 -13.333 -50.667 -40 -68s-40 -31 -40 -41c0 -16.667 17.5 -32.167 52.5 -46.5s76.167 -21.5 123.5 -21.5c82 0 141.5 16.5 178.5 49.5s55.5 86.167 55.5 159.5c0 64 -15.833 110.833 -47.5 140.5
s-82.167 44.5 -151.5 44.5c-15.333 0 -33.333 -1 -54 -3s-34 -3 -40 -3c-17.333 0 -30.833 3.33301 -40.5 10s-14.5 16 -14.5 28c0 15.333 4.83301 26.666 14.5 33.999s23.834 11 42.501 11c1.33301 0 12 -0.666992 32 -2s39.333 -2 58 -2c64 0 110 13.833 138 41.5
s42 72.834 42 135.501c0 49.333 -15.333 86.833 -46 112.5s-76 38.5 -136 38.5c-45.333 0 -83.666 -6.66699 -114.999 -20s-47 -27 -47 -41c0 -4 11 -15.167 33 -33.5s33 -40.166 33 -65.499c0 -24 -9.33301 -43.333 -28 -58s-43.667 -22 -75 -22
c-32 0 -57.667 9.5 -77 28.5s-29 44.5 -29 76.5c0 61.333 30.5 111.833 91.5 151.5s141.833 59.5 242.5 59.5c98.667 0 177.5 -20.833 236.5 -62.5s88.5 -96.5 88.5 -164.5c0 -51.333 -14.333 -93.333 -43 -126s-76.334 -61 -143.001 -85z" />
    <glyph glyph-name="acute" unicode="&#xb4;" 
d="M815 1276l-301 -183.999h-74l277 301c18 20 36 35.167 54 45.5s35.333 15.5 52 15.5c20.667 0 38.5 -8 53.5 -24s22.5 -34.667 22.5 -56c0 -17.333 -5.5 -32.833 -16.5 -46.5s-33.5 -30.834 -67.5 -51.501z" />
    <glyph glyph-name="mu" unicode="&#xb5;" 
d="M936 137h62.998c19.333 0 34.166 -4.83301 44.499 -14.5s15.5 -23.834 15.5 -42.501c0 -26 -7.66699 -45.833 -23 -59.5s-37.666 -20.5 -66.999 -20.5h-158c-17.333 0 -29.833 2.5 -37.5 7.5s-11.5 12.833 -11.5 23.5c0 2 0.666992 5.66699 2 11
c0.666992 2.66699 1.33398 5 2.00098 7l20 72c-52.667 -48.667 -106.667 -84.834 -162 -108.501s-113.666 -35.5 -174.999 -35.5c-36.667 0 -68.667 5 -96 15s-51.333 25.667 -72 47l-60 -334c-8 -44.667 -17.667 -75 -29 -91s-28.333 -24 -51 -24
c-26 0 -44.667 4.5 -56 13.5s-17 23.833 -17 44.5c0 10 1 22.167 3 36.5s5 30.833 9 49.5l217 1052h-80c-20 0 -35.167 5 -45.5 15s-15.5 24.333 -15.5 43c0 26 7.66699 45.833 23 59.5s37.666 20.5 66.999 20.5h174c17.333 0 29.833 -2.5 37.5 -7.5
s11.5 -12.833 11.5 -23.5c0 -4.66699 -0.166992 -8 -0.5 -10s-0.833008 -4.33301 -1.5 -7l-117 -532c-6 -30.667 -9.83301 -51.667 -11.5 -63s-2.5 -21 -2.5 -29c0 -44 13.333 -77.167 40 -99.5s66.667 -33.5 120 -33.5c81.333 0 155.5 26 222.5 78s108.167 116 123.5 192
l94 465c5.33301 29.333 13.833 48.333 25.5 57s32.5 13 62.5 13c22 0 38.833 -4.66699 50.5 -14s17.5 -22.666 17.5 -39.999c0 -4.66699 -0.166992 -8.16699 -0.5 -10.5s-1.16602 -5.16602 -2.49902 -8.49902z" />
    <glyph glyph-name="paragraph" unicode="&#xb6;" 
d="M1063 1393l-121.001 -0.000976562v-1393h-111v1393h-176v-1393h-112v782c-113.333 4 -203.833 37.833 -271.5 101.5s-101.5 145.834 -101.5 246.501c0 104.667 35.833 189 107.5 253s166.834 96 285.501 96h500v-86z" />
    <glyph glyph-name="periodcentered" unicode="&#xb7;" 
d="M614 582c-32.667 0 -60.833 12.167 -84.5 36.5s-35.5 53.166 -35.5 86.499c0 32.667 11.833 60.834 35.5 84.501s51.834 35.5 84.501 35.5c33.333 0 62.166 -12.167 86.499 -36.5s36.5 -53.166 36.5 -86.499c0 -32.667 -12 -60.834 -36 -84.501s-53 -35.5 -87 -35.5z" />
    <glyph glyph-name="cedilla" unicode="&#xb8;" 
d="M584 -196l-0.000976562 196.001h63v-115c10.667 1.33301 21.334 2.33301 32.001 3s24 1 40 1c53.333 0 96 -15 128 -45s48 -70 48 -120c0 -56 -19.5 -99.833 -58.5 -131.5s-93.833 -47.5 -164.5 -47.5c-38 0 -81 6.16699 -129 18.5s-104.667 31.5 -170 57.5l37 90
c39.333 -24.667 79.666 -43.834 120.999 -57.501s78.666 -20.5 111.999 -20.5c37.333 0 65.166 7.5 83.499 22.5s27.5 37.833 27.5 68.5c0 26.667 -9.16699 47.667 -27.5 63s-44.166 23 -77.499 23c-5.33301 0 -13.166 -0.5 -23.499 -1.5s-24.166 -2.5 -41.499 -4.5z" />
    <glyph glyph-name="onesuperior" unicode="&#xb9;" 
d="M674 1397l50.999 -0.000976562v-787c0 -20.667 5.83301 -34.667 17.5 -42s39.834 -11 84.501 -11h127v-78h-614v78h137c30.667 0 51.667 3.83301 63 11.5s17 21.5 17 41.5v588c0 12.667 -4 21.334 -12 26.001s-25.667 7 -53 7h-162v71c80 4 147.667 13.5 203 28.5
s102.333 37.167 141 66.5z" />
    <glyph glyph-name="ordmasculine" unicode="&#xba;" 
d="M958 479v-119h-684v119h684zM616 1329c-78.667 0 -136.168 -26.501 -172.501 -79.501s-54.5 -137.833 -54.5 -254.5c0 -116 18 -200.5 54 -253.5s93 -79.5 171 -79.5c80.667 0 139.167 26.333 175.5 79s54.5 137.334 54.5 254.001s-18.167 201.5 -54.5 254.5
s-94.166 79.5 -173.499 79.5zM615.999 1407c122 0 221.833 -38.333 299.5 -115s116.5 -175.667 116.5 -297c0 -120.667 -38.5 -219 -115.5 -295s-177.167 -114 -300.5 -114s-223.333 37.667 -300 113s-115 174 -115 296c0 122.667 38.5 222 115.5 298s176.833 114 299.5 114
z" />
    <glyph glyph-name="guillemotright" unicode="&#xbb;" 
d="M1063 473c-81.333 -64.667 -167.167 -143 -257.5 -235s-145.833 -138 -166.5 -138c-5.33301 0 -9.66602 2.33301 -12.999 7s-5 10.667 -5 18c0 18.667 22.667 61.167 68 127.5s105 143.833 179 232.5c-74.667 90 -134.5 167.833 -179.5 233.5s-67.5 107.5 -67.5 125.5
c0 7.33301 1.66699 13.5 5 18.5s7.66602 7.5 12.999 7.5c18 0 72.5 -45.667 163.5 -137s177.833 -170.333 260.5 -237v-23zM587.999 473c-81.333 -65.333 -166.832 -143.833 -256.499 -235.5s-144.834 -137.5 -165.501 -137.5c-5.33301 0 -10.166 2.5 -14.499 7.5
s-6.5 10.833 -6.5 17.5c0 18 22.833 60 68.5 126s106.167 144 181.5 234c-76 91.333 -136.667 169.5 -182 234.5s-68 106.5 -68 124.5c0.666992 7.33301 2.66699 13.5 6 18.5s7.66602 7.5 12.999 7.5c18 0 72.5 -45.667 163.5 -137s177.833 -170.333 260.5 -237v-23z" />
    <glyph glyph-name="onequarter" unicode="&#xbc;" 
d="M915 408l-278 -297h278v297zM995 610h60.001v-499h162v-72h-162v-90c0 -14.667 3.66699 -24.5 11 -29.5s20.666 -7.5 39.999 -7.5h86v-64h-416v64h86c20 0 33.5 2.5 40.5 7.5s10.5 14.833 10.5 29.5v88h-376v72zM403.001 1544l43.001 -0.00195312v-653
c0 -16.667 5 -28 15 -34s34.667 -9 74 -9h88v-66h-504v66h114c28 0 47 3.16699 57 9.5s15 17.5 15 33.5v489c0 10.667 -3.5 17.834 -10.5 21.501s-22.5 5.5 -46.5 5.5h-137v59c67.333 2.66699 124.666 10.334 171.999 23.001s87.333 31 120 55zM1161 1092l45 -72l-1134 -737
l-47 71z" />
    <glyph glyph-name="onehalf" unicode="&#xbd;" 
d="M713 -37l316.999 0.000976562c39.333 0 68 36.333 86 109l6 24h66l-27 -248h-614v43c62.667 64.667 146.334 142 251.001 232c149.333 128 224 227 224 297c0 41.333 -14.5 72.833 -43.5 94.5s-71.167 32.5 -126.5 32.5c-54 0 -98.5 -9.66699 -133.5 -29
s-52.5 -41 -52.5 -65c0 -8.66699 18 -18.667 54 -30s54 -32.333 54 -63c0 -19.333 -8.5 -36 -25.5 -50s-38.5 -21 -64.5 -21c-33.333 0 -60.5 10 -81.5 30s-31.5 46 -31.5 78c0 64.667 28.667 116 86 154s135.333 57 234 57c86.667 0 156.5 -18.833 209.5 -56.5
s79.5 -87.167 79.5 -148.5c0 -84.667 -78.667 -177.334 -236 -278.001c-96.667 -62.667 -173.667 -116.667 -231 -162zM402.999 1544l43.001 -0.00195312v-653c0 -16.667 5 -28 15 -34s34.667 -9 74 -9h88v-66h-504v66h114c28 0 47 3.16699 57 9.5s15 17.5 15 33.5v489
c0 10.667 -3.5 17.834 -10.5 21.501s-22.5 5.5 -46.5 5.5h-137v59c67.333 2.66699 124.666 10.334 171.999 23.001s87.333 31 120 55zM1161 1092l45 -72l-1134 -737l-47 71z" />
    <glyph glyph-name="threequarters" unicode="&#xbe;" 
d="M915 408l-278 -297h278v297zM995 610h60.001v-499h162v-72h-162v-90c0 -14.667 3.66699 -24.5 11 -29.5s20.666 -7.5 39.999 -7.5h86v-64h-416v64h86c20 0 33.5 2.5 40.5 7.5s10.5 14.833 10.5 29.5v88h-376v72zM479.001 1184
c65.333 -16.667 113.169 -41.334 143.502 -74.001s45.5 -75 45.5 -127c0 -64.667 -30.833 -117.334 -92.5 -158.001s-142.834 -61 -243.501 -61c-90 0 -162 17 -216 51s-81 77.667 -81 131c0 30.667 9.83301 55.5 29.5 74.5s45.167 28.5 76.5 28.5
c27.333 0 48.5 -6.66699 63.5 -20s22.5 -32 22.5 -56c0 -23.333 -11.167 -42.5 -33.5 -57.5s-33.5 -26.5 -33.5 -34.5c0 -14 15.333 -26.833 46 -38.5s67 -17.5 109 -17.5c66 0 114.333 14 145 42s46 72 46 132c0 53.333 -13.333 92.333 -40 117s-69.334 37 -128.001 37
c-10.667 0 -25 -1 -43 -3s-31 -3 -39 -3c-14 0 -24.667 2.83301 -32 8.5s-11 13.834 -11 24.501c0 12.667 4.16699 22 12.5 28s22.5 9 42.5 9c2 0 9.33301 -0.833008 22 -2.5s24.667 -2.5 36 -2.5c60 0 102.167 11.167 126.5 33.5s36.5 59.833 36.5 112.5
c0 42 -12.833 73.667 -38.5 95s-63.834 32 -114.501 32c-38.667 0 -71.5 -5.5 -98.5 -16.5s-40.5 -22.5 -40.5 -34.5c0 -3.33301 9.5 -12.5 28.5 -27.5s28.5 -33.167 28.5 -54.5c0 -20 -8 -36 -24 -48s-37.333 -18 -64 -18c-28 0 -50 7.66699 -66 23s-24 36.333 -24 63
c0 52.667 26.5 94.834 79.5 126.501s125.5 47.5 217.5 47.5c77.333 0 140.333 -17.667 189 -53s73 -80.333 73 -135c0 -42 -12.167 -76.5 -36.5 -103.5s-64.166 -50.5 -119.499 -70.5zM1161 1092l45 -72l-1134 -737l-47 71z" />
    <glyph glyph-name="questiondown" unicode="&#xbf;" 
d="M598 1001v80h82v-141c0 -50 -6.66699 -92.833 -20 -128.5s-41 -81.167 -83 -136.5l-26 -33c-91.333 -118.667 -137 -226.334 -137 -323.001c0 -86 19.5 -150.5 58.5 -193.5s97.833 -64.5 176.5 -64.5c48 0 91.167 11.5 129.5 34.5s57.5 47.833 57.5 74.5
c0 8.66699 -15.833 26.834 -47.5 54.501s-47.5 60.834 -47.5 99.501c0 34.667 10.833 63 32.5 85s49.834 33 84.501 33c41.333 0 74.166 -14.333 98.499 -43s36.5 -67.334 36.5 -116.001c0 -88 -37.5 -162 -112.5 -222s-169.833 -90 -284.5 -90s-208.167 32.333 -280.5 97
s-108.5 147.667 -108.5 249c0 126.667 79 260 237 400l44 39c43.333 40 72.5 77.5 87.5 112.5s22.5 79.167 22.5 132.5zM641 1516c34.667 0 64.5 -12.833 89.5 -38.5s37.5 -55.167 37.5 -88.5c0 -34.667 -12.5 -64.5 -37.5 -89.5s-54.833 -37.5 -89.5 -37.5
s-64.167 12.333 -88.5 37s-36.5 54.667 -36.5 90c0 34.667 12.167 64.5 36.5 89.5s53.833 37.5 88.5 37.5z" />
    <glyph glyph-name="Agrave" unicode="&#xc0;" 
d="M569 1092l-188 -543h383zM1100 188c14 -38 29.167 -62.499 45.5 -73.499s51.5 -17.167 105.5 -18.5v-96h-532v96c7.33301 0 18 0.333008 32 1c92 1.33301 138 16 138 44c0 8.66699 -1.33301 19 -4 31s-6 24 -10 36l-80 236h-445l-55 -145
c-6.66699 -17.333 -12.167 -37 -16.5 -59s-6.5 -40 -6.5 -54c0 -32.667 10.833 -55.834 32.5 -69.501s61.5 -20.5 119.5 -20.5h18v-96h-462v96h20c44 0 77.5 10.167 100.5 30.5s46.167 62.833 69.5 127.5l405 1143h84zM418 1704c-34 20.667 -56.5 37.833 -67.5 51.5
s-16.5 29.167 -16.5 46.5c0 21.333 7.5 40 22.5 56s32.833 24 53.5 24c16.667 0 34 -5.16699 52 -15.5s36 -25.5 54 -45.5l277 -301h-76z" />
    <glyph glyph-name="Aacute" unicode="&#xc1;" 
d="M569 1092l-188 -543h383zM1100 188c14 -38 29.167 -62.499 45.5 -73.499s51.5 -17.167 105.5 -18.5v-96h-532v96c7.33301 0 18 0.333008 32 1c92 1.33301 138 16 138 44c0 8.66699 -1.33301 19 -4 31s-6 24 -10 36l-80 236h-445l-55 -145
c-6.66699 -17.333 -12.167 -37 -16.5 -59s-6.5 -40 -6.5 -54c0 -32.667 10.833 -55.834 32.5 -69.501s61.5 -20.5 119.5 -20.5h18v-96h-462v96h20c44 0 77.5 10.167 100.5 30.5s46.167 62.833 69.5 127.5l405 1143h84zM815 1704l-301 -183.999h-74l277 301
c18 20 36 35.167 54 45.5s35.333 15.5 52 15.5c20.667 0 38.5 -8 53.5 -24s22.5 -34.667 22.5 -56c0 -17.333 -5.5 -32.833 -16.5 -46.5s-33.5 -30.834 -67.5 -51.501z" />
    <glyph glyph-name="Acircumflex" unicode="&#xc2;" 
d="M569 1092l-188 -543h383zM1100 188c14 -38 29.167 -62.499 45.5 -73.499s51.5 -17.167 105.5 -18.5v-96h-532v96c7.33301 0 18 0.333008 32 1c92 1.33301 138 16 138 44c0 8.66699 -1.33301 19 -4 31s-6 24 -10 36l-80 236h-445l-55 -145
c-6.66699 -17.333 -12.167 -37 -16.5 -59s-6.5 -40 -6.5 -54c0 -32.667 10.833 -55.834 32.5 -69.501s61.5 -20.5 119.5 -20.5h18v-96h-462v96h20c44 0 77.5 10.167 100.5 30.5s46.167 62.833 69.5 127.5l405 1143h84zM682 1870l229 -350h-73l-222 196l-221 -196h-73
l227 350h133z" />
    <glyph glyph-name="Atilde" unicode="&#xc3;" 
d="M569 1092l-188 -543h383zM1100 188c14 -38 29.167 -62.499 45.5 -73.499s51.5 -17.167 105.5 -18.5v-96h-532v96c7.33301 0 18 0.333008 32 1c92 1.33301 138 16 138 44c0 8.66699 -1.33301 19 -4 31s-6 24 -10 36l-80 236h-445l-55 -145
c-6.66699 -17.333 -12.167 -37 -16.5 -59s-6.5 -40 -6.5 -54c0 -32.667 10.833 -55.834 32.5 -69.501s61.5 -20.5 119.5 -20.5h18v-96h-462v96h20c44 0 77.5 10.167 100.5 30.5s46.167 62.833 69.5 127.5l405 1143h84zM547 1642c-12 2.66699 -22.833 4.83203 -32.5 6.49902
s-16.5 2.5 -20.5 2.5c-28.667 0 -50.334 -6.5 -65.001 -19.5s-27.334 -36.5 -38.001 -70.5h-57c12.667 72.667 35.834 129.334 69.501 170.001s73.834 61 120.501 61c12.667 0 24.667 -0.666992 36 -2s22.666 -3.33301 33.999 -6l109 -27c6.66699 -2 13.667 -3.5 21 -4.5
s14.333 -1.5 21 -1.5c26.667 0 47.334 6.5 62.001 19.5s26.334 35.167 35.001 66.5h57c-14 -74.667 -37.333 -131.167 -70 -169.5s-73.334 -57.5 -122.001 -57.5c-8.66699 0 -17.667 0.5 -27 1.5s-18.333 2.5 -27 4.5z" />
    <glyph glyph-name="Adieresis" unicode="&#xc4;" 
d="M569 1092l-188 -543h383zM1100 188c14 -38 29.167 -62.499 45.5 -73.499s51.5 -17.167 105.5 -18.5v-96h-532v96c7.33301 0 18 0.333008 32 1c92 1.33301 138 16 138 44c0 8.66699 -1.33301 19 -4 31s-6 24 -10 36l-80 236h-445l-55 -145
c-6.66699 -17.333 -12.167 -37 -16.5 -59s-6.5 -40 -6.5 -54c0 -32.667 10.833 -55.834 32.5 -69.501s61.5 -20.5 119.5 -20.5h18v-96h-462v96h20c44 0 77.5 10.167 100.5 30.5s46.167 62.833 69.5 127.5l405 1143h84zM799 1796c30 0 55.833 -11.167 77.5 -33.5
s32.5 -48.833 32.5 -79.5c0 -32.667 -10.333 -59.5 -31 -80.5s-47 -31.5 -79 -31.5c-32.667 0 -60 10.667 -82 32s-33 48 -33 80c0 30 11.5 56.333 34.5 79s49.833 34 80.5 34zM436 1796c29.333 0 55.167 -11.333 77.5 -34s33.5 -49 33.5 -79c0 -32 -10.5 -58.667 -31.5 -80
s-47.5 -32 -79.5 -32c-32.667 0 -59.834 10.667 -81.501 32s-32.5 48 -32.5 80c0 30 11.333 56.333 34 79s49.334 34 80.001 34z" />
    <glyph glyph-name="Aring" unicode="&#xc5;" 
d="M616 1843c-39.333 0 -72.666 -13.667 -99.999 -41s-41 -60.666 -41 -99.999s13.667 -73 41 -101s60.666 -42 99.999 -42s72.833 13.833 100.5 41.5s41.5 61.5 41.5 101.5c0 39.333 -13.833 72.666 -41.5 99.999s-61.167 41 -100.5 41zM616 1950
c68.667 0 127.167 -24.167 175.5 -72.5s72.5 -106.833 72.5 -175.5c0 -70 -23.833 -128.833 -71.5 -176.5s-106.5 -71.5 -176.5 -71.5c-69.333 0 -127.833 23.833 -175.5 71.5s-71.5 106.5 -71.5 176.5c0 69.333 23.833 128 71.5 176s106.167 72 175.5 72zM569 1092
l-188 -543h383zM1100 188c14 -38 29.167 -62.499 45.5 -73.499s51.5 -17.167 105.5 -18.5v-96h-532v96c7.33301 0 18 0.333008 32 1c92 1.33301 138 16 138 44c0 8.66699 -1.33301 19 -4 31s-6 24 -10 36l-80 236h-445l-55 -145c-6.66699 -17.333 -12.167 -37 -16.5 -59
s-6.5 -40 -6.5 -54c0 -32.667 10.833 -55.834 32.5 -69.501s61.5 -20.5 119.5 -20.5h18v-96h-462v96h20c44 0 77.5 10.167 100.5 30.5s46.167 62.833 69.5 127.5l405 1143h84z" />
    <glyph glyph-name="AE" unicode="&#xc6;" 
d="M362 1179c3.33301 10 6.00098 19.665 8.00098 28.998s3 17.666 3 24.999c0 16.667 -7.16699 28.334 -21.5 35.001s-42.833 10 -85.5 10v96h883l25 -489h-93c-16 152.667 -44.333 257.334 -85 314.001s-105 85 -193 85c-44.667 0 -73 -5.5 -85 -16.5
s-18 -36.833 -18 -77.5v-428h9c52 0 89 18.667 111 56s35 105.333 39 204h89v-610h-90v28c0 75.333 -12.333 132.833 -37 172.5s-60 59.5 -106 59.5h-15v-498c0 -30 4.66699 -50.5 14 -61.5s32.666 -16.5 69.999 -16.5h9c104.667 0 177.5 25.167 218.5 75.5
s74.5 167.833 100.5 352.5h84l-25 -524h-776v96h15c40 0 67 6.16699 81 18.5s21 35.5 21 69.5v260h-274l-64 -204c-4.66699 -16.667 -8.5 -33 -11.5 -49s-4.5 -26.333 -4.5 -31c0 -22 8.16699 -37.833 24.5 -47.5s43.5 -15.167 81.5 -16.5v-96h-301v96
c41.333 0 71.333 30 90 90c2 6.66699 3.33301 11.334 4 14.001zM489.001 1278l-223 -729h246v729h-23z" />
    <glyph glyph-name="Ccedilla" unicode="&#xc7;" 
d="M969 1278l60.998 119.002h84l23 -561h-88c-25.333 155.333 -69.666 274 -132.999 356s-142 123 -236 123c-124.667 0 -218 -52.333 -280 -157s-93 -262 -93 -472c0 -212 31.167 -368.833 93.5 -470.5s158.166 -152.5 287.499 -152.5c100 0 182.167 35.5 246.5 106.5
s109.833 176.167 136.5 315.5l100 -12c-16.667 -158.667 -70 -283.334 -160 -374.001s-204.333 -136 -343 -136c-171.333 0 -312.5 67.667 -423.5 203s-166.5 308.666 -166.5 519.999c0 206.667 54.667 378.167 164 514.5s246.333 204.5 411 204.5
c66.667 0 126.834 -10.833 180.501 -32.5s98.834 -53.167 135.501 -94.5zM646.998 -195.998l-0.000976562 196.001h63v-115c10.667 1.33301 21.334 2.33301 32.001 3s24 1 40 1c53.333 0 96 -15 128 -45s48 -70 48 -120c0 -56 -19.5 -99.833 -58.5 -131.5
s-93.833 -47.5 -164.5 -47.5c-38 0 -81 6.16699 -129 18.5s-104.667 31.5 -170 57.5l37 90c39.333 -24.667 79.666 -43.834 120.999 -57.501s78.666 -20.5 111.999 -20.5c37.333 0 65.166 7.5 83.499 22.5s27.5 37.833 27.5 68.5c0 26.667 -9.16699 47.667 -27.5 63
s-44.166 23 -77.499 23c-5.33301 0 -13.166 -0.5 -23.499 -1.5s-24.166 -2.5 -41.499 -4.5z" />
    <glyph glyph-name="Egrave" unicode="&#xc8;" 
d="M57 0v96.001c6.66699 0 15.667 0.333008 27 1c98 0.666992 147 29.667 147 87v1006c0 57.333 -49.333 86.666 -148 87.999h-26v96h1014l25 -489h-92c-24 162 -61 268.667 -111 320s-152.333 77 -307 77c-62.667 0 -102.667 -5.83301 -120 -17.5s-26 -34.5 -26 -68.5v-434
h11c88.667 0 151 18.5 187 55.5s57.333 105.167 64 204.5h91v-610h-91c-6.66699 98.667 -28 166.667 -64 204s-98.333 56 -187 56h-11v-494c0 -34.667 8.83301 -58 26.5 -70s62.834 -18 135.501 -18c166.667 0 275.667 25.667 327 77s92.666 170.333 123.999 357h86
l-27 -524h-1055zM391 1704c-34 20.667 -56.5 37.833 -67.5 51.5s-16.5 29.167 -16.5 46.5c0 21.333 7.5 40 22.5 56s32.833 24 53.5 24c16.667 0 34 -5.16699 52 -15.5s36 -25.5 54 -45.5l277 -301h-76z" />
    <glyph glyph-name="Eacute" unicode="&#xc9;" 
d="M57 0v96.001c6.66699 0 15.667 0.333008 27 1c98 0.666992 147 29.667 147 87v1006c0 57.333 -49.333 86.666 -148 87.999h-26v96h1014l25 -489h-92c-24 162 -61 268.667 -111 320s-152.333 77 -307 77c-62.667 0 -102.667 -5.83301 -120 -17.5s-26 -34.5 -26 -68.5v-434
h11c88.667 0 151 18.5 187 55.5s57.333 105.167 64 204.5h91v-610h-91c-6.66699 98.667 -28 166.667 -64 204s-98.333 56 -187 56h-11v-494c0 -34.667 8.83301 -58 26.5 -70s62.834 -18 135.501 -18c166.667 0 275.667 25.667 327 77s92.666 170.333 123.999 357h86
l-27 -524h-1055zM788 1704l-301 -183.999h-74l277 301c18 20 36 35.167 54 45.5s35.333 15.5 52 15.5c20.667 0 38.5 -8 53.5 -24s22.5 -34.667 22.5 -56c0 -17.333 -5.5 -32.833 -16.5 -46.5s-33.5 -30.834 -67.5 -51.501z" />
    <glyph glyph-name="Ecircumflex" unicode="&#xca;" 
d="M57 0v96.001c6.66699 0 15.667 0.333008 27 1c98 0.666992 147 29.667 147 87v1006c0 57.333 -49.333 86.666 -148 87.999h-26v96h1014l25 -489h-92c-24 162 -61 268.667 -111 320s-152.333 77 -307 77c-62.667 0 -102.667 -5.83301 -120 -17.5s-26 -34.5 -26 -68.5v-434
h11c88.667 0 151 18.5 187 55.5s57.333 105.167 64 204.5h91v-610h-91c-6.66699 98.667 -28 166.667 -64 204s-98.333 56 -187 56h-11v-494c0 -34.667 8.83301 -58 26.5 -70s62.834 -18 135.501 -18c166.667 0 275.667 25.667 327 77s92.666 170.333 123.999 357h86
l-27 -524h-1055zM655 1870l229 -350h-73l-222 196l-221 -196h-73l227 350h133z" />
    <glyph glyph-name="Edieresis" unicode="&#xcb;" 
d="M57 0v96.001c6.66699 0 15.667 0.333008 27 1c98 0.666992 147 29.667 147 87v1006c0 57.333 -49.333 86.666 -148 87.999h-26v96h1014l25 -489h-92c-24 162 -61 268.667 -111 320s-152.333 77 -307 77c-62.667 0 -102.667 -5.83301 -120 -17.5s-26 -34.5 -26 -68.5v-434
h11c88.667 0 151 18.5 187 55.5s57.333 105.167 64 204.5h91v-610h-91c-6.66699 98.667 -28 166.667 -64 204s-98.333 56 -187 56h-11v-494c0 -34.667 8.83301 -58 26.5 -70s62.834 -18 135.501 -18c166.667 0 275.667 25.667 327 77s92.666 170.333 123.999 357h86
l-27 -524h-1055zM772 1796c30 0 55.833 -11.167 77.5 -33.5s32.5 -48.833 32.5 -79.5c0 -32.667 -10.333 -59.5 -31 -80.5s-47 -31.5 -79 -31.5c-32.667 0 -60 10.667 -82 32s-33 48 -33 80c0 30 11.5 56.333 34.5 79s49.833 34 80.5 34zM409 1796
c29.333 0 55.167 -11.333 77.5 -34s33.5 -49 33.5 -79c0 -32 -10.5 -58.667 -31.5 -80s-47.5 -32 -79.5 -32c-32.667 0 -59.834 10.667 -81.501 32s-32.5 48 -32.5 80c0 30 11.333 56.333 34 79s49.334 34 80.001 34z" />
    <glyph glyph-name="Igrave" unicode="&#xcc;" 
d="M221 0v96h193c36 0 61.333 6.33301 76 19s22 35 22 67v1010c0 32 -7.33301 54.333 -22 67s-40 19 -76 19h-193v96h789v-96h-191c-36.667 0 -62.167 -6.33301 -76.5 -19s-21.5 -35 -21.5 -67v-1010c0 -32.667 7.16699 -55.167 21.5 -67.5s39.833 -18.5 76.5 -18.5h191v-96
h-789zM418 1704c-34 20.667 -56.5 37.833 -67.5 51.5s-16.5 29.167 -16.5 46.5c0 21.333 7.5 40 22.5 56s32.833 24 53.5 24c16.667 0 34 -5.16699 52 -15.5s36 -25.5 54 -45.5l277 -301h-76z" />
    <glyph glyph-name="Iacute" unicode="&#xcd;" 
d="M221 0v96h193c36 0 61.333 6.33301 76 19s22 35 22 67v1010c0 32 -7.33301 54.333 -22 67s-40 19 -76 19h-193v96h789v-96h-191c-36.667 0 -62.167 -6.33301 -76.5 -19s-21.5 -35 -21.5 -67v-1010c0 -32.667 7.16699 -55.167 21.5 -67.5s39.833 -18.5 76.5 -18.5h191v-96
h-789zM815 1704l-301 -183.999h-74l277 301c18 20 36 35.167 54 45.5s35.333 15.5 52 15.5c20.667 0 38.5 -8 53.5 -24s22.5 -34.667 22.5 -56c0 -17.333 -5.5 -32.833 -16.5 -46.5s-33.5 -30.834 -67.5 -51.501z" />
    <glyph glyph-name="Icircumflex" unicode="&#xce;" 
d="M221 0v96h193c36 0 61.333 6.33301 76 19s22 35 22 67v1010c0 32 -7.33301 54.333 -22 67s-40 19 -76 19h-193v96h789v-96h-191c-36.667 0 -62.167 -6.33301 -76.5 -19s-21.5 -35 -21.5 -67v-1010c0 -32.667 7.16699 -55.167 21.5 -67.5s39.833 -18.5 76.5 -18.5h191v-96
h-789zM682 1870l229 -350h-73l-222 196l-221 -196h-73l227 350h133z" />
    <glyph glyph-name="Idieresis" unicode="&#xcf;" 
d="M221 0v96h193c36 0 61.333 6.33301 76 19s22 35 22 67v1010c0 32 -7.33301 54.333 -22 67s-40 19 -76 19h-193v96h789v-96h-191c-36.667 0 -62.167 -6.33301 -76.5 -19s-21.5 -35 -21.5 -67v-1010c0 -32.667 7.16699 -55.167 21.5 -67.5s39.833 -18.5 76.5 -18.5h191v-96
h-789zM799 1796c30 0 55.833 -11.167 77.5 -33.5s32.5 -48.833 32.5 -79.5c0 -32.667 -10.333 -59.5 -31 -80.5s-47 -31.5 -79 -31.5c-32.667 0 -60 10.667 -82 32s-33 48 -33 80c0 30 11.5 56.333 34.5 79s49.833 34 80.5 34zM436 1796c29.333 0 55.167 -11.333 77.5 -34
s33.5 -49 33.5 -79c0 -32 -10.5 -58.667 -31.5 -80s-47.5 -32 -79.5 -32c-32.667 0 -59.834 10.667 -81.501 32s-32.5 48 -32.5 80c0 30 11.333 56.333 34 79s49.334 34 80.001 34z" />
    <glyph glyph-name="Eth" unicode="&#xd0;" 
d="M35 0l0.000976562 96h24c47.333 0 78.333 6 93 18s22 34.667 22 68v492h-174v90h174v428c0 34.667 -7.83301 57.667 -23.5 69s-54.167 17 -115.5 17v96h500c200 0 354 -59.333 462 -178s162 -288 162 -508c0 -212.667 -51.833 -380.5 -155.5 -503.5
s-244.834 -184.5 -423.501 -184.5h-545zM383.001 182c0 -34 8.33105 -56.833 24.998 -68.5s55.334 -17.5 116.001 -17.5c96.667 0 167.334 9.83301 212.001 29.5s82 54.167 112 103.5c28 47.333 49 109 63 185s21 167.333 21 274c0 218 -30 370.833 -90 458.5
s-165.333 131.5 -316 131.5c-62 0 -101.333 -5.83301 -118 -17.5s-25 -34.5 -25 -68.5v-428h274v-90h-274v-492z" />
    <glyph glyph-name="Ntilde" unicode="&#xd1;" 
d="M203 328v890.998c-13.333 38.667 -62 59 -146 61h-12v94h344l539 -1034v733c0 82.667 -12 138.834 -36 168.501s-68 44.5 -132 44.5h-8v88h434l-1 -88c-60.667 -0.666992 -102.667 -17 -126 -49s-35 -95.333 -35 -190v-1080h-117l-606 1149v-809
c0 -83.333 11.5 -140.666 34.5 -171.999s63.5 -47 121.5 -47h18v-88h-430v88c60 2.66699 101.333 19.167 124 49.5s34 90.833 34 181.5v9zM508 1642c-12 2.66699 -22.833 4.83203 -32.5 6.49902s-16.5 2.5 -20.5 2.5c-28.667 0 -50.334 -6.5 -65.001 -19.5
s-27.334 -36.5 -38.001 -70.5h-57c12.667 72.667 35.834 129.334 69.501 170.001s73.834 61 120.501 61c12.667 0 24.667 -0.666992 36 -2s22.666 -3.33301 33.999 -6l109 -27c6.66699 -2 13.667 -3.5 21 -4.5s14.333 -1.5 21 -1.5c26.667 0 47.334 6.5 62.001 19.5
s26.334 35.167 35.001 66.5h57c-14 -74.667 -37.333 -131.167 -70 -169.5s-73.334 -57.5 -122.001 -57.5c-8.66699 0 -17.667 0.5 -27 1.5s-18.333 2.5 -27 4.5z" />
    <glyph glyph-name="Ograve" unicode="&#xd2;" 
d="M616 1315c-106.667 0 -185.5 -52.333 -236.5 -157s-76.5 -266.667 -76.5 -486c0 -205.333 26 -358.833 78 -460.5s130.333 -152.5 235 -152.5c105.333 0 184 52 236 156s78 261 78 471c0 214 -25.667 372.333 -77 475s-130.333 154 -237 154zM70 686
c0 211.333 51.167 384.333 153.5 519s232.5 202 390.5 202c159.333 0 290.333 -67.333 393 -202s154 -307.667 154 -519c0 -212.667 -51.167 -385.667 -153.5 -519s-233.5 -200 -393.5 -200c-158 0 -288.167 66.833 -390.5 200.5s-153.5 306.5 -153.5 518.5zM418 1704
c-34 20.667 -56.5 37.833 -67.5 51.5s-16.5 29.167 -16.5 46.5c0 21.333 7.5 40 22.5 56s32.833 24 53.5 24c16.667 0 34 -5.16699 52 -15.5s36 -25.5 54 -45.5l277 -301h-76z" />
    <glyph glyph-name="Oacute" unicode="&#xd3;" 
d="M616 1315c-106.667 0 -185.5 -52.333 -236.5 -157s-76.5 -266.667 -76.5 -486c0 -205.333 26 -358.833 78 -460.5s130.333 -152.5 235 -152.5c105.333 0 184 52 236 156s78 261 78 471c0 214 -25.667 372.333 -77 475s-130.333 154 -237 154zM70 686
c0 211.333 51.167 384.333 153.5 519s232.5 202 390.5 202c159.333 0 290.333 -67.333 393 -202s154 -307.667 154 -519c0 -212.667 -51.167 -385.667 -153.5 -519s-233.5 -200 -393.5 -200c-158 0 -288.167 66.833 -390.5 200.5s-153.5 306.5 -153.5 518.5zM815 1704
l-301 -183.999h-74l277 301c18 20 36 35.167 54 45.5s35.333 15.5 52 15.5c20.667 0 38.5 -8 53.5 -24s22.5 -34.667 22.5 -56c0 -17.333 -5.5 -32.833 -16.5 -46.5s-33.5 -30.834 -67.5 -51.501z" />
    <glyph glyph-name="Ocircumflex" unicode="&#xd4;" 
d="M616 1315c-106.667 0 -185.5 -52.333 -236.5 -157s-76.5 -266.667 -76.5 -486c0 -205.333 26 -358.833 78 -460.5s130.333 -152.5 235 -152.5c105.333 0 184 52 236 156s78 261 78 471c0 214 -25.667 372.333 -77 475s-130.333 154 -237 154zM70 686
c0 211.333 51.167 384.333 153.5 519s232.5 202 390.5 202c159.333 0 290.333 -67.333 393 -202s154 -307.667 154 -519c0 -212.667 -51.167 -385.667 -153.5 -519s-233.5 -200 -393.5 -200c-158 0 -288.167 66.833 -390.5 200.5s-153.5 306.5 -153.5 518.5zM682 1870
l229 -350h-73l-222 196l-221 -196h-73l227 350h133z" />
    <glyph glyph-name="Otilde" unicode="&#xd5;" 
d="M616 1315c-106.667 0 -185.5 -52.333 -236.5 -157s-76.5 -266.667 -76.5 -486c0 -205.333 26 -358.833 78 -460.5s130.333 -152.5 235 -152.5c105.333 0 184 52 236 156s78 261 78 471c0 214 -25.667 372.333 -77 475s-130.333 154 -237 154zM70 686
c0 211.333 51.167 384.333 153.5 519s232.5 202 390.5 202c159.333 0 290.333 -67.333 393 -202s154 -307.667 154 -519c0 -212.667 -51.167 -385.667 -153.5 -519s-233.5 -200 -393.5 -200c-158 0 -288.167 66.833 -390.5 200.5s-153.5 306.5 -153.5 518.5zM547 1642
c-12 2.66699 -22.833 4.83203 -32.5 6.49902s-16.5 2.5 -20.5 2.5c-28.667 0 -50.334 -6.5 -65.001 -19.5s-27.334 -36.5 -38.001 -70.5h-57c12.667 72.667 35.834 129.334 69.501 170.001s73.834 61 120.501 61c12.667 0 24.667 -0.666992 36 -2s22.666 -3.33301 33.999 -6
l109 -27c6.66699 -2 13.667 -3.5 21 -4.5s14.333 -1.5 21 -1.5c26.667 0 47.334 6.5 62.001 19.5s26.334 35.167 35.001 66.5h57c-14 -74.667 -37.333 -131.167 -70 -169.5s-73.334 -57.5 -122.001 -57.5c-8.66699 0 -17.667 0.5 -27 1.5s-18.333 2.5 -27 4.5z" />
    <glyph glyph-name="Odieresis" unicode="&#xd6;" 
d="M616 1315c-106.667 0 -185.5 -52.333 -236.5 -157s-76.5 -266.667 -76.5 -486c0 -205.333 26 -358.833 78 -460.5s130.333 -152.5 235 -152.5c105.333 0 184 52 236 156s78 261 78 471c0 214 -25.667 372.333 -77 475s-130.333 154 -237 154zM70 686
c0 211.333 51.167 384.333 153.5 519s232.5 202 390.5 202c159.333 0 290.333 -67.333 393 -202s154 -307.667 154 -519c0 -212.667 -51.167 -385.667 -153.5 -519s-233.5 -200 -393.5 -200c-158 0 -288.167 66.833 -390.5 200.5s-153.5 306.5 -153.5 518.5zM799 1796
c30 0 55.833 -11.167 77.5 -33.5s32.5 -48.833 32.5 -79.5c0 -32.667 -10.333 -59.5 -31 -80.5s-47 -31.5 -79 -31.5c-32.667 0 -60 10.667 -82 32s-33 48 -33 80c0 30 11.5 56.333 34.5 79s49.833 34 80.5 34zM436 1796c29.333 0 55.167 -11.333 77.5 -34
s33.5 -49 33.5 -79c0 -32 -10.5 -58.667 -31.5 -80s-47.5 -32 -79.5 -32c-32.667 0 -59.834 10.667 -81.501 32s-32.5 48 -32.5 80c0 30 11.333 56.333 34 79s49.334 34 80.001 34z" />
    <glyph glyph-name="multiply" unicode="&#xd7;" 
d="M614 754l255.999 256.002c8.66699 8 17.834 14.333 27.501 19s19.167 7 28.5 7c20 0 37.167 -7.16699 51.5 -21.5s21.5 -31.5 21.5 -51.5c0 -9.33301 -2.33301 -18.833 -7 -28.5s-11 -18.834 -19 -27.501l-256 -256l264 -266
c8.66699 -8.66699 15.334 -17.834 20.001 -27.501s7 -18.834 7 -27.501c0 -20.667 -7 -38.167 -21 -52.5s-31 -21.5 -51 -21.5c-11.333 0 -22 2 -32 6s-19 10.333 -27 19l-265 264l-256 -254c-8 -8 -17.167 -14.5 -27.5 -19.5s-20.166 -7.5 -29.499 -7.5
c-20.667 0 -37.5 6.5 -50.5 19.5s-19.5 29.833 -19.5 50.5c0 11.333 2.16699 22 6.5 32s10.5 19 18.5 27l254 256l-264 266c-8.66699 8.66699 -15.334 18.167 -20.001 28.5s-7 20.833 -7 31.5c0 18.667 7.5 35.334 22.5 50.001s32.167 22 51.5 22
c9.33301 0 19.166 -2.5 29.499 -7.5s19.5 -11.5 27.5 -19.5z" />
    <glyph glyph-name="Oslash" unicode="&#xd8;" 
d="M340 313l514 850c-28 50.667 -61.833 88.667 -101.5 114s-85.167 38 -136.5 38c-106.667 0 -185.5 -52.5 -236.5 -157.5s-76.5 -268.833 -76.5 -491.5c0 -72 3 -136.333 9 -193s15.333 -110 28 -160zM928 1292l110 184.999h105l-152 -252
c57.333 -74.667 100 -156.5 128 -245.5s42 -186.833 42 -293.5c0 -212.667 -51.167 -385.667 -153.5 -519s-233.5 -200 -393.5 -200c-58 0 -112.5 9.5 -163.5 28.5s-99.5 47.833 -145.5 86.5l-137 -225h-105l179 293c-60 75.333 -103.667 155.833 -131 241.5
s-41 183.834 -41 294.501c0 210.667 51.333 383.5 154 518.5s232.667 202.5 390 202.5c62 0 118.833 -9.5 170.5 -28.5s99.5 -47.833 143.5 -86.5zM895 1063l-513.999 -858c26.667 -47.333 60.167 -83.5 100.5 -108.5s85.166 -37.5 134.499 -37.5c105.333 0 184 52 236 156
s78 261 78 471c0 97.333 -2.83301 172.5 -8.5 225.5s-14.5 103.5 -26.5 151.5z" />
    <glyph glyph-name="Ugrave" unicode="&#xd9;" 
d="M197 1192c0 34 -7.83398 56.835 -23.501 68.502s-50.167 17.5 -103.5 17.5h-35v96h528v-96h-63c-35.333 0 -59.833 -6.33301 -73.5 -19s-20.5 -35 -20.5 -67v-766c0 -120.667 22 -208.834 66 -264.501s113.333 -83.5 208 -83.5c94 0 160.833 30.667 200.5 92
s59.5 176.666 59.5 345.999v643c0 47.333 -10.833 79 -32.5 95s-68.167 24 -139.5 24v96h440v-96h-14c-62 0 -102.5 -9.5 -121.5 -28.5s-28.5 -64.833 -28.5 -137.5v-604c0 -196 -33.167 -335.167 -99.5 -417.5s-175.166 -123.5 -326.499 -123.5
c-138 0 -242.667 39 -314 117s-107 192.667 -107 344v764zM483.999 1704c-34 20.667 -56.5 37.833 -67.5 51.5s-16.5 29.167 -16.5 46.5c0 21.333 7.5 40 22.5 56s32.833 24 53.5 24c16.667 0 34 -5.16699 52 -15.5s36 -25.5 54 -45.5l277 -301h-76z" />
    <glyph glyph-name="Uacute" unicode="&#xda;" 
d="M197 1192c0 34 -7.83398 56.835 -23.501 68.502s-50.167 17.5 -103.5 17.5h-35v96h528v-96h-63c-35.333 0 -59.833 -6.33301 -73.5 -19s-20.5 -35 -20.5 -67v-766c0 -120.667 22 -208.834 66 -264.501s113.333 -83.5 208 -83.5c94 0 160.833 30.667 200.5 92
s59.5 176.666 59.5 345.999v643c0 47.333 -10.833 79 -32.5 95s-68.167 24 -139.5 24v96h440v-96h-14c-62 0 -102.5 -9.5 -121.5 -28.5s-28.5 -64.833 -28.5 -137.5v-604c0 -196 -33.167 -335.167 -99.5 -417.5s-175.166 -123.5 -326.499 -123.5
c-138 0 -242.667 39 -314 117s-107 192.667 -107 344v764zM880.999 1704l-301 -183.999h-74l277 301c18 20 36 35.167 54 45.5s35.333 15.5 52 15.5c20.667 0 38.5 -8 53.5 -24s22.5 -34.667 22.5 -56c0 -17.333 -5.5 -32.833 -16.5 -46.5s-33.5 -30.834 -67.5 -51.501z" />
    <glyph glyph-name="Ucircumflex" unicode="&#xdb;" 
d="M197 1192c0 34 -7.83398 56.835 -23.501 68.502s-50.167 17.5 -103.5 17.5h-35v96h528v-96h-63c-35.333 0 -59.833 -6.33301 -73.5 -19s-20.5 -35 -20.5 -67v-766c0 -120.667 22 -208.834 66 -264.501s113.333 -83.5 208 -83.5c94 0 160.833 30.667 200.5 92
s59.5 176.666 59.5 345.999v643c0 47.333 -10.833 79 -32.5 95s-68.167 24 -139.5 24v96h440v-96h-14c-62 0 -102.5 -9.5 -121.5 -28.5s-28.5 -64.833 -28.5 -137.5v-604c0 -196 -33.167 -335.167 -99.5 -417.5s-175.166 -123.5 -326.499 -123.5
c-138 0 -242.667 39 -314 117s-107 192.667 -107 344v764zM747.999 1870l229 -350h-73l-222 196l-221 -196h-73l227 350h133z" />
    <glyph glyph-name="Udieresis" unicode="&#xdc;" 
d="M197 1192c0 34 -7.83398 56.835 -23.501 68.502s-50.167 17.5 -103.5 17.5h-35v96h528v-96h-63c-35.333 0 -59.833 -6.33301 -73.5 -19s-20.5 -35 -20.5 -67v-766c0 -120.667 22 -208.834 66 -264.501s113.333 -83.5 208 -83.5c94 0 160.833 30.667 200.5 92
s59.5 176.666 59.5 345.999v643c0 47.333 -10.833 79 -32.5 95s-68.167 24 -139.5 24v96h440v-96h-14c-62 0 -102.5 -9.5 -121.5 -28.5s-28.5 -64.833 -28.5 -137.5v-604c0 -196 -33.167 -335.167 -99.5 -417.5s-175.166 -123.5 -326.499 -123.5
c-138 0 -242.667 39 -314 117s-107 192.667 -107 344v764zM864.999 1796c30 0 55.833 -11.167 77.5 -33.5s32.5 -48.833 32.5 -79.5c0 -32.667 -10.333 -59.5 -31 -80.5s-47 -31.5 -79 -31.5c-32.667 0 -60 10.667 -82 32s-33 48 -33 80c0 30 11.5 56.333 34.5 79
s49.833 34 80.5 34zM501.999 1796c29.333 0 55.167 -11.333 77.5 -34s33.5 -49 33.5 -79c0 -32 -10.5 -58.667 -31.5 -80s-47.5 -32 -79.5 -32c-32.667 0 -59.834 10.667 -81.501 32s-32.5 48 -32.5 80c0 30 11.333 56.333 34 79s49.334 34 80.001 34z" />
    <glyph glyph-name="Yacute" unicode="&#xdd;" 
d="M942 96l-0.00195312 -95.999h-629v96h146c22.667 0 39.167 6.83301 49.5 20.5s15.5 35.5 15.5 65.5v385l-368 609c-27.333 45.333 -50 73.666 -68 84.999s-41.333 17 -70 17h-18v96h545v-96h-82c-33.333 0 -56.666 -3 -69.999 -9s-20 -16 -20 -30
c0 -7.33301 2.16699 -16.333 6.5 -27s10.833 -23.334 19.5 -38.001l285 -476l234 432c7.33301 14 12.833 27 16.5 39s5.5 23 5.5 33c0 27.333 -10.5 46.833 -31.5 58.5s-57.5 17.5 -109.5 17.5h-35v96h469v-96h-16c-35.333 0 -62.666 -6.16699 -81.999 -18.5
s-41.333 -40.166 -66 -83.499l-336 -598v-396c0 -33.333 6 -56 18 -68s36 -18 72 -18h119zM814.998 1704l-301 -183.999h-74l277 301c18 20 36 35.167 54 45.5s35.333 15.5 52 15.5c20.667 0 38.5 -8 53.5 -24s22.5 -34.667 22.5 -56c0 -17.333 -5.5 -32.833 -16.5 -46.5
s-33.5 -30.834 -67.5 -51.501z" />
    <glyph glyph-name="Thorn" unicode="&#xde;" 
d="M455 449c20.667 -2.66699 41.333 -4.49902 62 -5.49902s41.667 -1.5 63 -1.5c133.333 0 227 22.667 281 68s81 121.666 81 228.999s-22.5 182.333 -67.5 225s-135.167 64 -270.5 64c-64 0 -104.833 -5 -122.5 -15s-26.5 -33.667 -26.5 -71v-4v-489zM58.999 96.001
c92 0 146.498 5.16895 163.498 15.502s25.5 34.5 25.5 72.5v1006c0 57.333 -51 86.666 -153 87.999h-36v96h584v-96h-63c-54.667 0 -89.167 -5.33301 -103.5 -16s-21.5 -34.667 -21.5 -72v-70h299c129.333 0 229.5 -33.333 300.5 -100s106.5 -160.334 106.5 -281.001
c0 -133.333 -45.667 -231.833 -137 -295.5s-233.333 -95.5 -426 -95.5c-25.333 0 -50.166 0.5 -74.499 1.5s-47.166 2.5 -68.499 4.5v-170c0 -56.667 67.667 -86 203 -88h1v-96h-600v96z" />
    <glyph glyph-name="germandbls" unicode="&#xdf;" 
d="M422 1063l0.00195312 -1063h-359v80h64c47.333 0 77.666 5.16699 90.999 15.5s20 31.833 20 64.5v913c0 112.667 34.167 198.167 102.5 256.5s169.166 87.5 302.499 87.5c122 0 218.667 -29.333 290 -88s107 -137.667 107 -237c0 -70.667 -19.5 -129 -58.5 -175
s-97.167 -80 -174.5 -102v-16c104 -15.333 181.5 -55.5 232.5 -120.5s76.5 -155.167 76.5 -270.5c0 -145.333 -30.5 -255.166 -91.5 -329.499s-150.5 -111.5 -268.5 -111.5c-69.333 0 -126 18.667 -170 56s-66 84.333 -66 141c0 38 10.167 68.333 30.5 91s47.833 34 82.5 34
c28.667 0 52.834 -11 72.501 -33s29.5 -50 29.5 -84c0 -23.333 -8 -49 -24 -77c-4 -7.33301 -6 -11.666 -6 -12.999c0 -9.33301 5.33301 -17.5 16 -24.5s23 -10.5 37 -10.5c55.333 0 94.666 26.833 117.999 80.5s35 146.5 35 278.5c0 139.333 -20.167 235.166 -60.5 287.499
s-111.5 78.5 -213.5 78.5c-2 0 -6.66699 -0.333008 -14 -1s-13.666 -1 -18.999 -1c-12.667 0 -22.334 3.5 -29.001 10.5s-10 17.167 -10 30.5s3.83301 23.166 11.5 29.499s19.5 9.5 35.5 9.5h56c58 0 103.5 21 136.5 63s49.5 100 49.5 174c0 86.667 -18.167 150 -54.5 190
s-93.166 60 -170.499 60c-74.667 0 -127.834 -19.5 -159.501 -58.5s-47.5 -110.833 -47.5 -215.5z" />
    <glyph glyph-name="agrave" unicode="&#xe0;" 
d="M784 514c-154 -20.667 -264.833 -52 -332.5 -94s-101.5 -100 -101.5 -174c0 -60 13 -103.667 39 -131s67 -41 123 -41c84 0 150.333 25.833 199 77.5s73 124.167 73 217.5v145zM971 678l0.000976562 -474.999c0 -31.333 6.5 -54.833 19.5 -70.5s32.5 -23.5 58.5 -23.5
c15.333 0 32.333 4.66699 51 14s30.334 14 35.001 14c8 0 14.333 -2.83301 19 -8.5s7 -13.834 7 -24.501c0 -26.667 -19.167 -54 -57.5 -82s-81.833 -42 -130.5 -42c-48 0 -87 13 -117 39s-49 63.333 -57 112c-36 -48.667 -88.167 -88.167 -156.5 -118.5
s-139.166 -45.5 -212.499 -45.5c-84.667 0 -152.5 22.667 -203.5 68s-76.5 106 -76.5 182c0 98.667 49.167 177.834 147.5 237.501s260.5 107.5 486.5 143.5v147c0 47.333 -18.833 83.833 -56.5 109.5s-91.834 38.5 -162.501 38.5c-54 0 -98.167 -7.16699 -132.5 -21.5
s-51.5 -31.833 -51.5 -52.5c0 -4.66699 8.5 -18 25.5 -40s25.5 -46.667 25.5 -74c0 -32 -9.83301 -57.167 -29.5 -75.5s-45.834 -27.5 -78.501 -27.5c-38 0 -67.333 10.167 -88 30.5s-31 49.166 -31 86.499c0 75.333 36.667 137.833 110 187.5s167.666 74.5 282.999 74.5
c130.667 0 225.5 -23.5 284.5 -70.5s88.5 -124.5 88.5 -232.5zM418.001 1276c-34 20.667 -56.5 37.833 -67.5 51.5s-16.5 29.167 -16.5 46.5c0 21.333 7.5 40 22.5 56s32.833 24 53.5 24c16.667 0 34 -5.16699 52 -15.5s36 -25.5 54 -45.5l277 -301h-76z" />
    <glyph glyph-name="aacute" unicode="&#xe1;" 
d="M784 514c-154 -20.667 -264.833 -52 -332.5 -94s-101.5 -100 -101.5 -174c0 -60 13 -103.667 39 -131s67 -41 123 -41c84 0 150.333 25.833 199 77.5s73 124.167 73 217.5v145zM971 678l0.000976562 -474.999c0 -31.333 6.5 -54.833 19.5 -70.5s32.5 -23.5 58.5 -23.5
c15.333 0 32.333 4.66699 51 14s30.334 14 35.001 14c8 0 14.333 -2.83301 19 -8.5s7 -13.834 7 -24.501c0 -26.667 -19.167 -54 -57.5 -82s-81.833 -42 -130.5 -42c-48 0 -87 13 -117 39s-49 63.333 -57 112c-36 -48.667 -88.167 -88.167 -156.5 -118.5
s-139.166 -45.5 -212.499 -45.5c-84.667 0 -152.5 22.667 -203.5 68s-76.5 106 -76.5 182c0 98.667 49.167 177.834 147.5 237.501s260.5 107.5 486.5 143.5v147c0 47.333 -18.833 83.833 -56.5 109.5s-91.834 38.5 -162.501 38.5c-54 0 -98.167 -7.16699 -132.5 -21.5
s-51.5 -31.833 -51.5 -52.5c0 -4.66699 8.5 -18 25.5 -40s25.5 -46.667 25.5 -74c0 -32 -9.83301 -57.167 -29.5 -75.5s-45.834 -27.5 -78.501 -27.5c-38 0 -67.333 10.167 -88 30.5s-31 49.166 -31 86.499c0 75.333 36.667 137.833 110 187.5s167.666 74.5 282.999 74.5
c130.667 0 225.5 -23.5 284.5 -70.5s88.5 -124.5 88.5 -232.5zM815.001 1276l-301 -183.999h-74l277 301c18 20 36 35.167 54 45.5s35.333 15.5 52 15.5c20.667 0 38.5 -8 53.5 -24s22.5 -34.667 22.5 -56c0 -17.333 -5.5 -32.833 -16.5 -46.5s-33.5 -30.834 -67.5 -51.501z
" />
    <glyph glyph-name="acircumflex" unicode="&#xe2;" 
d="M784 514c-154 -20.667 -264.833 -52 -332.5 -94s-101.5 -100 -101.5 -174c0 -60 13 -103.667 39 -131s67 -41 123 -41c84 0 150.333 25.833 199 77.5s73 124.167 73 217.5v145zM971 678l0.000976562 -474.999c0 -31.333 6.5 -54.833 19.5 -70.5s32.5 -23.5 58.5 -23.5
c15.333 0 32.333 4.66699 51 14s30.334 14 35.001 14c8 0 14.333 -2.83301 19 -8.5s7 -13.834 7 -24.501c0 -26.667 -19.167 -54 -57.5 -82s-81.833 -42 -130.5 -42c-48 0 -87 13 -117 39s-49 63.333 -57 112c-36 -48.667 -88.167 -88.167 -156.5 -118.5
s-139.166 -45.5 -212.499 -45.5c-84.667 0 -152.5 22.667 -203.5 68s-76.5 106 -76.5 182c0 98.667 49.167 177.834 147.5 237.501s260.5 107.5 486.5 143.5v147c0 47.333 -18.833 83.833 -56.5 109.5s-91.834 38.5 -162.501 38.5c-54 0 -98.167 -7.16699 -132.5 -21.5
s-51.5 -31.833 -51.5 -52.5c0 -4.66699 8.5 -18 25.5 -40s25.5 -46.667 25.5 -74c0 -32 -9.83301 -57.167 -29.5 -75.5s-45.834 -27.5 -78.501 -27.5c-38 0 -67.333 10.167 -88 30.5s-31 49.166 -31 86.499c0 75.333 36.667 137.833 110 187.5s167.666 74.5 282.999 74.5
c130.667 0 225.5 -23.5 284.5 -70.5s88.5 -124.5 88.5 -232.5zM682.001 1442l229 -350h-73l-222 196l-221 -196h-73l227 350h133z" />
    <glyph glyph-name="atilde" unicode="&#xe3;" 
d="M784 514c-154 -20.667 -264.833 -52 -332.5 -94s-101.5 -100 -101.5 -174c0 -60 13 -103.667 39 -131s67 -41 123 -41c84 0 150.333 25.833 199 77.5s73 124.167 73 217.5v145zM971 678l0.000976562 -474.999c0 -31.333 6.5 -54.833 19.5 -70.5s32.5 -23.5 58.5 -23.5
c15.333 0 32.333 4.66699 51 14s30.334 14 35.001 14c8 0 14.333 -2.83301 19 -8.5s7 -13.834 7 -24.501c0 -26.667 -19.167 -54 -57.5 -82s-81.833 -42 -130.5 -42c-48 0 -87 13 -117 39s-49 63.333 -57 112c-36 -48.667 -88.167 -88.167 -156.5 -118.5
s-139.166 -45.5 -212.499 -45.5c-84.667 0 -152.5 22.667 -203.5 68s-76.5 106 -76.5 182c0 98.667 49.167 177.834 147.5 237.501s260.5 107.5 486.5 143.5v147c0 47.333 -18.833 83.833 -56.5 109.5s-91.834 38.5 -162.501 38.5c-54 0 -98.167 -7.16699 -132.5 -21.5
s-51.5 -31.833 -51.5 -52.5c0 -4.66699 8.5 -18 25.5 -40s25.5 -46.667 25.5 -74c0 -32 -9.83301 -57.167 -29.5 -75.5s-45.834 -27.5 -78.501 -27.5c-38 0 -67.333 10.167 -88 30.5s-31 49.166 -31 86.499c0 75.333 36.667 137.833 110 187.5s167.666 74.5 282.999 74.5
c130.667 0 225.5 -23.5 284.5 -70.5s88.5 -124.5 88.5 -232.5zM547.001 1214c-12 2.66699 -22.833 4.83203 -32.5 6.49902s-16.5 2.5 -20.5 2.5c-28.667 0 -50.334 -6.5 -65.001 -19.5s-27.334 -36.5 -38.001 -70.5h-57c12.667 72.667 35.834 129.334 69.501 170.001
s73.834 61 120.501 61c12.667 0 24.667 -0.666992 36 -2s22.666 -3.33301 33.999 -6l109 -27c6.66699 -2 13.667 -3.5 21 -4.5s14.333 -1.5 21 -1.5c26.667 0 47.334 6.5 62.001 19.5s26.334 35.167 35.001 66.5h57c-14 -74.667 -37.333 -131.167 -70 -169.5
s-73.334 -57.5 -122.001 -57.5c-8.66699 0 -17.667 0.5 -27 1.5s-18.333 2.5 -27 4.5z" />
    <glyph glyph-name="adieresis" unicode="&#xe4;" 
d="M784 514c-154 -20.667 -264.833 -52 -332.5 -94s-101.5 -100 -101.5 -174c0 -60 13 -103.667 39 -131s67 -41 123 -41c84 0 150.333 25.833 199 77.5s73 124.167 73 217.5v145zM971 678l0.000976562 -474.999c0 -31.333 6.5 -54.833 19.5 -70.5s32.5 -23.5 58.5 -23.5
c15.333 0 32.333 4.66699 51 14s30.334 14 35.001 14c8 0 14.333 -2.83301 19 -8.5s7 -13.834 7 -24.501c0 -26.667 -19.167 -54 -57.5 -82s-81.833 -42 -130.5 -42c-48 0 -87 13 -117 39s-49 63.333 -57 112c-36 -48.667 -88.167 -88.167 -156.5 -118.5
s-139.166 -45.5 -212.499 -45.5c-84.667 0 -152.5 22.667 -203.5 68s-76.5 106 -76.5 182c0 98.667 49.167 177.834 147.5 237.501s260.5 107.5 486.5 143.5v147c0 47.333 -18.833 83.833 -56.5 109.5s-91.834 38.5 -162.501 38.5c-54 0 -98.167 -7.16699 -132.5 -21.5
s-51.5 -31.833 -51.5 -52.5c0 -4.66699 8.5 -18 25.5 -40s25.5 -46.667 25.5 -74c0 -32 -9.83301 -57.167 -29.5 -75.5s-45.834 -27.5 -78.501 -27.5c-38 0 -67.333 10.167 -88 30.5s-31 49.166 -31 86.499c0 75.333 36.667 137.833 110 187.5s167.666 74.5 282.999 74.5
c130.667 0 225.5 -23.5 284.5 -70.5s88.5 -124.5 88.5 -232.5zM799.001 1368c30 0 55.833 -11.167 77.5 -33.5s32.5 -48.833 32.5 -79.5c0 -32.667 -10.333 -59.5 -31 -80.5s-47 -31.5 -79 -31.5c-32.667 0 -60 10.667 -82 32s-33 48 -33 80c0 30 11.5 56.333 34.5 79
s49.833 34 80.5 34zM436.001 1368c29.333 0 55.167 -11.333 77.5 -34s33.5 -49 33.5 -79c0 -32 -10.5 -58.667 -31.5 -80s-47.5 -32 -79.5 -32c-32.667 0 -59.834 10.667 -81.501 32s-32.5 48 -32.5 80c0 30 11.333 56.333 34 79s49.334 34 80.001 34z" />
    <glyph glyph-name="aring" unicode="&#xe5;" 
d="M616 1427c-39.333 0 -72.666 -13.667 -99.999 -41s-41 -60.666 -41 -99.999s13.667 -73 41 -101s60.666 -42 99.999 -42s72.833 14 100.5 42s41.5 61.667 41.5 101s-13.833 72.666 -41.5 99.999s-61.167 41 -100.5 41zM616 1534c68.667 0 127.167 -24.167 175.5 -72.5
s72.5 -106.833 72.5 -175.5c0 -69.333 -23.833 -128 -71.5 -176s-106.5 -72 -176.5 -72c-69.333 0 -127.833 24 -175.5 72s-71.5 106.667 -71.5 176c0 70 23.833 128.833 71.5 176.5s106.167 71.5 175.5 71.5zM971 678l0.000976562 -474.999
c0 -31.333 6.5 -54.833 19.5 -70.5s32.5 -23.5 58.5 -23.5c15.333 0 32.333 4.66699 51 14s30.334 14 35.001 14c8 0 14.333 -2.83301 19 -8.5s7 -13.834 7 -24.501c0 -26.667 -19.167 -54 -57.5 -82s-81.833 -42 -130.5 -42c-48 0 -87 13 -117 39s-49 63.333 -57 112
c-36 -48.667 -88.167 -88.167 -156.5 -118.5s-139.166 -45.5 -212.499 -45.5c-84.667 0 -152.5 22.667 -203.5 68s-76.5 106 -76.5 182c0 98.667 49.167 177.834 147.5 237.501s260.5 107.5 486.5 143.5v147c0 47.333 -18.833 83.833 -56.5 109.5
s-91.834 38.5 -162.501 38.5c-54 0 -98.167 -7.16699 -132.5 -21.5s-51.5 -31.833 -51.5 -52.5c0 -4.66699 8.5 -18 25.5 -40s25.5 -46.667 25.5 -74c0 -32 -9.83301 -57.167 -29.5 -75.5s-45.834 -27.5 -78.501 -27.5c-38 0 -67.333 10.167 -88 30.5s-31 49.166 -31 86.499
c0 75.333 36.667 137.833 110 187.5s167.666 74.5 282.999 74.5c130.667 0 225.5 -23.5 284.5 -70.5s88.5 -124.5 88.5 -232.5zM784.001 514.001c-154 -20.667 -264.833 -52 -332.5 -94s-101.5 -100 -101.5 -174c0 -60 13 -103.667 39 -131s67 -41 123 -41
c84 0 150.333 25.833 199 77.5s73 124.167 73 217.5v145z" />
    <glyph glyph-name="ae" unicode="&#xe6;" 
d="M512 510c-112.667 -29.333 -189.333 -63.832 -230 -103.499s-61 -95.834 -61 -168.501c0 -50.667 9 -89.667 27 -117s44 -41 78 -41c58 0 103.5 25.667 136.5 77s49.5 124 49.5 218v135zM693.001 547.001l278 0.00195312c12.667 0 21.667 5 27 15s8 33 8 69
c0 81.333 -13.5 145.666 -40.5 192.999s-63.5 71 -109.5 71c-52 0 -91.833 -29.333 -119.5 -88s-42.167 -145.334 -43.5 -260.001zM690.001 459.003l-0.00195312 -26.9971c0 -112.667 17.333 -200.5 52 -263.5s83 -94.5 145 -94.5c44 0 84.5 18 121.5 54
s72.833 92.333 107.5 169l76 -41c-39.333 -99.333 -86.666 -172.333 -141.999 -219s-122 -70 -200 -70c-64 0 -120.667 18.167 -170 54.5s-85.666 86.5 -108.999 150.5c-35.333 -66.667 -78.333 -117.5 -129 -152.5s-106.667 -52.5 -168 -52.5
c-75.333 0 -134.333 22 -177 66s-64 104.667 -64 182c0 95.333 36.167 172.166 108.5 230.499s195.833 109.166 370.5 152.499v152c0 46 -13 81.667 -39 107s-63 38 -111 38c-36 0 -64.333 -7 -85 -21s-31 -33.667 -31 -59c0 -4 6.5 -17 19.5 -39s19.5 -45.667 19.5 -71
c0 -34 -9.5 -59.667 -28.5 -77s-47.167 -26 -84.5 -26c-32 0 -56.333 11.167 -73 33.5s-25 54.166 -25 95.499c0 69.333 30.833 128.333 92.5 177s140.5 73 236.5 73c50 0 93.5 -9.33301 130.5 -28s69.5 -47.667 97.5 -87c34.667 41.333 70.5 70.833 107.5 88.5
s80.833 26.5 131.5 26.5c98 0 176.833 -43 236.5 -129s89.5 -201.333 89.5 -346v-47h-506z" />
    <glyph glyph-name="ccedilla" unicode="&#xe7;" 
d="M1094 264c-40 -100.667 -94.5 -175.333 -163.5 -224s-155.167 -73 -258.5 -73c-143.333 0 -260.166 45.5 -350.499 136.5s-135.5 209.5 -135.5 355.5c0 156 47.833 282 143.5 378s221.5 144 377.5 144c103.333 0 188.833 -22.833 256.5 -68.5
s101.5 -102.834 101.5 -171.501c0 -44.667 -12.667 -80.334 -38 -107.001s-58.333 -40 -99 -40c-36 0 -65.5 10.5 -88.5 31.5s-34.5 48.167 -34.5 81.5c0 30.667 10.833 56.834 32.5 78.501s32.5 35.5 32.5 41.5c0 20.667 -15.667 37.834 -47 51.501
s-71.666 20.5 -120.999 20.5c-102 0 -177.333 -33.167 -226 -99.5s-73 -169.833 -73 -310.5c0 -134 26.333 -233.667 79 -299s133 -98 241 -98c69.333 0 127.666 17 174.999 51s86.666 86.667 117.999 158zM631 -195.999l-0.000976562 196.001h63v-115
c10.667 1.33301 21.334 2.33301 32.001 3s24 1 40 1c53.333 0 96 -15 128 -45s48 -70 48 -120c0 -56 -19.5 -99.833 -58.5 -131.5s-93.833 -47.5 -164.5 -47.5c-38 0 -81 6.16699 -129 18.5s-104.667 31.5 -170 57.5l37 90c39.333 -24.667 79.666 -43.834 120.999 -57.501
s78.666 -20.5 111.999 -20.5c37.333 0 65.166 7.5 83.499 22.5s27.5 37.833 27.5 68.5c0 26.667 -9.16699 47.667 -27.5 63s-44.166 23 -77.499 23c-5.33301 0 -13.166 -0.5 -23.499 -1.5s-24.166 -2.5 -41.499 -4.5z" />
    <glyph glyph-name="egrave" unicode="&#xe8;" 
d="M365 459l0.000976562 -32.998c0 -109.333 26.5 -195 79.5 -257s126.167 -93 219.5 -93c78.667 0 148.167 18.167 208.5 54.5s112.166 91.833 155.499 166.5l66 -41c-49.333 -96 -113 -168.167 -191 -216.5s-170 -72.5 -276 -72.5c-142 0 -257.5 46.833 -346.5 140.5
s-133.5 215.5 -133.5 365.5s44.5 272.167 133.5 366.5s204.5 141.5 346.5 141.5c142.667 0 256.5 -43.167 341.5 -129.5s127.5 -202.833 127.5 -349.5c0 -4.66699 -0.333008 -11.834 -1 -21.501s-1 -16.834 -1 -21.501h-729zM365.001 547.002h429.999
c31.333 0 52.333 4.5 63 13.5s16 25.5 16 49.5c0 91.333 -20.167 162 -60.5 212s-97.166 75 -170.499 75c-93.333 0 -162 -27.667 -206 -83s-68 -144.333 -72 -267zM436 1276c-34 20.667 -56.5 37.833 -67.5 51.5s-16.5 29.167 -16.5 46.5c0 21.333 7.5 40 22.5 56
s32.833 24 53.5 24c16.667 0 34 -5.16699 52 -15.5s36 -25.5 54 -45.5l277 -301h-76z" />
    <glyph glyph-name="eacute" unicode="&#xe9;" 
d="M365 459l0.000976562 -32.998c0 -109.333 26.5 -195 79.5 -257s126.167 -93 219.5 -93c78.667 0 148.167 18.167 208.5 54.5s112.166 91.833 155.499 166.5l66 -41c-49.333 -96 -113 -168.167 -191 -216.5s-170 -72.5 -276 -72.5c-142 0 -257.5 46.833 -346.5 140.5
s-133.5 215.5 -133.5 365.5s44.5 272.167 133.5 366.5s204.5 141.5 346.5 141.5c142.667 0 256.5 -43.167 341.5 -129.5s127.5 -202.833 127.5 -349.5c0 -4.66699 -0.333008 -11.834 -1 -21.501s-1 -16.834 -1 -21.501h-729zM365.001 547.002h429.999
c31.333 0 52.333 4.5 63 13.5s16 25.5 16 49.5c0 91.333 -20.167 162 -60.5 212s-97.166 75 -170.499 75c-93.333 0 -162 -27.667 -206 -83s-68 -144.333 -72 -267zM833 1276l-301 -183.999h-74l277 301c18 20 36 35.167 54 45.5s35.333 15.5 52 15.5
c20.667 0 38.5 -8 53.5 -24s22.5 -34.667 22.5 -56c0 -17.333 -5.5 -32.833 -16.5 -46.5s-33.5 -30.834 -67.5 -51.501z" />
    <glyph glyph-name="ecircumflex" unicode="&#xea;" 
d="M365 459l0.000976562 -32.998c0 -109.333 26.5 -195 79.5 -257s126.167 -93 219.5 -93c78.667 0 148.167 18.167 208.5 54.5s112.166 91.833 155.499 166.5l66 -41c-49.333 -96 -113 -168.167 -191 -216.5s-170 -72.5 -276 -72.5c-142 0 -257.5 46.833 -346.5 140.5
s-133.5 215.5 -133.5 365.5s44.5 272.167 133.5 366.5s204.5 141.5 346.5 141.5c142.667 0 256.5 -43.167 341.5 -129.5s127.5 -202.833 127.5 -349.5c0 -4.66699 -0.333008 -11.834 -1 -21.501s-1 -16.834 -1 -21.501h-729zM365.001 547.002h429.999
c31.333 0 52.333 4.5 63 13.5s16 25.5 16 49.5c0 91.333 -20.167 162 -60.5 212s-97.166 75 -170.499 75c-93.333 0 -162 -27.667 -206 -83s-68 -144.333 -72 -267zM700 1442l229 -350h-73l-222 196l-221 -196h-73l227 350h133z" />
    <glyph glyph-name="edieresis" unicode="&#xeb;" 
d="M365 459l0.000976562 -32.998c0 -109.333 26.5 -195 79.5 -257s126.167 -93 219.5 -93c78.667 0 148.167 18.167 208.5 54.5s112.166 91.833 155.499 166.5l66 -41c-49.333 -96 -113 -168.167 -191 -216.5s-170 -72.5 -276 -72.5c-142 0 -257.5 46.833 -346.5 140.5
s-133.5 215.5 -133.5 365.5s44.5 272.167 133.5 366.5s204.5 141.5 346.5 141.5c142.667 0 256.5 -43.167 341.5 -129.5s127.5 -202.833 127.5 -349.5c0 -4.66699 -0.333008 -11.834 -1 -21.501s-1 -16.834 -1 -21.501h-729zM365.001 547.002h429.999
c31.333 0 52.333 4.5 63 13.5s16 25.5 16 49.5c0 91.333 -20.167 162 -60.5 212s-97.166 75 -170.499 75c-93.333 0 -162 -27.667 -206 -83s-68 -144.333 -72 -267zM817 1368c30 0 55.833 -11.167 77.5 -33.5s32.5 -48.833 32.5 -79.5c0 -32.667 -10.333 -59.5 -31 -80.5
s-47 -31.5 -79 -31.5c-32.667 0 -60 10.667 -82 32s-33 48 -33 80c0 30 11.5 56.333 34.5 79s49.833 34 80.5 34zM454 1368c29.333 0 55.167 -11.333 77.5 -34s33.5 -49 33.5 -79c0 -32 -10.5 -58.667 -31.5 -80s-47.5 -32 -79.5 -32c-32.667 0 -59.834 10.667 -81.501 32
s-32.5 48 -32.5 80c0 30 11.333 56.333 34 79s49.334 34 80.001 34z" />
    <glyph glyph-name="igrave" unicode="&#xec;" 
d="M197 86l267.999 4c26.667 0 45 5 55 15s15 30.333 15 61v622c0 31.333 -6.66699 52.5 -20 63.5s-37.666 16.5 -72.999 16.5h-223v80l502 25v-807c0 -31.333 4.66699 -51.833 14 -61.5s28 -14.5 56 -14.5l262 -4v-86h-856v86zM417.999 1276
c-34 20.667 -56.5 37.833 -67.5 51.5s-16.5 29.167 -16.5 46.5c0 21.333 7.5 40 22.5 56s32.833 24 53.5 24c16.667 0 34 -5.16699 52 -15.5s36 -25.5 54 -45.5l277 -301h-76z" />
    <glyph glyph-name="iacute" unicode="&#xed;" 
d="M197 86l267.999 4c26.667 0 45 5 55 15s15 30.333 15 61v622c0 31.333 -6.66699 52.5 -20 63.5s-37.666 16.5 -72.999 16.5h-223v80l502 25v-807c0 -31.333 4.66699 -51.833 14 -61.5s28 -14.5 56 -14.5l262 -4v-86h-856v86zM814.999 1276l-301 -183.999h-74l277 301
c18 20 36 35.167 54 45.5s35.333 15.5 52 15.5c20.667 0 38.5 -8 53.5 -24s22.5 -34.667 22.5 -56c0 -17.333 -5.5 -32.833 -16.5 -46.5s-33.5 -30.834 -67.5 -51.501z" />
    <glyph glyph-name="icircumflex" unicode="&#xee;" 
d="M197 86l267.999 4c26.667 0 45 5 55 15s15 30.333 15 61v622c0 31.333 -6.66699 52.5 -20 63.5s-37.666 16.5 -72.999 16.5h-223v80l502 25v-807c0 -31.333 4.66699 -51.833 14 -61.5s28 -14.5 56 -14.5l262 -4v-86h-856v86zM681.999 1442l229 -350h-73l-222 196
l-221 -196h-73l227 350h133z" />
    <glyph glyph-name="idieresis" unicode="&#xef;" 
d="M197 86l267.999 4c26.667 0 45 5 55 15s15 30.333 15 61v622c0 31.333 -6.66699 52.5 -20 63.5s-37.666 16.5 -72.999 16.5h-223v80l502 25v-807c0 -31.333 4.66699 -51.833 14 -61.5s28 -14.5 56 -14.5l262 -4v-86h-856v86zM798.999 1368
c30 0 55.833 -11.167 77.5 -33.5s32.5 -48.833 32.5 -79.5c0 -32.667 -10.333 -59.5 -31 -80.5s-47 -31.5 -79 -31.5c-32.667 0 -60 10.667 -82 32s-33 48 -33 80c0 30 11.5 56.333 34.5 79s49.833 34 80.5 34zM435.999 1368c29.333 0 55.167 -11.333 77.5 -34
s33.5 -49 33.5 -79c0 -32 -10.5 -58.667 -31.5 -80s-47.5 -32 -79.5 -32c-32.667 0 -59.834 10.667 -81.501 32s-32.5 48 -32.5 80c0 30 11.333 56.333 34 79s49.334 34 80.001 34z" />
    <glyph glyph-name="eth" unicode="&#xf0;" 
d="M743 965c-23.333 32 -47.166 62.5 -71.499 91.5s-48.833 55.833 -73.5 80.5l-387 -174l-31 63l365 164l-88.5 81.5l-118.5 104.5l47 64l155 -106.5l122 -88.5l362 162l31 -64l-330 -149c130 -114 225 -228.833 285 -344.5s90 -241.167 90 -376.5
c0 -149.333 -45 -271 -135 -365s-206.333 -141 -349 -141c-143.333 0 -259.666 46.667 -348.999 140s-134 215.333 -134 366c0 154.667 45.667 278 137 370s214.333 138 369 138c15.333 0 31.666 -1.33301 48.999 -4s35.666 -6.66699 54.999 -12zM616 897
c-94 0 -162.833 -34 -206.5 -102s-65.5 -175.333 -65.5 -322s21.833 -253.667 65.5 -321s112.5 -101 206.5 -101c96 0 165.833 33.5 209.5 100.5s65.5 174.167 65.5 321.5s-22 254.833 -66 322.5s-113.667 101.5 -209 101.5z" />
    <glyph glyph-name="ntilde" unicode="&#xf1;" 
d="M145 90c28 1.33301 46.333 6.83301 55 16.5s13 29.5 13 59.5v622c0 32.667 -6.83301 54.167 -20.5 64.5s-44.5 15.5 -92.5 15.5h-28h-25v80l342 25v-197c46.667 68.667 96.667 118.667 150 150s114.666 47 183.999 47c98.667 0 174.834 -28.333 228.501 -85
s80.5 -137.667 80.5 -243v-479c0 -30 4.16699 -49.833 12.5 -59.5s26.833 -15.167 55.5 -16.5l80 -4v-86h-486v86l84 4c28 1.33301 46.167 6.83301 54.5 16.5s12.833 29.5 13.5 59.5v487c0 61.333 -16 108.833 -48 142.5s-77.333 50.5 -136 50.5
c-88 0 -153.833 -28.5 -197.5 -85.5s-65.5 -142.5 -65.5 -256.5v-338c0 -31.333 4.5 -51.5 13.5 -60.5s27.167 -14.167 54.5 -15.5l86 -4v-86h-485v86zM549 1214c-12 2.66699 -22.833 4.83203 -32.5 6.49902s-16.5 2.5 -20.5 2.5c-28.667 0 -50.334 -6.5 -65.001 -19.5
s-27.334 -36.5 -38.001 -70.5h-57c12.667 72.667 35.834 129.334 69.501 170.001s73.834 61 120.501 61c12.667 0 24.667 -0.666992 36 -2s22.666 -3.33301 33.999 -6l109 -27c6.66699 -2 13.667 -3.5 21 -4.5s14.333 -1.5 21 -1.5c26.667 0 47.334 6.5 62.001 19.5
s26.334 35.167 35.001 66.5h57c-14 -74.667 -37.333 -131.167 -70 -169.5s-73.334 -57.5 -122.001 -57.5c-8.66699 0 -17.667 0.5 -27 1.5s-18.333 2.5 -27 4.5z" />
    <glyph glyph-name="ograve" unicode="&#xf2;" 
d="M618 897c-91.333 0 -158.5 -34.167 -201.5 -102.5s-64.5 -175.5 -64.5 -321.5c0 -145.333 21.5 -252 64.5 -320s110.167 -102 201.5 -102c92 0 159.167 33.5 201.5 100.5s63.5 174.167 63.5 321.5c0 148 -21.167 255.667 -63.5 323s-109.5 101 -201.5 101zM133 473
c0 151.333 44.833 273.833 134.5 367.5s205.834 140.5 348.501 140.5s259 -47.167 349 -141.5s135 -216.5 135 -366.5s-44.833 -271.833 -134.5 -365.5s-206.167 -140.5 -349.5 -140.5c-142.667 0 -258.834 46.667 -348.501 140s-134.5 215.333 -134.5 366zM418 1276
c-34 20.667 -56.5 37.833 -67.5 51.5s-16.5 29.167 -16.5 46.5c0 21.333 7.5 40 22.5 56s32.833 24 53.5 24c16.667 0 34 -5.16699 52 -15.5s36 -25.5 54 -45.5l277 -301h-76z" />
    <glyph glyph-name="oacute" unicode="&#xf3;" 
d="M618 897c-91.333 0 -158.5 -34.167 -201.5 -102.5s-64.5 -175.5 -64.5 -321.5c0 -145.333 21.5 -252 64.5 -320s110.167 -102 201.5 -102c92 0 159.167 33.5 201.5 100.5s63.5 174.167 63.5 321.5c0 148 -21.167 255.667 -63.5 323s-109.5 101 -201.5 101zM133 473
c0 151.333 44.833 273.833 134.5 367.5s205.834 140.5 348.501 140.5s259 -47.167 349 -141.5s135 -216.5 135 -366.5s-44.833 -271.833 -134.5 -365.5s-206.167 -140.5 -349.5 -140.5c-142.667 0 -258.834 46.667 -348.501 140s-134.5 215.333 -134.5 366zM815 1276
l-301 -183.999h-74l277 301c18 20 36 35.167 54 45.5s35.333 15.5 52 15.5c20.667 0 38.5 -8 53.5 -24s22.5 -34.667 22.5 -56c0 -17.333 -5.5 -32.833 -16.5 -46.5s-33.5 -30.834 -67.5 -51.501z" />
    <glyph glyph-name="ocircumflex" unicode="&#xf4;" 
d="M618 897c-91.333 0 -158.5 -34.167 -201.5 -102.5s-64.5 -175.5 -64.5 -321.5c0 -145.333 21.5 -252 64.5 -320s110.167 -102 201.5 -102c92 0 159.167 33.5 201.5 100.5s63.5 174.167 63.5 321.5c0 148 -21.167 255.667 -63.5 323s-109.5 101 -201.5 101zM133 473
c0 151.333 44.833 273.833 134.5 367.5s205.834 140.5 348.501 140.5s259 -47.167 349 -141.5s135 -216.5 135 -366.5s-44.833 -271.833 -134.5 -365.5s-206.167 -140.5 -349.5 -140.5c-142.667 0 -258.834 46.667 -348.501 140s-134.5 215.333 -134.5 366zM682 1442
l229 -350h-73l-222 196l-221 -196h-73l227 350h133z" />
    <glyph glyph-name="otilde" unicode="&#xf5;" 
d="M618 897c-91.333 0 -158.5 -34.167 -201.5 -102.5s-64.5 -175.5 -64.5 -321.5c0 -145.333 21.5 -252 64.5 -320s110.167 -102 201.5 -102c92 0 159.167 33.5 201.5 100.5s63.5 174.167 63.5 321.5c0 148 -21.167 255.667 -63.5 323s-109.5 101 -201.5 101zM133 473
c0 151.333 44.833 273.833 134.5 367.5s205.834 140.5 348.501 140.5s259 -47.167 349 -141.5s135 -216.5 135 -366.5s-44.833 -271.833 -134.5 -365.5s-206.167 -140.5 -349.5 -140.5c-142.667 0 -258.834 46.667 -348.501 140s-134.5 215.333 -134.5 366zM547 1214
c-12 2.66699 -22.833 4.83203 -32.5 6.49902s-16.5 2.5 -20.5 2.5c-28.667 0 -50.334 -6.5 -65.001 -19.5s-27.334 -36.5 -38.001 -70.5h-57c12.667 72.667 35.834 129.334 69.501 170.001s73.834 61 120.501 61c12.667 0 24.667 -0.666992 36 -2s22.666 -3.33301 33.999 -6
l109 -27c6.66699 -2 13.667 -3.5 21 -4.5s14.333 -1.5 21 -1.5c26.667 0 47.334 6.5 62.001 19.5s26.334 35.167 35.001 66.5h57c-14 -74.667 -37.333 -131.167 -70 -169.5s-73.334 -57.5 -122.001 -57.5c-8.66699 0 -17.667 0.5 -27 1.5s-18.333 2.5 -27 4.5z" />
    <glyph glyph-name="odieresis" unicode="&#xf6;" 
d="M618 897c-91.333 0 -158.5 -34.167 -201.5 -102.5s-64.5 -175.5 -64.5 -321.5c0 -145.333 21.5 -252 64.5 -320s110.167 -102 201.5 -102c92 0 159.167 33.5 201.5 100.5s63.5 174.167 63.5 321.5c0 148 -21.167 255.667 -63.5 323s-109.5 101 -201.5 101zM133 473
c0 151.333 44.833 273.833 134.5 367.5s205.834 140.5 348.501 140.5s259 -47.167 349 -141.5s135 -216.5 135 -366.5s-44.833 -271.833 -134.5 -365.5s-206.167 -140.5 -349.5 -140.5c-142.667 0 -258.834 46.667 -348.501 140s-134.5 215.333 -134.5 366zM799 1368
c30 0 55.833 -11.167 77.5 -33.5s32.5 -48.833 32.5 -79.5c0 -32.667 -10.333 -59.5 -31 -80.5s-47 -31.5 -79 -31.5c-32.667 0 -60 10.667 -82 32s-33 48 -33 80c0 30 11.5 56.333 34.5 79s49.833 34 80.5 34zM436 1368c29.333 0 55.167 -11.333 77.5 -34
s33.5 -49 33.5 -79c0 -32 -10.5 -58.667 -31.5 -80s-47.5 -32 -79.5 -32c-32.667 0 -59.834 10.667 -81.501 32s-32.5 48 -32.5 80c0 30 11.333 56.333 34 79s49.334 34 80.001 34z" />
    <glyph glyph-name="divide" unicode="&#xf7;" 
d="M616 428c30.667 0 56.832 -11 78.499 -33s32.5 -48.667 32.5 -80c0 -30 -10.667 -55.833 -32 -77.5s-47.666 -32.5 -78.999 -32.5c-30.667 0 -56.667 10.667 -78 32s-32 47.333 -32 78c0 31.333 10.833 58 32.5 80s47.5 33 77.5 33zM167.998 705h895
c20 0 35.5 -6.5 46.5 -19.5s16.5 -31.167 16.5 -54.5c0 -24 -5.5 -42.333 -16.5 -55s-26.5 -19 -46.5 -19h-895c-20.667 0 -36.5 6.16699 -47.5 18.5s-16.5 30.833 -16.5 55.5c0 23.333 5.5 41.5 16.5 54.5s26.833 19.5 47.5 19.5zM615.998 1057
c30 0 56.001 -11.167 78.001 -33.5s33 -48.833 33 -79.5c0 -30 -10.833 -56.333 -32.5 -79s-47.834 -34 -78.501 -34c-30 0 -55.833 11.167 -77.5 33.5s-32.5 48.833 -32.5 79.5c0 31.333 10.833 58 32.5 80s47.5 33 77.5 33z" />
    <glyph glyph-name="oslash" unicode="&#xf8;" 
d="M399 172l369.001 682c-20.667 15.333 -42.834 26.333 -66.501 33s-52.167 10 -85.5 10c-92 0 -160.333 -33 -205 -99s-67 -166.667 -67 -302c0 -80.667 4.83301 -149.167 14.5 -205.5s23.167 -95.833 40.5 -118.5zM815.001 942l120.999 223h98l-145 -266
c68 -43.333 120.167 -101.666 156.5 -174.999s54.5 -157 54.5 -251c0 -150 -44.833 -271.833 -134.5 -365.5s-206.167 -140.5 -349.5 -140.5c-40 0 -76.667 3.66699 -110 11s-65.333 18.666 -96 33.999l-138 -256h-96l160 297c-65.333 41.333 -115.5 98.166 -150.5 170.499
s-52.5 155.5 -52.5 249.5c0 151.333 44.833 273.833 134.5 367.5s205.834 140.5 348.501 140.5c34.667 0 68.5 -3.16699 101.5 -9.5s65.5 -16.166 97.5 -29.499zM829 786l-372 -688c24 -16 49 -27.833 75 -35.5s54 -11.5 84 -11.5c96 0 165.833 33.5 209.5 100.5
s65.5 174.167 65.5 321.5c0 72 -5.16699 134.333 -15.5 187s-25.833 94.667 -46.5 126z" />
    <glyph glyph-name="ugrave" unicode="&#xf9;" 
d="M834 164c-49.333 -70 -100.5 -120.666 -153.5 -151.999s-113.833 -47 -182.5 -47c-98.667 0 -175 28.333 -229 85s-81 137.667 -81 243v495c0 32.667 -6.66699 54.167 -20 64.5s-43.333 15.5 -90 15.5h-31h-33v80l363 25v-688c0 -65.333 15.167 -113.833 45.5 -145.5
s76.5 -47.5 138.5 -47.5c78 0 140.833 26.167 188.5 78.5s71.5 121.166 71.5 206.499c0 0.666992 0.333008 2.66699 1 6c0.666992 11.333 1 23 1 35v370c0 32.667 -6.66699 54.167 -20 64.5s-43.333 15.5 -90 15.5h-33h-33v80l363 25v-823
c0 -27.333 7.16699 -45.833 21.5 -55.5s45.833 -14.5 94.5 -14.5h58v-80l-350 -25v189zM355 1276c-34 20.667 -56.5 37.833 -67.5 51.5s-16.5 29.167 -16.5 46.5c0 21.333 7.5 40 22.5 56s32.833 24 53.5 24c16.667 0 34 -5.16699 52 -15.5s36 -25.5 54 -45.5l277 -301h-76z
" />
    <glyph glyph-name="uacute" unicode="&#xfa;" 
d="M834 164c-49.333 -70 -100.5 -120.666 -153.5 -151.999s-113.833 -47 -182.5 -47c-98.667 0 -175 28.333 -229 85s-81 137.667 -81 243v495c0 32.667 -6.66699 54.167 -20 64.5s-43.333 15.5 -90 15.5h-31h-33v80l363 25v-688c0 -65.333 15.167 -113.833 45.5 -145.5
s76.5 -47.5 138.5 -47.5c78 0 140.833 26.167 188.5 78.5s71.5 121.166 71.5 206.499c0 0.666992 0.333008 2.66699 1 6c0.666992 11.333 1 23 1 35v370c0 32.667 -6.66699 54.167 -20 64.5s-43.333 15.5 -90 15.5h-33h-33v80l363 25v-823
c0 -27.333 7.16699 -45.833 21.5 -55.5s45.833 -14.5 94.5 -14.5h58v-80l-350 -25v189zM752 1276l-301 -183.999h-74l277 301c18 20 36 35.167 54 45.5s35.333 15.5 52 15.5c20.667 0 38.5 -8 53.5 -24s22.5 -34.667 22.5 -56c0 -17.333 -5.5 -32.833 -16.5 -46.5
s-33.5 -30.834 -67.5 -51.501z" />
    <glyph glyph-name="ucircumflex" unicode="&#xfb;" 
d="M834 164c-49.333 -70 -100.5 -120.666 -153.5 -151.999s-113.833 -47 -182.5 -47c-98.667 0 -175 28.333 -229 85s-81 137.667 -81 243v495c0 32.667 -6.66699 54.167 -20 64.5s-43.333 15.5 -90 15.5h-31h-33v80l363 25v-688c0 -65.333 15.167 -113.833 45.5 -145.5
s76.5 -47.5 138.5 -47.5c78 0 140.833 26.167 188.5 78.5s71.5 121.166 71.5 206.499c0 0.666992 0.333008 2.66699 1 6c0.666992 11.333 1 23 1 35v370c0 32.667 -6.66699 54.167 -20 64.5s-43.333 15.5 -90 15.5h-33h-33v80l363 25v-823
c0 -27.333 7.16699 -45.833 21.5 -55.5s45.833 -14.5 94.5 -14.5h58v-80l-350 -25v189zM619 1442l229 -350h-73l-222 196l-221 -196h-73l227 350h133z" />
    <glyph glyph-name="udieresis" unicode="&#xfc;" 
d="M834 164c-49.333 -70 -100.5 -120.666 -153.5 -151.999s-113.833 -47 -182.5 -47c-98.667 0 -175 28.333 -229 85s-81 137.667 -81 243v495c0 32.667 -6.66699 54.167 -20 64.5s-43.333 15.5 -90 15.5h-31h-33v80l363 25v-688c0 -65.333 15.167 -113.833 45.5 -145.5
s76.5 -47.5 138.5 -47.5c78 0 140.833 26.167 188.5 78.5s71.5 121.166 71.5 206.499c0 0.666992 0.333008 2.66699 1 6c0.666992 11.333 1 23 1 35v370c0 32.667 -6.66699 54.167 -20 64.5s-43.333 15.5 -90 15.5h-33h-33v80l363 25v-823
c0 -27.333 7.16699 -45.833 21.5 -55.5s45.833 -14.5 94.5 -14.5h58v-80l-350 -25v189zM736 1368c30 0 55.833 -11.167 77.5 -33.5s32.5 -48.833 32.5 -79.5c0 -32.667 -10.333 -59.5 -31 -80.5s-47 -31.5 -79 -31.5c-32.667 0 -60 10.667 -82 32s-33 48 -33 80
c0 30 11.5 56.333 34.5 79s49.833 34 80.5 34zM373 1368c29.333 0 55.167 -11.333 77.5 -34s33.5 -49 33.5 -79c0 -32 -10.5 -58.667 -31.5 -80s-47.5 -32 -79.5 -32c-32.667 0 -59.834 10.667 -81.501 32s-32.5 48 -32.5 80c0 30 11.333 56.333 34 79s49.334 34 80.001 34z
" />
    <glyph glyph-name="yacute" unicode="&#xfd;" 
d="M563 948l0.000976562 -85.9961h-55h-27c-16.667 0 -29.667 -3.66699 -39 -11s-14 -18 -14 -32c0 -4.66699 1.83301 -12.334 5.5 -23.001s9.5 -24.334 17.5 -41.001l217 -499l204 491c3.33301 6.66699 6 14 8 22s3 16 3 24c0 26 -8.83301 43.667 -26.5 53
s-56.5 14.666 -116.5 15.999l-1 86h396v-86c-38 0 -68.833 -8.5 -92.5 -25.5s-44.167 -45.167 -61.5 -84.5l-346 -805c-58.667 -135.333 -118.667 -231.333 -180 -288s-133.666 -85 -216.999 -85c-58 0 -104 14 -138 42s-51 65.333 -51 112c0 36 11.667 65.833 35 89.5
s52.666 35.5 87.999 35.5c33.333 0 59.5 -9.5 78.5 -28.5s28.5 -45.167 28.5 -78.5c0 -11.333 -2.83301 -22.5 -8.5 -33.5s-8.5 -17.5 -8.5 -19.5c0 -7.33301 3 -12.833 9 -16.5s15.333 -5.83398 28 -6.50098c36.667 0 78.667 29.5 126 88.5s90.666 136.833 129.999 233.5
l14 33l-325 749c-14 32.667 -31.667 55.5 -53 68.5s-52.333 19.5 -93 19.5h-12v86h477zM815.001 1276l-301 -183.999h-74l277 301c18 20 36 35.167 54 45.5s35.333 15.5 52 15.5c20.667 0 38.5 -8 53.5 -24s22.5 -34.667 22.5 -56c0 -17.333 -5.5 -32.833 -16.5 -46.5
s-33.5 -30.834 -67.5 -51.501z" />
    <glyph glyph-name="thorn" unicode="&#xfe;" 
d="M668 78c88.667 0 153.832 31.334 195.499 94.001s62.5 161.667 62.5 297c0 137.333 -19.833 237.166 -59.5 299.499s-102.5 93.5 -188.5 93.5c-95.333 0 -164.166 -30.5 -206.499 -91.5s-63.5 -161.5 -63.5 -301.5c0 -138 20.5 -237.667 61.5 -299s107.167 -92 198.5 -92
zM218.998 1223c0 34.667 -6.66699 57.667 -20 69s-42 17 -86 17h-25h-25v88l345 22v-604c39.333 56 83.5 97.667 132.5 125s104.5 41 166.5 41c124 0 226.667 -47.333 308 -142s122 -216.667 122 -366c0 -146 -41.5 -267.167 -124.5 -363.5s-185.5 -144.5 -307.5 -144.5
c-64.667 0 -120 11.5 -166 34.5s-89.667 60.833 -131 113.5v-375c0 -29.333 4.16699 -48.666 12.5 -57.999s26.833 -14.666 55.5 -15.999l87 -4v-86h-500v86l88 4c28.667 1.33301 47.167 6.66602 55.5 15.999s12.5 28.666 12.5 57.999v1485z" />
    <glyph glyph-name="ydieresis" unicode="&#xff;" 
d="M563 948l0.000976562 -85.9961h-55h-27c-16.667 0 -29.667 -3.66699 -39 -11s-14 -18 -14 -32c0 -4.66699 1.83301 -12.334 5.5 -23.001s9.5 -24.334 17.5 -41.001l217 -499l204 491c3.33301 6.66699 6 14 8 22s3 16 3 24c0 26 -8.83301 43.667 -26.5 53
s-56.5 14.666 -116.5 15.999l-1 86h396v-86c-38 0 -68.833 -8.5 -92.5 -25.5s-44.167 -45.167 -61.5 -84.5l-346 -805c-58.667 -135.333 -118.667 -231.333 -180 -288s-133.666 -85 -216.999 -85c-58 0 -104 14 -138 42s-51 65.333 -51 112c0 36 11.667 65.833 35 89.5
s52.666 35.5 87.999 35.5c33.333 0 59.5 -9.5 78.5 -28.5s28.5 -45.167 28.5 -78.5c0 -11.333 -2.83301 -22.5 -8.5 -33.5s-8.5 -17.5 -8.5 -19.5c0 -7.33301 3 -12.833 9 -16.5s15.333 -5.83398 28 -6.50098c36.667 0 78.667 29.5 126 88.5s90.666 136.833 129.999 233.5
l14 33l-325 749c-14 32.667 -31.667 55.5 -53 68.5s-52.333 19.5 -93 19.5h-12v86h477zM799.001 1368c30 0 55.833 -11.167 77.5 -33.5s32.5 -48.833 32.5 -79.5c0 -32.667 -10.333 -59.5 -31 -80.5s-47 -31.5 -79 -31.5c-32.667 0 -60 10.667 -82 32s-33 48 -33 80
c0 30 11.5 56.333 34.5 79s49.833 34 80.5 34zM436.001 1368c29.333 0 55.167 -11.333 77.5 -34s33.5 -49 33.5 -79c0 -32 -10.5 -58.667 -31.5 -80s-47.5 -32 -79.5 -32c-32.667 0 -59.834 10.667 -81.501 32s-32.5 48 -32.5 80c0 30 11.333 56.333 34 79
s49.334 34 80.001 34z" />
    <glyph glyph-name="Cacute" unicode="&#x106;" 
d="M969 1278l60.998 119.002h84l23 -561h-88c-25.333 155.333 -69.666 274 -132.999 356s-142 123 -236 123c-124.667 0 -218 -52.333 -280 -157s-93 -262 -93 -472c0 -212 31.167 -368.833 93.5 -470.5s158.166 -152.5 287.499 -152.5c100 0 182.167 35.5 246.5 106.5
s109.833 176.167 136.5 315.5l100 -12c-16.667 -158.667 -70 -283.334 -160 -374.001s-204.333 -136 -343 -136c-171.333 0 -312.5 67.667 -423.5 203s-166.5 308.666 -166.5 519.999c0 206.667 54.667 378.167 164 514.5s246.333 204.5 411 204.5
c66.667 0 126.834 -10.833 180.501 -32.5s98.834 -53.167 135.501 -94.5zM853.998 1704l-301 -183.999h-74l277 301c18 20 36 35.167 54 45.5s35.333 15.5 52 15.5c20.667 0 38.5 -8 53.5 -24s22.5 -34.667 22.5 -56c0 -17.333 -5.5 -32.833 -16.5 -46.5
s-33.5 -30.834 -67.5 -51.501z" />
    <glyph glyph-name="cacute" unicode="&#x107;" 
d="M1094 264c-40 -100.667 -94.5 -175.333 -163.5 -224s-155.167 -73 -258.5 -73c-143.333 0 -260.166 45.5 -350.499 136.5s-135.5 209.5 -135.5 355.5c0 156 47.833 282 143.5 378s221.5 144 377.5 144c103.333 0 188.833 -22.833 256.5 -68.5
s101.5 -102.834 101.5 -171.501c0 -44.667 -12.667 -80.334 -38 -107.001s-58.333 -40 -99 -40c-36 0 -65.5 10.5 -88.5 31.5s-34.5 48.167 -34.5 81.5c0 30.667 10.833 56.834 32.5 78.501s32.5 35.5 32.5 41.5c0 20.667 -15.667 37.834 -47 51.501
s-71.666 20.5 -120.999 20.5c-102 0 -177.333 -33.167 -226 -99.5s-73 -169.833 -73 -310.5c0 -134 26.333 -233.667 79 -299s133 -98 241 -98c69.333 0 127.666 17 174.999 51s86.666 86.667 117.999 158zM878 1276l-301 -183.999h-74l277 301c18 20 36 35.167 54 45.5
s35.333 15.5 52 15.5c20.667 0 38.5 -8 53.5 -24s22.5 -34.667 22.5 -56c0 -17.333 -5.5 -32.833 -16.5 -46.5s-33.5 -30.834 -67.5 -51.501z" />
    <glyph glyph-name="Ccaron" unicode="&#x10c;" 
d="M969 1278l60.998 119.002h84l23 -561h-88c-25.333 155.333 -69.666 274 -132.999 356s-142 123 -236 123c-124.667 0 -218 -52.333 -280 -157s-93 -262 -93 -472c0 -212 31.167 -368.833 93.5 -470.5s158.166 -152.5 287.499 -152.5c100 0 182.167 35.5 246.5 106.5
s109.833 176.167 136.5 315.5l100 -12c-16.667 -158.667 -70 -283.334 -160 -374.001s-204.333 -136 -343 -136c-171.333 0 -312.5 67.667 -423.5 203s-166.5 308.666 -166.5 519.999c0 206.667 54.667 378.167 164 514.5s246.333 204.5 411 204.5
c66.667 0 126.834 -10.833 180.501 -32.5s98.834 -53.167 135.501 -94.5zM654.998 1673l222 197h73l-229 -350h-133l-227 350h73z" />
    <glyph glyph-name="ccaron" unicode="&#x10d;" 
d="M1094 264c-40 -100.667 -94.5 -175.333 -163.5 -224s-155.167 -73 -258.5 -73c-143.333 0 -260.166 45.5 -350.499 136.5s-135.5 209.5 -135.5 355.5c0 156 47.833 282 143.5 378s221.5 144 377.5 144c103.333 0 188.833 -22.833 256.5 -68.5
s101.5 -102.834 101.5 -171.501c0 -44.667 -12.667 -80.334 -38 -107.001s-58.333 -40 -99 -40c-36 0 -65.5 10.5 -88.5 31.5s-34.5 48.167 -34.5 81.5c0 30.667 10.833 56.834 32.5 78.501s32.5 35.5 32.5 41.5c0 20.667 -15.667 37.834 -47 51.501
s-71.666 20.5 -120.999 20.5c-102 0 -177.333 -33.167 -226 -99.5s-73 -169.833 -73 -310.5c0 -134 26.333 -233.667 79 -299s133 -98 241 -98c69.333 0 127.666 17 174.999 51s86.666 86.667 117.999 158zM679 1245l222 197h73l-229 -350h-133l-227 350h73z" />
    <glyph glyph-name="dcroat" unicode="&#x111;" 
d="M834 152c-40.667 -61.333 -86.501 -106.833 -137.501 -136.5s-109.167 -44.5 -174.5 -44.5c-123.333 0 -225.5 47.167 -306.5 141.5s-121.5 214.5 -121.5 360.5c0 147.333 41 268.833 123 364.5s184.333 143.5 307 143.5c64.667 0 120.834 -12.167 168.501 -36.5
s91.167 -62.833 130.5 -115.5v273h-284v82h284v53c0 32 -6.66699 53 -20 63s-45.333 15 -96 15h-7c-12.667 1.33301 -23.334 2 -32.001 2c-1.33301 0 -3.66602 -0.333008 -6.99902 -1c-13.333 -0.666992 -26 -1 -38 -1v82l387 22v-235h219v-82h-219v-938
c0 -30 7.16699 -50.5 21.5 -61.5s42.5 -16.5 84.5 -16.5c4.66699 0 12.5 0.333008 23.5 1s19.5 1 25.5 1v-88l-331 -23v175zM562.999 868c-88.667 0 -153.833 -31.333 -195.5 -94s-62.5 -161.667 -62.5 -297c0 -139.333 20.5 -239.666 61.5 -300.999s107.167 -92 198.5 -92
c90 0 155.5 31.167 196.5 93.5s61.5 162.166 61.5 299.499c0 139.333 -20.5 239.333 -61.5 300s-107.167 91 -198.5 91z" />
    <glyph glyph-name="Gbreve" unicode="&#x11e;" 
d="M1210 631l0.000976562 -96.002h-96c-27.333 0 -45 -5.83301 -53 -17.5s-12 -34.5 -12 -68.5v-482h-88l-50 178c-3.33301 -48 -34.333 -89.667 -93 -125s-127.334 -53 -206.001 -53c-162 0 -292.833 65.667 -392.5 197s-149.5 305.333 -149.5 522
c0 214.667 48.833 388.5 146.5 521.5s224.167 199.5 379.5 199.5c67.333 0 131 -13.667 191 -41s92.667 -56.666 98 -87.999l49 121h90l18 -547h-94c-26.667 158.667 -67.167 275.5 -121.5 350.5s-125.166 112.5 -212.499 112.5c-104.667 0 -183 -52.167 -235 -156.5
s-78 -261.833 -78 -472.5c0 -211.333 26.5 -368.666 79.5 -471.999s133.833 -155 242.5 -155c74 0 131.333 25 172 75s61 120.667 61 212v92c0 36.667 -3.83301 62 -11.5 76s-20.834 21 -39.501 21h-14h-101v96h520zM850.001 1835h65.002
c-12.667 -91.333 -44.834 -161 -96.501 -209s-119.834 -72 -204.501 -72c-84 0 -151.167 23.833 -201.5 71.5s-82.833 117.5 -97.5 209.5h66c12 -47.333 35.833 -81.333 71.5 -102s89.5 -31 161.5 -31s126.667 10.5 164 31.5s61.333 54.833 72 101.5z" />
    <glyph glyph-name="gbreve" unicode="&#x11f;" 
d="M465 -16c-46.667 -6.66699 -85.002 -25.499 -115.002 -56.499s-45 -68.167 -45 -111.5c0 -48 21.833 -84.333 65.5 -109s107.834 -37 192.501 -37c126.667 0 219.834 14.667 279.501 44s89.5 74.666 89.5 135.999c0 47.333 -15.833 81.5 -47.5 102.5
s-87.5 31.5 -167.5 31.5h-252zM595.998 891.001c-71.333 0 -124 -20.166 -158 -60.499s-51 -102.833 -51 -187.5c0 -80.667 17.167 -140.834 51.5 -180.501s86.833 -59.5 157.5 -59.5c72 0 124.833 19.667 158.5 59s50.5 101 50.5 185c0 83.333 -17 144.833 -51 184.5
s-86.667 59.5 -158 59.5zM888.998 928.002c36 31.333 68.002 53.498 96.002 66.498s56.667 19.5 86 19.5c40 0 70.5 -10.833 91.5 -32.5s31.5 -53.167 31.5 -94.5c0 -26 -8.5 -47.167 -25.5 -63.5s-39.167 -24.5 -66.5 -24.5c-42 0 -70 18.333 -84 55s-22.333 55 -25 55
c-4 0 -9 -1.83301 -15 -5.5s-13 -9.16699 -21 -16.5l-42 -33c25.333 -28 43.666 -57.833 54.999 -89.5s17 -69.5 17 -113.5c0 -108 -41.167 -191 -123.5 -249s-200.833 -87 -355.5 -87c-72.667 0 -123.334 -7 -152.001 -21s-43 -37.667 -43 -71
c0 -27.333 10.667 -46.833 32 -58.5s59.333 -17.5 114 -17.5h20l166 5h111c116.667 0 200.667 -20 252 -60s77 -104 77 -192c0 -105.333 -45.5 -185.666 -136.5 -240.999s-222.833 -83 -395.5 -83c-134 0 -238.167 18.833 -312.5 56.5s-111.5 89.834 -111.5 156.501
c0 46 18.333 86.167 55 120.5s87.334 58.5 152.001 72.5c-55.333 12.667 -95.5 33.5 -120.5 62.5s-37.5 68.833 -37.5 119.5c0 55.333 17.833 101.333 53.5 138s84.834 59.667 147.501 69c-56.667 25.333 -99.834 61.5 -129.501 108.5s-44.5 102.167 -44.5 165.5
c0 100.667 35.833 181.834 107.5 243.501s166.167 92.5 283.5 92.5c53.333 0 101.166 -6.33301 143.499 -19s81.833 -32.334 118.5 -59.001zM850 1407h65.002c-12.667 -91.333 -44.834 -161 -96.501 -209s-119.834 -72 -204.501 -72c-84 0 -151.167 23.833 -201.5 71.5
s-82.833 117.5 -97.5 209.5h66c12 -47.333 35.833 -81.333 71.5 -102s89.5 -31 161.5 -31s126.667 10.5 164 31.5s61.333 54.833 72 101.5z" />
    <glyph glyph-name="Idotaccent" unicode="&#x130;" 
d="M221 0v96h193c36 0 61.333 6.33301 76 19s22 35 22 67v1010c0 32 -7.33301 54.333 -22 67s-40 19 -76 19h-193v96h789v-96h-191c-36.667 0 -62.167 -6.33301 -76.5 -19s-21.5 -35 -21.5 -67v-1010c0 -32.667 7.16699 -55.167 21.5 -67.5s39.833 -18.5 76.5 -18.5h191v-96
h-789zM616 1802c32 0 59.833 -11.833 83.5 -35.5s35.5 -51.5 35.5 -83.5c0 -33.333 -11.167 -61 -33.5 -83s-50.833 -33 -85.5 -33c-33.333 0 -61 11 -83 33s-33 49.667 -33 83c0 32 11.5 59.833 34.5 83.5s50.167 35.5 81.5 35.5z" />
    <glyph glyph-name="dotlessi" unicode="&#x131;" 
d="M197 86l267.999 4c26.667 0 45 5 55 15s15 30.333 15 61v622c0 31.333 -6.66699 52.5 -20 63.5s-37.666 16.5 -72.999 16.5h-223v80l502 25v-807c0 -31.333 4.66699 -51.833 14 -61.5s28 -14.5 56 -14.5l262 -4v-86h-856v86z" />
    <glyph glyph-name="Lslash" unicode="&#x141;" 
d="M57 0v96c11.333 0 26.666 0.333008 45.999 1c103.333 0.666992 155 29.667 155 87v434l-258 -169v108l258 172v461c0 58 -50.333 87.333 -151 88h-50v96h611v-96h-72c-59.333 0 -95.666 -5.66699 -108.999 -17s-20 -35 -20 -71v-369l332 217v-110l-332 -217v-527
c0 -38 7.5 -63.167 22.5 -75.5s57.167 -18.5 126.5 -18.5c176 0 289.667 25.667 341 77s92 170.333 122 357h86l-26 -524h-1082z" />
    <glyph glyph-name="lslash" unicode="&#x142;" 
d="M465 90c26.667 0 45.001 5.00098 55.001 15.001s15 30.333 15 61v498l-342 -224v99l342 221v477c0 31.333 -6.66699 52.166 -20 62.499s-40.333 15.5 -81 15.5h-5c-12 1.33301 -23.333 2 -34 2c-2.66699 0 -9.66699 -0.333008 -21 -1
c-40.667 -0.666992 -79.334 -1 -116.001 -1v82l463 22v-577l342 223v-98l-342 -222v-579c0 -31.333 4.66699 -51.833 14 -61.5s28 -14.5 56 -14.5l260 -4v-86h-852v86z" />
    <glyph glyph-name="OE" unicode="&#x152;" 
d="M541 207v961.999c0 45.333 -8 76.833 -24 94.5s-43.667 26.5 -83 26.5c-64 0 -111.333 -49 -142 -147s-46 -250.333 -46 -457c0 -201.333 15.5 -351.666 46.5 -450.999s78.167 -149 141.5 -149c38.667 0 66.167 9.16699 82.5 27.5s24.5 49.5 24.5 93.5zM465 1374
l694.002 -0.000976562l25 -489h-94c-14 140.667 -40.833 242.334 -80.5 305.001s-96.167 94 -169.5 94c-46.667 0 -76.834 -5.33301 -90.501 -16s-20.5 -36.667 -20.5 -78v-428h4c52 0 89.167 19 111.5 57s35.166 105.667 38.499 203h90v-610h-90
c0 2.66699 -0.333008 7.16699 -1 13.5s-1 11.166 -1 14.499c0 76.667 -12 134.5 -36 173.5s-59.333 58.5 -106 58.5h-10v-498c0 -31.333 5.16699 -52.833 15.5 -64.5s33.166 -17.5 68.499 -17.5c97.333 0 166.5 25.833 207.5 77.5s74.167 169.834 99.5 354.501h86l-24 -524
h-783c-112 0 -201 61.333 -267 184s-99 290 -99 502c0 232.667 35.333 405.5 106 518.5s179.334 169.5 326.001 169.5z" />
    <glyph glyph-name="oe" unicode="&#x153;" 
d="M713 547h252.003c9.33301 0 16.666 4.83301 21.999 14.5s8 23.167 8 40.5c0 93.333 -11.833 165.833 -35.5 217.5s-56.834 77.5 -99.501 77.5c-46 0 -81.333 -29.333 -106 -88s-38.334 -146 -41.001 -262zM379.003 897c-52.667 0 -92.167 -35.5 -118.5 -106.5
s-39.5 -176.833 -39.5 -317.5c0 -139.333 13.333 -244.5 40 -315.5s66 -106.5 118 -106.5c52.667 0 92.167 34.833 118.5 104.5s39.5 175.5 39.5 317.5c0 140.667 -13.333 246.5 -40 317.5s-66 106.5 -118 106.5zM1192 459h-479.002v-35
c0 -106.667 16.167 -191.667 48.5 -255s75.5 -95 129.5 -95c39.333 0 78 18.833 116 56.5s72.333 91.167 103 160.5l80 -35c-30.667 -94.667 -74 -166.5 -130 -215.5s-122.667 -73.5 -200 -73.5c-51.333 0 -97.5 12.833 -138.5 38.5s-73.167 62.167 -96.5 109.5
c-24 -46 -57.667 -82.167 -101 -108.5s-91.666 -39.5 -144.999 -39.5c-106 0 -191.167 46 -255.5 138s-96.5 214.667 -96.5 368s32.333 276.333 97 369s149.667 139 255 139c54 0 101 -12 141 -36s75 -61 105 -111c27.333 49.333 61.333 86.166 102 110.499
s88.334 36.5 143.001 36.5c97.333 0 175.333 -43.167 234 -129.5s88 -202.166 88 -347.499v-45z" />
    <glyph glyph-name="Scedilla" unicode="&#x15e;" 
d="M147 -25l-8.00098 560h88c26.667 -158.667 77.167 -278 151.5 -358s172.166 -120 293.499 -120c89.333 0 159.833 24 211.5 72s77.5 113.667 77.5 197c0 122 -109 211.333 -327 268l-46 12c-173.333 46 -289.666 98.833 -348.999 158.5s-89 144.167 -89 253.5
c0 115.333 35.667 209 107 281s164 108 278 108c72.667 0 139 -11.5 199 -34.5s111.667 -56.5 155 -100.5l72 117h71l19 -500h-84c-32 139.333 -83.5 244.833 -154.5 316.5s-159.5 107.5 -265.5 107.5c-77.333 0 -137.333 -19.667 -180 -59s-64 -94 -64 -164
c0 -114.667 109.333 -199.334 328 -254.001l43 -11c169.333 -43.333 285.333 -97.666 348 -162.999s94 -157 94 -275c0 -134 -39.667 -237.5 -119 -310.5s-192.666 -109.5 -339.999 -109.5c-72 0 -141.167 13 -207.5 39s-118.5 60.333 -156.5 103l-76 -134h-70z
M583.999 -196l-0.000976562 196.001h63v-115c10.667 1.33301 21.334 2.33301 32.001 3s24 1 40 1c53.333 0 96 -15 128 -45s48 -70 48 -120c0 -56 -19.5 -99.833 -58.5 -131.5s-93.833 -47.5 -164.5 -47.5c-38 0 -81 6.16699 -129 18.5s-104.667 31.5 -170 57.5l37 90
c39.333 -24.667 79.666 -43.834 120.999 -57.501s78.666 -20.5 111.999 -20.5c37.333 0 65.166 7.5 83.499 22.5s27.5 37.833 27.5 68.5c0 26.667 -9.16699 47.667 -27.5 63s-44.166 23 -77.499 23c-5.33301 0 -13.166 -0.5 -23.499 -1.5s-24.166 -2.5 -41.499 -4.5z" />
    <glyph glyph-name="scedilla" unicode="&#x15f;" 
d="M360 63l-69 -94.001h-68v406h74c25.333 -102 71.333 -181.5 138 -238.5s147 -85.5 241 -85.5c70 0 126.333 16 169 48s64 74 64 126c0 74.667 -75.333 126.334 -226 155.001l-48 9c-164 32 -271.5 71 -322.5 117s-76.5 111.333 -76.5 196
c0 85.333 29.5 152.833 88.5 202.5s139.167 74.5 240.5 74.5c57.333 0 108.666 -6.33301 153.999 -19s89 -33 131 -61l59 72h64v-340h-64c-24.667 82 -66.667 145.5 -126 190.5s-130.666 67.5 -213.999 67.5c-64 0 -115.167 -12 -153.5 -36s-57.5 -55 -57.5 -93
c0 -80.667 81.333 -135 244 -163l64 -11c146 -28 245.167 -64.5 297.5 -109.5s78.5 -109.5 78.5 -193.5c0 -98.667 -33.333 -176.667 -100 -234s-158 -86 -274 -86c-57.333 0 -113 8.83301 -167 26.5s-101 42.167 -141 73.5zM584 -196.001l-0.000976562 196.001h63v-115
c10.667 1.33301 21.334 2.33301 32.001 3s24 1 40 1c53.333 0 96 -15 128 -45s48 -70 48 -120c0 -56 -19.5 -99.833 -58.5 -131.5s-93.833 -47.5 -164.5 -47.5c-38 0 -81 6.16699 -129 18.5s-104.667 31.5 -170 57.5l37 90c39.333 -24.667 79.666 -43.834 120.999 -57.501
s78.666 -20.5 111.999 -20.5c37.333 0 65.166 7.5 83.499 22.5s27.5 37.833 27.5 68.5c0 26.667 -9.16699 47.667 -27.5 63s-44.166 23 -77.499 23c-5.33301 0 -13.166 -0.5 -23.499 -1.5s-24.166 -2.5 -41.499 -4.5z" />
    <glyph glyph-name="Scaron" unicode="&#x160;" 
d="M147 -25l-8.00098 560h88c26.667 -158.667 77.167 -278 151.5 -358s172.166 -120 293.499 -120c89.333 0 159.833 24 211.5 72s77.5 113.667 77.5 197c0 122 -109 211.333 -327 268l-46 12c-173.333 46 -289.666 98.833 -348.999 158.5s-89 144.167 -89 253.5
c0 115.333 35.667 209 107 281s164 108 278 108c72.667 0 139 -11.5 199 -34.5s111.667 -56.5 155 -100.5l72 117h71l19 -500h-84c-32 139.333 -83.5 244.833 -154.5 316.5s-159.5 107.5 -265.5 107.5c-77.333 0 -137.333 -19.667 -180 -59s-64 -94 -64 -164
c0 -114.667 109.333 -199.334 328 -254.001l43 -11c169.333 -43.333 285.333 -97.666 348 -162.999s94 -157 94 -275c0 -134 -39.667 -237.5 -119 -310.5s-192.666 -109.5 -339.999 -109.5c-72 0 -141.167 13 -207.5 39s-118.5 60.333 -156.5 103l-76 -134h-70z
M615.999 1673l222 197h73l-229 -350h-133l-227 350h73z" />
    <glyph glyph-name="scaron" unicode="&#x161;" 
d="M360 63l-69 -94.001h-68v406h74c25.333 -102 71.333 -181.5 138 -238.5s147 -85.5 241 -85.5c70 0 126.333 16 169 48s64 74 64 126c0 74.667 -75.333 126.334 -226 155.001l-48 9c-164 32 -271.5 71 -322.5 117s-76.5 111.333 -76.5 196
c0 85.333 29.5 152.833 88.5 202.5s139.167 74.5 240.5 74.5c57.333 0 108.666 -6.33301 153.999 -19s89 -33 131 -61l59 72h64v-340h-64c-24.667 82 -66.667 145.5 -126 190.5s-130.666 67.5 -213.999 67.5c-64 0 -115.167 -12 -153.5 -36s-57.5 -55 -57.5 -93
c0 -80.667 81.333 -135 244 -163l64 -11c146 -28 245.167 -64.5 297.5 -109.5s78.5 -109.5 78.5 -193.5c0 -98.667 -33.333 -176.667 -100 -234s-158 -86 -274 -86c-57.333 0 -113 8.83301 -167 26.5s-101 42.167 -141 73.5zM616 1245l222 197h73l-229 -350h-133l-227 350
h73z" />
    <glyph glyph-name="Ydieresis" unicode="&#x178;" 
d="M942 96l-0.00195312 -95.999h-629v96h146c22.667 0 39.167 6.83301 49.5 20.5s15.5 35.5 15.5 65.5v385l-368 609c-27.333 45.333 -50 73.666 -68 84.999s-41.333 17 -70 17h-18v96h545v-96h-82c-33.333 0 -56.666 -3 -69.999 -9s-20 -16 -20 -30
c0 -7.33301 2.16699 -16.333 6.5 -27s10.833 -23.334 19.5 -38.001l285 -476l234 432c7.33301 14 12.833 27 16.5 39s5.5 23 5.5 33c0 27.333 -10.5 46.833 -31.5 58.5s-57.5 17.5 -109.5 17.5h-35v96h469v-96h-16c-35.333 0 -62.666 -6.16699 -81.999 -18.5
s-41.333 -40.166 -66 -83.499l-336 -598v-396c0 -33.333 6 -56 18 -68s36 -18 72 -18h119zM798.998 1796c30 0 55.833 -11.167 77.5 -33.5s32.5 -48.833 32.5 -79.5c0 -32.667 -10.333 -59.5 -31 -80.5s-47 -31.5 -79 -31.5c-32.667 0 -60 10.667 -82 32s-33 48 -33 80
c0 30 11.5 56.333 34.5 79s49.833 34 80.5 34zM435.998 1796c29.333 0 55.167 -11.333 77.5 -34s33.5 -49 33.5 -79c0 -32 -10.5 -58.667 -31.5 -80s-47.5 -32 -79.5 -32c-32.667 0 -59.834 10.667 -81.501 32s-32.5 48 -32.5 80c0 30 11.333 56.333 34 79
s49.334 34 80.001 34z" />
    <glyph glyph-name="Zcaron" unicode="&#x17d;" 
d="M698 96c105.333 0 180.501 27.667 225.501 83s81.833 170.333 110.5 345h86l-26 -524h-1008v94l774 1188h-303c-108 0 -183.833 -25.167 -227.5 -75.5s-79.834 -153.5 -108.501 -309.5h-86l31 477h942v-86l-776 -1192h366zM616.001 1673l222 197h73l-229 -350h-133
l-227 350h73z" />
    <glyph glyph-name="zcaron" unicode="&#x17e;" 
d="M971 0h-772v82l565 782h-227c-67.333 0 -119 -20.667 -155 -62s-58.333 -105.333 -67 -192h-75l20 338h725v-76l-561 -782h235c86.667 0 148.5 19.667 185.5 59s63.5 114 79.5 224h69zM616 1245l222 197h73l-229 -350h-133l-227 350h73z" />
    <glyph glyph-name="florin" unicode="&#x192;" 
d="M289 815l248.001 0.000976562c11.333 184 53.5 329 126.5 435s165.167 159 276.5 159c58.667 0 107.167 -15.167 145.5 -45.5s57.5 -69.166 57.5 -116.499c0 -33.333 -10.5 -61.5 -31.5 -84.5s-48.167 -34.5 -81.5 -34.5c-28 0 -51.333 9.33301 -70 28s-28 41.667 -28 69
c0 21.333 6.83301 40.666 20.5 57.999s20.5 28 20.5 32c0 3.33301 -3.66699 6.16602 -11 8.49902s-16.666 3.5 -27.999 3.5c-62.667 0 -112.5 -42.5 -149.5 -127.5s-61.5 -213.167 -73.5 -384.5h264v-88h-270c-23.333 -480 -67.833 -798 -133.5 -954
s-172.834 -234 -321.501 -234c-59.333 0 -107 14.667 -143 44s-54 68 -54 116c0 36 10.833 64.833 32.5 86.5s50.5 32.5 86.5 32.5c30.667 0 55 -8.66699 73 -26s27 -41 27 -71c0 -18 -5.33301 -35.5 -16 -52.5s-16 -26.5 -16 -28.5c0 -4.66699 2.83301 -9 8.5 -13
s12.167 -6 19.5 -6c123.333 0 205.666 323.667 246.999 971l9 135h-235v88z" />
    <glyph glyph-name="circumflex" unicode="&#x2c6;" 
d="M682 1442l229 -350h-73l-222 196l-221 -196h-73l227 350h133z" />
    <glyph glyph-name="caron" unicode="&#x2c7;" 
d="M616 1245l222 197h73l-229 -350h-133l-227 350h73z" />
    <glyph glyph-name="breve" unicode="&#x2d8;" 
d="M850 1407h65.002c-12.667 -91.333 -44.834 -161 -96.501 -209s-119.834 -72 -204.501 -72c-84 0 -151.167 23.833 -201.5 71.5s-82.833 117.5 -97.5 209.5h66c12 -47.333 35.833 -81.333 71.5 -102s89.5 -31 161.5 -31s126.667 10.5 164 31.5s61.333 54.833 72 101.5z
" />
    <glyph glyph-name="dotaccent" unicode="&#x2d9;" 
d="M616 1374c32 0 59.833 -11.833 83.5 -35.5s35.5 -51.5 35.5 -83.5c0 -33.333 -11.167 -61 -33.5 -83s-50.833 -33 -85.5 -33c-33.333 0 -61 11 -83 33s-33 49.667 -33 83c0 32 11.5 59.833 34.5 83.5s50.167 35.5 81.5 35.5z" />
    <glyph glyph-name="ring" unicode="&#x2da;" 
d="M616 1462c-39.333 0 -72.666 -13.667 -99.999 -41s-41 -60.666 -41 -99.999s13.667 -73 41 -101s60.666 -42 99.999 -42s72.833 13.833 100.5 41.5s41.5 61.5 41.5 101.5c0 39.333 -13.833 72.666 -41.5 99.999s-61.167 41 -100.5 41zM616 1569
c68.667 0 127.167 -24.167 175.5 -72.5s72.5 -106.833 72.5 -175.5c0 -69.333 -23.833 -128 -71.5 -176s-106.5 -72 -176.5 -72c-69.333 0 -127.833 24 -175.5 72s-71.5 106.667 -71.5 176s23.833 128 71.5 176s106.167 72 175.5 72z" />
    <glyph glyph-name="ogonek" unicode="&#x2db;" 
d="M805 -291c-24 -50 -55.1699 -88.833 -93.5029 -116.5s-80.166 -41.5 -125.499 -41.5c-47.333 0 -85.5 14.167 -114.5 42.5s-43.5 65.5 -43.5 111.5c0 56 21.333 111 64 165s108 109 196 165h47c-55.333 -42 -98.166 -85.5 -128.499 -130.5s-45.5 -86.833 -45.5 -125.5
c0 -40 7.83301 -70.833 23.5 -92.5s37.834 -32.5 66.501 -32.5c24.667 0 46.5 5.5 65.5 16.5s38.167 29.5 57.5 55.5z" />
    <glyph glyph-name="tilde" unicode="&#x2dc;" 
d="M547 1214c-12 2.66699 -22.833 4.83203 -32.5 6.49902s-16.5 2.5 -20.5 2.5c-28.667 0 -50.334 -6.5 -65.001 -19.5s-27.334 -36.5 -38.001 -70.5h-57c12.667 72.667 35.834 129.334 69.501 170.001s73.834 61 120.501 61c12.667 0 24.667 -0.666992 36 -2
s22.666 -3.33301 33.999 -6l109 -27c6.66699 -2 13.667 -3.5 21 -4.5s14.333 -1.5 21 -1.5c26.667 0 47.334 6.5 62.001 19.5s26.334 35.167 35.001 66.5h57c-14 -74.667 -37.333 -131.167 -70 -169.5s-73.334 -57.5 -122.001 -57.5c-8.66699 0 -17.667 0.5 -27 1.5
s-18.333 2.5 -27 4.5z" />
    <glyph glyph-name="hungarumlaut" unicode="&#x2dd;" 
d="M952 1280l-220.999 -188h-59l172 284c15.333 26 31.166 45.167 47.499 57.5s33.833 18.5 52.5 18.5c20 0 37 -7 51 -21s21 -31 21 -51c0 -16 -4.83301 -31.667 -14.5 -47s-26.167 -33 -49.5 -53zM674.001 1288l-186.999 -196.003h-61l131 274
c13.333 28.667 28.166 50.167 44.499 64.5s34.166 21.5 53.499 21.5c18.667 0 35.334 -7.16699 50.001 -21.5s22 -31.166 22 -50.499c0 -13.333 -4.16699 -27.166 -12.5 -41.499s-21.833 -31.166 -40.5 -50.499z" />
    <glyph glyph-name="Omega" unicode="&#x3a9;" 
d="M852 274l-0.00195312 -155.001h152v49c0 37.333 4.5 61 13.5 71s24.833 15 47.5 15c22 0 37.667 -6 47 -18s14 -34.667 14 -68v-84c0 -35.333 -6.16699 -58.166 -18.5 -68.499s-36.833 -15.5 -73.5 -15.5h-196c-62.667 0 -99.167 4.5 -109.5 13.5s-15.5 38.5 -15.5 88.5
v166c0 18.667 2 33.334 6 44.001s12 22.667 24 36l50 51c103.333 102.667 155 204.667 155 306c0 107.333 -30.667 194.833 -92 262.5s-140.666 101.5 -237.999 101.5c-101.333 0 -182.5 -33 -243.5 -99s-91.5 -153.667 -91.5 -263c0 -102 53.667 -206.333 161 -313
c8 -8.66699 14.333 -15 19 -19c26 -26 41.667 -45.5 47 -58.5s8 -34.5 8 -64.5v-23v-127c0 -50 -5.16699 -79.5 -15.5 -88.5s-46.166 -13.5 -107.499 -13.5h-196c-37.333 0 -62.5 5.5 -75.5 16.5s-19.5 33.5 -19.5 67.5v84c0 32 5 54.333 15 67s26.333 19 49 19
s38.5 -5 47.5 -15s13.5 -33.667 13.5 -71v-49h152v155c-102 70 -174.333 138.667 -217 206s-64 146.333 -64 237c0 142 47.667 258.667 143 350s218.333 137 369 137c155.333 0 281 -44.833 377 -134.5s144 -205.167 144 -346.5c0 -89.333 -21.333 -168.333 -64 -237
s-115 -139.334 -217 -212.001z" />
    <glyph glyph-name="pi" unicode="&#x3c0;" 
d="M1010 786l-144.001 -653.001h80c32 0 54.333 -4.66699 67 -14s19 -25.666 19 -48.999c0 -26 -7.33301 -44.167 -22 -54.5s-44 -15.5 -88 -15.5h-127c-29.333 0 -51.333 3.5 -66 10.5s-22 17.167 -22 30.5c0 24.667 6 62 18 112l2 7l143 626h-393l-176 -704
c-9.33301 -37.333 -20.166 -62 -32.499 -74s-29.5 -18 -51.5 -18c-26 0 -44.5 4.66699 -55.5 14s-16.5 25 -16.5 47c0 6.66699 1.33301 16.334 4 29.001s7 30.667 13 54l176 652h-115c-23.333 0 -40.666 5.16699 -51.999 15.5s-17 25.833 -17 46.5c0 28 8 47.667 24 59
s49.667 17 101 17h47h807c33.333 0 55.166 -4 65.499 -12s15.5 -22 15.5 -42c0 -30.667 -8 -52.334 -24 -65.001s-43.333 -19 -82 -19h-98z" />
    <glyph glyph-name="endash" unicode="&#x2013;" 
d="M1233 549v-125h-1233v125h1233z" />
    <glyph glyph-name="emdash" unicode="&#x2014;" 
d="M1233 549v-125h-1233v125h1233z" />
    <glyph glyph-name="quoteleft" unicode="&#x2018;" 
d="M579 1037c8.66699 2.66699 17.332 4.83203 25.999 6.49902s18 2.83398 28 3.50098c39.333 0 70 -10.5 92 -31.5s33 -50.167 33 -87.5c0 -35.333 -12.5 -65.333 -37.5 -90s-55.5 -37 -91.5 -37c-47.333 0 -86.166 19 -116.499 57s-45.5 88 -45.5 150
c0 76.667 22 148.5 66 215.5s109.333 128.167 196 183.5l47 -57c-62.667 -46.667 -111.834 -94.667 -147.501 -144s-53.5 -94.333 -53.5 -135c0.666992 -6.66699 1.33398 -12.667 2.00098 -18z" />
    <glyph glyph-name="quoteright" unicode="&#x2019;" 
d="M512 801l-45.001 59.001c64.667 48 114.334 96.333 149.001 145s52 94.667 52 138c0 5.33301 -1.33301 13.666 -4 24.999c0 1.33301 -0.333008 2.33301 -1 3c-10 -3.33301 -19.5 -5.83301 -28.5 -7.5s-17.167 -2.5 -24.5 -2.5c-38.667 0 -69.167 10.833 -91.5 32.5
s-33.5 51.167 -33.5 88.5c0 34.667 12.333 64.167 37 88.5s54 36.5 88 36.5c48.667 0 88.5 -18.5 119.5 -55.5s46.5 -84.833 46.5 -143.5c0 -79.333 -22 -153 -66 -221s-110 -130 -198 -186z" />
    <glyph glyph-name="quotesinglbase" unicode="&#x201a;" 
d="M664 -13c-10 -3.33301 -19.6689 -6.16699 -29.002 -8.5s-17.666 -3.5 -24.999 -3.5c-38.667 0 -69.167 10.833 -91.5 32.5s-33.5 51.167 -33.5 88.5c0 34.667 12.667 64.5 38 89.5s55 37.5 89 37.5c48.667 0 88.167 -18.667 118.5 -56s45.5 -85.333 45.5 -144
c0 -80 -21.667 -153.667 -65 -221s-109 -129.666 -197 -186.999l-47 59c64.667 48 114.334 96.5 149.001 145.5s52 94.833 52 137.5c0 3.33301 -0.333008 7.16602 -1 11.499s-1.66699 10.5 -3 18.5z" />
    <glyph glyph-name="quotedblleft" unicode="&#x201c;" 
d="M842 1036c8 3.33301 16.666 5.99902 25.999 7.99902s18.333 3 27 3c39.333 0 70 -10.5 92 -31.5s33 -50.167 33 -87.5c0 -35.333 -12.5 -65.333 -37.5 -90s-55.5 -37 -91.5 -37c-47.333 0 -86.166 19 -116.499 57s-45.5 88 -45.5 150c0 76 22.167 147.833 66.5 215.5
s109.5 128.834 195.5 183.501l47 -57c-62.667 -46.667 -111.667 -94.667 -147 -144s-53 -94.333 -53 -135c0 -6.66699 0.333008 -12.667 1 -18s1.66699 -11 3 -17zM316.999 1037c8.66699 2.66699 17.3311 4.83105 25.998 6.49805s18 2.83398 28 3.50098
c39.333 0 70 -10.5 92 -31.5s33 -50.167 33 -87.5c0 -35.333 -12.5 -65.333 -37.5 -90s-55.5 -37 -91.5 -37c-47.333 0 -86.166 19 -116.499 57s-45.5 88 -45.5 150c0 76 22.167 147.833 66.5 215.5s109.5 128.834 195.5 183.501l47 -57
c-63.333 -46.667 -112.666 -94.667 -147.999 -144s-53 -94.333 -53 -135c0 -6 0.333008 -11.667 1 -17s1.66699 -11 3 -17z" />
    <glyph glyph-name="quotedblright" unicode="&#x201d;" 
d="M401 1171c-10 -3.33301 -19.501 -5.83301 -28.501 -7.5s-17.167 -2.5 -24.5 -2.5c-38.667 0 -69.167 10.833 -91.5 32.5s-33.5 51.167 -33.5 88.5c0 34 12.667 63.333 38 88s55 37 89 37c48.667 0 88.167 -18.333 118.5 -55s45.5 -84.667 45.5 -144
c0 -80 -21.667 -153.667 -65 -221s-109 -129.333 -197 -186l-47 59c64.667 48 114.334 96.333 149.001 145s52 94.667 52 138c-0.666992 6 -2 14.333 -4 25c0 1.33301 -0.333008 2.33301 -1 3zM925.999 1171c-10.667 -3.33301 -20.501 -5.83301 -29.501 -7.5
s-17.167 -2.5 -24.5 -2.5c-38.667 0 -69 10.833 -91 32.5s-33 51.167 -33 88.5c0 34.667 12.167 64.167 36.5 88.5s53.5 36.5 87.5 36.5c49.333 0 89.333 -18.5 120 -55.5s46 -84.833 46 -143.5c0 -79.333 -22 -153 -66 -221s-110 -130 -198 -186l-45 59
c64.667 48 114.334 96.333 149.001 145s52 94.667 52 138c0 5.33301 -1 13.333 -3 24c-0.666992 2 -1 3.33301 -1 4z" />
    <glyph glyph-name="quotedblbase" unicode="&#x201e;" 
d="M928 -13c-10 -3.33301 -19.834 -6.16797 -29.501 -8.50098s-18.5 -3.5 -26.5 -3.5c-38.667 0 -69 10.833 -91 32.5s-33 51.167 -33 88.5c0 34.667 12.5 64.5 37.5 89.5s54.5 37.5 88.5 37.5c48.667 0 88.167 -18.667 118.5 -56s45.5 -85.333 45.5 -144
c0 -80 -21.667 -153.667 -65 -221s-109 -129.666 -197 -186.999l-47 59c64.667 48 114.334 96.5 149.001 145.5s52 94.833 52 137.5c0 8.66699 -0.166992 15 -0.5 19s-0.833008 7.66699 -1.5 11zM403.999 -13.002c-10 -3.33301 -19.834 -6.16797 -29.501 -8.50098
s-18.5 -3.5 -26.5 -3.5c-38.667 0 -69.167 10.833 -91.5 32.5s-33.5 51.167 -33.5 88.5c0 34.667 12.667 64.5 38 89.5s55 37.5 89 37.5c48.667 0 88.167 -18.667 118.5 -56s45.5 -85.333 45.5 -144c0 -80 -21.667 -153.667 -65 -221s-109 -129.666 -197 -186.999l-47 59
c64.667 48 114.334 96.5 149.001 145.5s52 94.833 52 137.5c0 8.66699 -0.333008 15.167 -1 19.5s-1 7.83301 -1 10.5z" />
    <glyph glyph-name="dagger" unicode="&#x2020;" 
d="M594 1009c-50.667 -1.33301 -105.997 -15.498 -165.997 -42.498s-102.333 -40.5 -127 -40.5c-32 0 -57.667 8.83301 -77 26.5s-29 41.5 -29 71.5c0 33.333 9.83301 59.333 29.5 78s47.167 28 82.5 28c22 0 62.833 -12.833 122.5 -38.5s113.167 -38.5 160.5 -38.5h4v28
c0 66 -14.333 134.667 -43 206s-43 112 -43 122c0 32 10 57.833 30 77.5s46.667 29.5 80 29.5c32 0 57.833 -10 77.5 -30s29.5 -45.667 29.5 -77c0 -10 -14.667 -50.167 -44 -120.5s-44 -138.166 -44 -203.499c0 -3.33301 0.333008 -8.83301 1 -16.5s1 -12.834 1 -15.501h4
c47.333 0 100.833 12.833 160.5 38.5s100.5 38.5 122.5 38.5c34.667 0 62 -9.16699 82 -27.5s30 -43.166 30 -74.499c0 -32.667 -9.66699 -57.834 -29 -75.501s-46.333 -26.5 -81 -26.5c-22.667 0 -63.834 13.333 -123.501 40s-114.834 41 -165.501 43
c0 -74.667 8 -141.334 24 -200.001s40.667 -114 74 -166c-31.333 -111.333 -54.833 -239.166 -70.5 -383.499s-23.5 -305.166 -23.5 -482.499h-51c0 159.333 -7.83301 309.666 -23.5 450.999s-39.834 279.666 -72.501 414.999c31.333 50 55.5 103.667 72.5 161
s25.5 115.666 25.5 174.999v30z" />
    <glyph glyph-name="daggerdbl" unicode="&#x2021;" 
d="M590 1055l0.00292969 19.9971c0 75.333 -13.667 148.333 -41 219s-41 109 -41 115c0 32 10 57.833 30 77.5s46.667 29.5 80 29.5c32 0 57.833 -10 77.5 -30s29.5 -45.667 29.5 -77c0 -8 -13.667 -46 -41 -114s-41 -135 -41 -201c0 -4 0.333008 -10.333 1 -19
s1 -15.334 1 -20.001c47.333 1.33301 101.166 14.166 161.499 38.499s100.166 36.5 119.499 36.5c34.667 0 62 -9.16699 82 -27.5s30 -43.166 30 -74.499c0 -32 -9.33301 -57 -28 -75s-44.667 -27 -78 -27c-24 0 -66.5 12.833 -127.5 38.5s-115.5 39.167 -163.5 40.5
c2.66699 -79.333 11.667 -148.666 27 -207.999s38.333 -112 69 -158c-30 -46 -53.167 -97.167 -69.5 -153.5s-24.5 -112.5 -24.5 -168.5v-14l1 -4c0.666992 -6.66699 1 -13.334 1 -20.001h14c36.667 0 84.334 12.833 143.001 38.5s102 38.5 130 38.5
c33.333 0 59.333 -9 78 -27s28 -43 28 -75c0 -31.333 -10 -56.166 -30 -74.499s-47.333 -27.5 -82 -27.5c-20 0 -59.667 12.333 -119 37s-114 37.334 -164 38.001v-26c0 -73.333 13.667 -144.833 41 -214.5s41 -107.5 41 -113.5c0 -32 -10 -57.667 -30 -77s-47 -29 -81 -29
c-31.333 0 -56.833 9.83301 -76.5 29.5s-29.5 45.167 -29.5 76.5c0 8.66699 13.667 46.834 41 114.501s41 134.5 41 200.5c0 4 -0.333008 10.333 -1 19s-1 15.334 -1 20.001c-46 -1.33301 -99.5 -14.5 -160.5 -39.5s-102.5 -37.5 -124.5 -37.5
c-32.667 0 -58.834 9.83301 -78.501 29.5s-29.5 45.834 -29.5 78.501c0 30 9.66699 53.833 29 71.5s45 26.5 77 26.5c24 0 66.5 -12.833 127.5 -38.5s115.5 -39.167 163.5 -40.5c-2 76.667 -10.833 144.667 -26.5 204s-38.834 112 -69.501 158
c30 48 52.833 100.5 68.5 157.5s23.5 115.833 23.5 176.5v31h-15c-36.667 0 -84.167 -13 -142.5 -39s-101.5 -39 -129.5 -39c-32 0 -57.667 8.83301 -77 26.5s-29 41.5 -29 71.5c0 33.333 9.83301 59.333 29.5 78s47.167 28 82.5 28c19.333 0 58.833 -12.333 118.5 -37
s114.5 -37.334 164.5 -38.001z" />
    <glyph glyph-name="bullet" unicode="&#x2022;" 
d="M457 684c0 44.667 15.5 82.833 46.5 114.5s68.5 47.5 112.5 47.5s81.667 -16 113 -48s47 -70 47 -114s-15.667 -81.667 -47 -113s-69 -47 -113 -47s-81.5 15.5 -112.5 46.5s-46.5 68.833 -46.5 113.5z" />
    <glyph glyph-name="ellipsis" unicode="&#x2026;" 
d="M901 96c0 34.667 12.333 64.5 37 89.5s54 37.5 88 37.5c34.667 0 64.5 -12.5 89.5 -37.5s37.5 -54.833 37.5 -89.5s-12.333 -64.5 -37 -89.5s-54.667 -37.5 -90 -37.5c-34.667 0 -64.167 12.5 -88.5 37.5s-36.5 54.833 -36.5 89.5zM80 96c0 34.667 12.167 64.5 36.5 89.5
s53.833 37.5 88.5 37.5s64.5 -12.5 89.5 -37.5s37.5 -54.833 37.5 -89.5s-12.5 -64.5 -37.5 -89.5s-54.833 -37.5 -89.5 -37.5s-64.167 12.5 -88.5 37.5s-36.5 54.833 -36.5 89.5zM489 96c0 34.667 12.667 64.5 38 89.5s55 37.5 89 37.5c34.667 0 64.167 -12.333 88.5 -37
s36.5 -54.667 36.5 -90c0 -34.667 -12 -64.5 -36 -89.5s-53.667 -37.5 -89 -37.5c-34.667 0 -64.5 12.5 -89.5 37.5s-37.5 54.833 -37.5 89.5z" />
    <glyph glyph-name="perthousand" unicode="&#x2030;" 
d="M502 1202c0 35.333 -10.168 64.002 -30.501 86.002s-47.166 33 -80.499 33c-25.333 0 -49 -8.66699 -71 -26s-46.667 -48.333 -74 -93c-37.333 -59.333 -63.5 -106 -78.5 -140s-22.5 -62.333 -22.5 -85c0 -26.667 8.83301 -47.334 26.5 -62.001s42.5 -22 74.5 -22
c64.667 0 123.5 34.167 176.5 102.5s79.5 137.166 79.5 206.499zM585.999 342.002c0 35.333 -10.167 64.001 -30.5 86.001s-47.166 33 -80.499 33c-26 0 -50.333 -8.83301 -73 -26.5s-47.334 -48.5 -74.001 -92.5c-37.333 -59.333 -63.5 -106.166 -78.5 -140.499
s-22.5 -62.5 -22.5 -84.5c0 -26.667 9.16699 -47.334 27.5 -62.001s43.5 -22 75.5 -22c64.667 0 123.5 34.167 176.5 102.5s79.5 137.166 79.5 206.499zM448.999 520.003c59.333 0 105.5 -15.5 138.5 -46.5s49.5 -74.833 49.5 -131.5c0 -91.333 -35.333 -178 -106 -260
s-148.667 -123 -234 -123c-62 0 -112 17.667 -150 53s-57 82 -57 140c0 84 38.333 166.333 115 247s158 121 244 121zM1169 342.003c0 35.333 -10.168 64.002 -30.501 86.002s-46.833 33 -79.5 33c-26.667 0 -51.167 -8.83301 -73.5 -26.5s-47.166 -48.5 -74.499 -92.5
c-34.667 -56.667 -59.667 -102.5 -75 -137.5s-23 -64.167 -23 -87.5c0 -26.667 8.83301 -47.334 26.5 -62.001s42.167 -22 73.5 -22c64.667 0 123.5 34.167 176.5 102.5s79.5 137.166 79.5 206.499zM1034 520.005c60.667 0 107.666 -15.5 140.999 -46.5
s50 -74.833 50 -131.5c0 -91.333 -35.667 -178 -107 -260s-149.666 -123 -234.999 -123c-62 0 -111.667 17.667 -149 53s-56 82 -56 140c0 84.667 38 167.167 114 247.5s156.667 120.5 242 120.5zM1118 1346l-1061 -987.999l-57 62l860 803
c-22.667 -9.33301 -47.667 -16.166 -75 -20.499s-59 -6.5 -95 -6.5c-13.333 0 -29.333 3.16699 -48 9.5s-49 20.166 -91 41.499c0 -1.33301 0.333008 -4 1 -8c2 -22 3 -36.333 3 -43c0 -86.667 -36 -170.834 -108 -252.501s-150 -122.5 -234 -122.5
c-62 0 -111.667 17.333 -149 52s-56 81 -56 139c0 84 38.5 166.667 115.5 248s157.5 122 241.5 122c26 0 52 -3.5 78 -10.5s44 -14.833 54 -23.5l1 -1c80.667 -69.333 157.667 -104 231 -104c51.333 0 102.166 12.5 152.499 37.5s109.5 67.833 177.5 128.5z" />
    <glyph glyph-name="guilsinglleft" unicode="&#x2039;" 
d="M408 473l-0.000976562 22.999c82.667 66.667 169.334 145.667 260.001 237s145 137 163 137c5.33301 0 9.83301 -2.66699 13.5 -8s5.5 -11.333 5.5 -18c0 -17.333 -22.167 -58 -66.5 -122s-104.833 -143 -181.5 -237c73.333 -87.333 133 -164.666 179 -231.999
s69 -110 69 -128c0 -6.66699 -2 -12.5 -6 -17.5s-9 -7.5 -15 -7.5c-20 0 -74.833 45.833 -164.5 137.5s-175.167 170.167 -256.5 235.5z" />
    <glyph glyph-name="guilsinglright" unicode="&#x203a;" 
d="M825 473c-80.667 -64.667 -166.334 -143 -257.001 -235s-146.334 -138 -167.001 -138c-4.66699 0 -8.83398 2.33301 -12.501 7s-5.5 10.667 -5.5 18c0 18.667 22.667 61.167 68 127.5s105.333 143.833 180 232.5c-75.333 90 -135.5 167.833 -180.5 233.5
s-67.5 107.5 -67.5 125.5c0 6.66699 1.83301 12.667 5.5 18s7.83398 8 12.501 8c18.667 0 73.334 -45.667 164.001 -137s177.334 -170.333 260.001 -237v-23z" />
    <glyph glyph-name="franc" unicode="&#x20a3;" 
d="M672 762l-53.999 -0.000976562c-28 0 -48.833 5.83301 -62.5 17.5s-20.5 28.834 -20.5 51.501c0 24.667 6.66699 43.167 20 55.5s33 18.5 59 18.5h152c18 0 31.667 -3.66699 41 -11s14 -18 14 -32v-133c42.667 60 84.5 104.333 125.5 133s83.167 43 126.5 43
c49.333 0 92 -13 128 -39s54 -56.667 54 -92c0 -24.667 -8.83301 -46.5 -26.5 -65.5s-38.167 -28.5 -61.5 -28.5c-15.333 0 -39.833 9.5 -73.5 28.5s-62.834 28.5 -87.501 28.5c-30 0 -59.167 -11.167 -87.5 -33.5s-60.833 -60.166 -97.5 -113.499v-449h129
c24 0 44 -6.5 60 -19.5s24 -28.833 24 -47.5c0 -24.667 -7.5 -43.167 -22.5 -55.5s-37.5 -18.5 -67.5 -18.5h-330c-26 0 -45.667 6 -59 18s-20 30 -20 54c0 23.333 6.83301 40.666 20.5 51.999s34.5 17 62.5 17h54v621zM401.001 140.999
c24.667 0 42.832 -5.66797 54.499 -17.001s17.5 -28.666 17.5 -51.999s-5.83301 -41.166 -17.5 -53.499s-29.167 -18.5 -52.5 -18.5h-333c-22.667 0 -39.667 6 -51 18s-17 30 -17 54c0 23.333 5.83301 40.666 17.5 51.999s29.834 17 54.501 17h63v901h-63
c-24 0 -42 6 -54 18s-18 30 -18 54s5.66699 42 17 54s28.333 18 51 18h641c25.333 0 43.833 -5.5 55.5 -16.5s17.5 -28.833 17.5 -53.5c0 -22.667 -6.16699 -40.667 -18.5 -54s-29.166 -20 -50.499 -20h-422v-358h205c26 0 44.667 -5 56 -15s17 -26 17 -48
c0 -20.667 -5.83301 -36.5 -17.5 -47.5s-28.834 -16.5 -51.501 -16.5h-209v-416h108z" />
    <glyph glyph-name="trademark" unicode="&#x2122;" 
d="M221 1058c-1.33301 -28 -5.99512 -47.167 -13.9951 -57.5s-21.667 -15.5 -41 -15.5c-18 0 -30.667 5.16699 -38 15.5s-11 27.833 -11 52.5v10l4 145c0 16.667 4.83301 29.834 14.5 39.501s22.5 14.5 38.5 14.5h338c16 0 28.667 -4.83301 38 -14.5s14.333 -22.5 15 -38.5
l6 -146v-27c0 -14.667 -4.83301 -26.834 -14.5 -36.501s-21.834 -14.5 -36.501 -14.5c-18.667 0 -31.834 5 -39.501 15s-12.167 29.333 -13.5 58l-4 93h-66v-350h37c26 0 44.167 -4.16699 54.5 -12.5s15.5 -22.833 15.5 -43.5c0 -15.333 -4.83301 -28.333 -14.5 -39
s-21.834 -16 -36.501 -16h-220c-14.667 0 -26.834 5.16699 -36.501 15.5s-14.5 23.5 -14.5 39.5c0 20.667 5.16699 35.167 15.5 43.5s29.166 12.5 56.499 12.5h35v350h-66zM860.005 993l62.002 218.999c4 16 11.5 28 22.5 36s25.167 12 42.5 12h66
c14.667 0 26.5 -5 35.5 -15s13.5 -23 13.5 -39c0 -14 -3.83301 -25.5 -11.5 -34.5s-18.834 -15.167 -33.501 -18.5l10 -352c18.667 -2.66699 32.167 -8.33398 40.5 -17.001s12.5 -21.667 12.5 -39c0 -16 -4.83301 -29.167 -14.5 -39.5s-21.834 -15.5 -36.501 -15.5h-108
c-22 0 -38.5 4.66699 -49.5 14s-16.5 23 -16.5 41c0 18.667 5.5 32.667 16.5 42s27.5 14 49.5 14h8v282l-51 -188c-6 -18 -13.167 -30.667 -21.5 -38s-20.5 -11 -36.5 -11s-28.5 3.66699 -37.5 11s-16.167 20 -21.5 38l-51 188v-282h8c23.333 0 40.333 -4.5 51 -13.5
s16 -23.167 16 -42.5c0 -18 -5.16699 -31.667 -15.5 -41s-26.166 -14 -47.499 -14h-109c-15.333 0 -27.666 5 -36.999 15s-14 23.333 -14 40c0 18 4.16699 31.333 12.5 40s21.166 14 38.499 16l10 352c-14.667 3.33301 -25.334 9.33301 -32.001 18s-10 20.334 -10 35.001
c0 16 4.5 29 13.5 39s20.833 15 35.5 15h63c18 0 32.833 -4.16699 44.5 -12.5s19.5 -20.166 23.5 -35.499z" />
    <glyph glyph-name="partialdiff" unicode="&#x2202;" 
d="M893 561c-37.333 51.333 -79.5 89.834 -126.5 115.501s-99.833 38.5 -158.5 38.5c-97.333 0 -180 -35.333 -248 -106s-102 -156.334 -102 -257.001c0 -72.667 22.333 -131 67 -175s103.667 -66 177 -66c92 0 171.667 38.5 239 115.5s118 188.5 152 334.5zM930 727.001
c5.33301 40.667 9.00098 72.168 11.001 94.501s3 41.5 3 57.5c0 92.667 -20 163.5 -60 212.5s-98.333 73.5 -175 73.5c-54 0 -110 -15 -168 -45s-91.667 -45 -101 -45c-14.667 0 -28.5 7.16699 -41.5 21.5s-19.5 29.833 -19.5 46.5c0 31.333 38.333 65.333 115 102
s158.334 55 245.001 55c112 0 199.5 -36.5 262.5 -109.5s94.5 -174.833 94.5 -305.5c0 -126.667 -17 -251.5 -51 -374.5s-78.667 -224.833 -134 -305.5c-52.667 -76.667 -114 -134.167 -184 -172.5s-148.333 -57.5 -235 -57.5c-118.667 0 -214.334 33.833 -287.001 101.5
s-109 156.167 -109 265.5c0 142 50.5 262.167 151.5 360.5s224.5 147.5 370.5 147.5c63.333 0 119.666 -9.83301 168.999 -29.5s97 -50.834 143 -93.501z" />
    <glyph glyph-name="Delta" unicode="&#x2206;" 
d="M1112 141l12.001 -0.000976562c34.667 0 58.834 -5.16699 72.501 -15.5s20.5 -28.166 20.5 -53.499c0 -23.333 -6 -41.166 -18 -53.499s-29.333 -18.5 -52 -18.5h-1061c-22.667 0 -40 6.16699 -52 18.5s-18 30.166 -18 53.499c0 26 6.83301 44 20.5 54
s37.834 15 72.501 15h12l362 944c19.333 50 35.166 81.333 47.499 94s28.166 19 47.499 19h57c43.333 0 78.666 -35.333 105.999 -106l2 -6zM606.001 1014l-332 -873h672z" />
    <glyph glyph-name="product" unicode="&#x220f;" 
d="M1081 1374l0.000976562 -1669h27c35.333 0 59.5 -5.16699 72.5 -15.5s19.5 -28.5 19.5 -54.5c0 -24 -6.16699 -41.833 -18.5 -53.5s-31.5 -17.5 -57.5 -17.5h-43h-182c-54 0 -88.333 5.16699 -103 15.5s-22 28.833 -22 55.5c0 26 8.33301 44.167 25 54.5
s46.667 15.5 90 15.5h35v1669h-611v-1669h47c37.333 0 63.833 -5.33301 79.5 -16s23.5 -28.667 23.5 -54c0 -26.667 -7.33301 -45.167 -22 -55.5s-45 -15.5 -91 -15.5h-241c-24.667 0 -42.834 5.83301 -54.501 17.5s-17.5 29.5 -17.5 53.5c0 26.667 6.83301 45 20.5 55
s40.167 15 79.5 15h19v1669h-41c-43.333 0 -72.333 5.16699 -87 15.5s-22 29.166 -22 56.499c0 24 6.16699 41.667 18.5 53s31.5 17 57.5 17h6c13.333 1.33301 25.666 2 36.999 2h983c12.667 0 26 -0.666992 40 -2h7c24.667 0 42.834 -5.83301 54.501 -17.5
s17.5 -29.167 17.5 -52.5c0 -26.667 -7.66699 -45.334 -23 -56.001s-44 -16 -86 -16h-37z" />
    <glyph glyph-name="summation" unicode="&#x2211;" 
d="M66 1356c-14.667 20 -25.501 38.332 -32.501 54.999s-10.5 31 -10.5 43c0 23.333 7 39.833 21 49.5s39 14.5 75 14.5h973c22.667 0 40.167 -6.5 52.5 -19.5s18.5 -31.167 18.5 -54.5v-371c0 -24 -6 -42.333 -18 -55s-29.667 -19 -53 -19c-28 0 -47 7.66699 -57 23
s-15 48 -15 98v256h-805l520 -731l2 -2c31.333 -45.333 47 -76.666 47 -93.999c0 -12 -3.33301 -25.667 -10 -41s-17 -32.333 -31 -51l-540 -752h837v260c0 51.333 5 84.333 15 99s28.333 22 55 22c24.667 0 42.834 -6.16699 54.501 -18.5s17.5 -31.5 17.5 -57.5v-45v-327
c0 -24 -6.33301 -42.333 -19 -55s-30.334 -19 -53.001 -19h-1014c-35.333 0 -60.166 4.66699 -74.499 14s-21.5 25 -21.5 47c0 20.667 12.667 48.334 38 83.001c5.33301 7.33301 9 12.666 11 15.999l588 823z" />
    <glyph glyph-name="minus" unicode="&#x2212;" 
d="M1092 446h-951v140h951v-140z" />
    <glyph glyph-name="fraction" unicode="&#x2215;" 
d="M1161 1092l45 -72l-1134 -737l-47 71z" />
    <glyph glyph-name="periodcentered" unicode="&#x2219;" 
d="M614 582c-32.667 0 -60.833 12.167 -84.5 36.5s-35.5 53.166 -35.5 86.499c0 32.667 11.833 60.834 35.5 84.501s51.834 35.5 84.501 35.5c33.333 0 62.166 -12.167 86.499 -36.5s36.5 -53.166 36.5 -86.499c0 -32.667 -12 -60.834 -36 -84.501s-53 -35.5 -87 -35.5z" />
    <glyph glyph-name="radical" unicode="&#x221a;" 
d="M1087 1565h162.001c23.333 0 42.5 -7 57.5 -21s22.5 -31.667 22.5 -53c0 -22 -7.33301 -39.833 -22 -53.5s-34 -20.5 -58 -20.5h-61l-555 -1456c-11.333 -30 -22.333 -50.5 -33 -61.5s-23.667 -16.5 -39 -16.5s-28.833 6.16699 -40.5 18.5s-22.167 31.5 -31.5 57.5
l-301 821l-120 -39c-1.33301 0 -3.33301 -0.333008 -6 -1c-10 -2 -17 -3 -21 -3c-20.667 0 -37.5 7 -50.5 21s-19.5 32.333 -19.5 55c0 16.667 4.83301 30.5 14.5 41.5s24.834 19.833 45.501 26.5l184 59c3.33301 1.33301 7.16602 2.33301 11.499 3s10.166 1 17.499 1
c15.333 0 28.5 -4.5 39.5 -13.5s20.167 -22.833 27.5 -41.5l252 -699z" />
    <glyph glyph-name="infinity" unicode="&#x221e;" 
d="M694 627c38 -90.667 72.168 -152.667 102.501 -186s65.833 -50 106.5 -50c47.333 0 86.166 22.333 116.499 67s45.5 103 45.5 175c0 71.333 -14 128.333 -42 171s-65.333 64 -112 64c-44 0 -83.5 -19.5 -118.5 -58.5s-67.833 -99.833 -98.5 -182.5zM537.001 635
c-37.333 89.333 -71.332 150.5 -101.999 183.5s-66.334 49.5 -107.001 49.5c-47.333 0 -86.166 -22.167 -116.499 -66.5s-45.5 -101.833 -45.5 -172.5c0 -72.667 13.833 -130.5 41.5 -173.5s64.167 -64.5 109.5 -64.5c44.667 0 84.667 19.667 120 59s68.666 101 99.999 185z
M616.002 764c31.333 78 71.501 138.169 120.501 180.502s103.833 63.5 164.5 63.5c79.333 0 147.666 -36.5 204.999 -109.5s86 -162.833 86 -269.5c0 -111.333 -27.167 -202.333 -81.5 -273s-123.5 -106 -207.5 -106c-55.333 0 -104.333 16.667 -147 50
s-90 93.666 -142 180.999c-43.333 -82.667 -87 -141.834 -131 -177.501s-94.333 -53.5 -151 -53.5c-83.333 0 -152.666 35.667 -207.999 107s-83 162 -83 272c0 115.333 26.167 207.333 78.5 276s122.5 103 210.5 103c62.667 0 116.667 -19.167 162 -57.5
s86.666 -100.5 123.999 -186.5z" />
    <glyph glyph-name="integral" unicode="&#x222b;" 
d="M954 1589c86.667 0 154.497 -8.16504 203.497 -24.498s73.5 -38.833 73.5 -67.5c0 -22.667 -6.83301 -41 -20.5 -55s-32.167 -21 -55.5 -21c-17.333 0 -51 5.16699 -101 15.5s-91.333 15.5 -124 15.5c-148 0 -226.667 -205.333 -236 -616c-2 -99.333 -4 -177.333 -6 -234
c-1.33301 -35.333 -3 -85.333 -5 -150c-8 -241.333 -16.667 -395.333 -26 -462c-14 -106.667 -52 -186.334 -114 -239.001s-148.667 -79 -260 -79c-88 0 -156.833 8.16699 -206.5 24.5s-74.5 38.833 -74.5 67.5c0 22.667 7 41 21 55s32.333 21 55 21c16 0 50 -5.5 102 -16.5
s95 -16.5 129 -16.5c146.667 0 224.334 244 233.001 732c0 30 0.333008 53.333 1 70c3.33301 181.333 7 324.166 11 428.499s9 176.833 15 217.5c18.667 117.333 58.334 202.333 119.001 255s149.334 79 266.001 79z" />
    <glyph glyph-name="approxequal" unicode="&#x2248;" 
d="M133 434c0 38 29.6689 74.833 89.002 110.5s122.666 53.5 189.999 53.5c44.667 0 113.667 -14.667 207 -44s162 -44 206 -44c44.667 0 90.667 12.333 138 37s76.666 37 87.999 37c16 0 28.167 -5 36.5 -15s12.5 -25 12.5 -45c0 -37.333 -30 -74 -90 -110
s-123 -54 -189 -54c-44.667 0 -113.5 14.333 -206.5 43s-161.833 43 -206.5 43c-45.333 0 -91.833 -11.833 -139.5 -35.5s-76.5 -35.5 -86.5 -35.5c-16 0 -28.167 5 -36.5 15s-12.5 24.667 -12.5 44zM133.002 735c0 38 29.6689 74.833 89.002 110.5
s122.666 53.5 189.999 53.5c44.667 0 113.667 -14.333 207 -43s162 -43 206 -43c44.667 0 90.667 12 138 36s76.666 36 87.999 36c16 0 28.167 -5 36.5 -15s12.5 -25 12.5 -45c0 -37.333 -30 -73.833 -90 -109.5s-123 -53.5 -189 -53.5c-44.667 0 -113.5 14.667 -206.5 44
s-161.833 44 -206.5 44c-45.333 0 -91.833 -12.333 -139.5 -37s-76.5 -37 -86.5 -37c-16 0 -28.167 5 -36.5 15s-12.5 24.667 -12.5 44z" />
    <glyph glyph-name="notequal" unicode="&#x2260;" 
d="M899 872l163.999 -0.000976562c20 0 35.5 -6.5 46.5 -19.5s16.5 -30.833 16.5 -53.5c0 -24.667 -5.33301 -43.167 -16 -55.5s-26.334 -18.5 -47.001 -18.5h-291l-162 -193h453c22 0 38 -5.5 48 -16.5s15 -28.5 15 -52.5c0 -23.333 -5.66699 -41.833 -17 -55.5
s-26.666 -20.5 -45.999 -20.5h-565l-170 -207c-8 -10 -16.5 -17.5 -25.5 -22.5s-17.833 -7.5 -26.5 -7.5c-15.333 0 -32 8.16699 -50 24.5s-27 32.5 -27 48.5c0 9.33301 2.16699 18.833 6.5 28.5s10.833 19.5 19.5 29.5l90 106h-147c-19.333 0 -34.833 6.83301 -46.5 20.5
s-17.5 32.167 -17.5 55.5c0 24.667 5 42.334 15 53.001s26.333 16 49 16h268l162 193h-430c-20.667 0 -36.5 6.16699 -47.5 18.5s-16.5 30.833 -16.5 55.5c0 24 5.5 42.167 16.5 54.5s26.833 18.5 47.5 18.5h549l172 207c8 10 16.333 17.667 25 23s17.334 8 26.001 8
c16.667 0 33.834 -8.33301 51.501 -25s26.5 -33 26.5 -49c0 -8.66699 -2.33301 -18 -7 -28s-11.334 -19.667 -20.001 -29z" />
    <glyph glyph-name="lessequal" unicode="&#x2264;" 
d="M236 285h759c23.333 0 42.5 -7 57.5 -21s22.5 -31.667 22.5 -53c0 -20 -7.83301 -37.333 -23.5 -52s-34.5 -22 -56.5 -22h-759c-24 0 -43.333 6.83301 -58 20.5s-22 31.5 -22 53.5c0 21.333 7.33301 39 22 53s34 21 58 21zM426 786l565.002 -184.001
c36 -11.333 60.667 -23.5 74 -36.5s20 -30.833 20 -53.5c0 -18 -6.16699 -32.667 -18.5 -44s-28.5 -17 -48.5 -17c-9.33301 0 -20.333 1.33301 -33 4s-26.334 6.66699 -41.001 12l-704 233c-30.667 10.667 -52.334 22.5 -65.001 35.5s-19 29.833 -19 50.5
c0 19.333 7 36.333 21 51s35 26.334 63 35.001l704 234c16 5.33301 30.333 9.33301 43 12s23 4 31 4c19.333 0 35.333 -5.66699 48 -17s19 -25.333 19 -42c0 -22.667 -6.66699 -40.5 -20 -53.5s-38 -25.167 -74 -36.5z" />
    <glyph glyph-name="greaterequal" unicode="&#x2265;" 
d="M240 285h761c24 0 43.333 -7 58 -21s22 -31.667 22 -53c0 -22 -7.33301 -39.833 -22 -53.5s-34 -20.5 -58 -20.5h-761c-22 0 -40.833 7.33301 -56.5 22s-23.5 32 -23.5 52c0 21.333 7.33301 39 22 53s34 21 58 21zM809 786l-564.998 187.001
c-34.667 11.333 -58.667 23.333 -72 36s-20 28.667 -20 48c0 20.667 5.83301 36.667 17.5 48s28.167 17 49.5 17c7.33301 0 16.166 -1.16699 26.499 -3.5s25.5 -6.5 45.5 -12.5l706 -234c28 -8.66699 49 -20.334 63 -35.001s21 -31.667 21 -51
c0 -20 -6.5 -36.833 -19.5 -50.5s-34.5 -25.5 -64.5 -35.5l-706 -233c-18 -6 -32.333 -10.167 -43 -12.5s-20.334 -3.5 -29.001 -3.5c-20.667 0 -37 5.83301 -49 17.5s-18 27.5 -18 47.5s6.83301 36.5 20.5 49.5s37.5 25.167 71.5 36.5z" />
    <glyph glyph-name="lozenge" unicode="&#x25ca;" 
d="M616 1270l-342 -727l342 -736l342 736zM616 1509l455 -966l-455 -971l-454 971z" />
    <glyph glyph-name="apple" unicode="&#xf000;" 
d="M637 992c-0.666992 3.33301 -1.16699 7.16699 -1.5 11.5s-0.5 9.83301 -0.5 16.5c0 67.333 26.333 130 79 188s117.667 94.333 195 109c0.666992 -5.33301 1.16699 -11.666 1.5 -18.999s0.5 -17.333 0.5 -30c0 -74 -28.167 -139 -84.5 -195s-112.833 -84 -169.5 -84h-6
c-2 0 -4 0.166992 -6 0.5s-4.66699 1.16602 -8 2.49902zM1188 324.001c-60.667 -132.667 -116.333 -225.667 -167 -279s-107 -80 -169 -80c-26.667 0 -62.334 8.83301 -107.001 26.5s-78.667 26.5 -102 26.5c-24 0 -59.667 -8.83301 -107 -26.5s-82 -26.5 -104 -26.5
c-35.333 0 -70.666 12 -105.999 36s-70.333 60 -105 108c-56 76.667 -99.333 157.667 -130 243s-46 167.333 -46 246c0 119.333 34.167 216.333 102.5 291s157.166 112 266.499 112c36.667 0 78.834 -9.16699 126.501 -27.5s81.167 -27.5 100.5 -27.5
c18.667 0 51.5 9.66699 98.5 29s88.5 29 124.5 29c60.667 0 115 -11 163 -33s92 -55.667 132 -101c-55.333 -36 -96.5 -75.833 -123.5 -119.5s-40.5 -93.167 -40.5 -148.5c0 -62 16.833 -117.333 50.5 -166s81.167 -86 142.5 -112z" />
    <glyph glyph-name="fi" unicode="&#xf001;" 
d="M153 92c28 1.33301 46 6.5 54 15.5s12 28.5 12 58.5v698h-166v84h170v29c0 148 39.333 258.333 118 331s197.667 109 357 109c87.333 0 156.333 -18.333 207 -55s76 -86 76 -148c0 -36 -10 -65 -30 -87s-46.333 -33 -79 -33c-30.667 0 -56.334 10.333 -77.001 31
s-31 46.334 -31 77.001c0 17.333 5.5 36.5 16.5 57.5s16.5 33.833 16.5 38.5c0 12.667 -8.66699 22.667 -26 30s-41 11 -71 11c-94.667 0 -168.167 -29.167 -220.5 -87.5s-78.5 -140.833 -78.5 -247.5c0 -15.333 0.166992 -26.833 0.5 -34.5
s1.16602 -14.834 2.49902 -21.501h217c76 0 147.833 2 215.5 6s134.834 10.333 201.501 19v-807c0 -32 4.33301 -52.333 13 -61s27 -13.667 55 -15l90 -2v-88h-508v88l96 2c28 1.33301 46.333 6.5 55 15.5s13 29.167 13 60.5v618c0 32 -6.5 53 -19.5 63s-39.833 15 -80.5 15
c-1.33301 0 -3.66602 0.333008 -6.99902 1c-10.667 0.666992 -20.667 1 -30 1h-312v-698c0 -30 4.5 -49.833 13.5 -59.5s27.5 -15.167 55.5 -16.5l87 -2v-88h-493v88z" />
    <glyph glyph-name="fl" unicode="&#xf002;" 
d="M866 948l-0.00195312 143.998h-4c-25.333 0 -46.666 9.83301 -63.999 29.5s-26 44.5 -26 74.5c0 20.667 6.16699 41.834 18.5 63.501s18.5 34.5 18.5 38.5c0 10.667 -10.333 19.834 -31 27.501s-46.667 11.5 -78 11.5c-93.333 0 -166.166 -26.333 -218.499 -79
s-78.5 -126.667 -78.5 -222v-43v-45h463zM152.998 91.998c28 1.33301 46 6.49902 54 15.499s12 28.5 12 58.5v698h-166v84h170v31c0 141.333 38.667 249.333 116 324s189 112 335 112c32 0 65.333 -2.66699 100 -8s73 -13.666 115 -24.999l164 33v-1249
c0 -32 4.16699 -52.333 12.5 -61s26.833 -13.667 55.5 -15l89 -4v-86h-508v86l96 4c28 1.33301 46.333 6.5 55 15.5s13 29.167 13 60.5v698h-463v-698c0 -30 4.5 -49.833 13.5 -59.5s27.5 -15.167 55.5 -16.5l87 -4v-86h-493v88z" />
    <glyph glyph-name=".null" horiz-adv-x="0" 
 />
    <glyph glyph-name="nonmarkingreturn" 
 />
  </font>
</defs>
</svg>
