<?xml version="1.0" encoding="utf-8"?>
<!-- Generator: Adobe Illustrator 15.0.0, SVG Export Plug-In . SVG Version: 6.00 Build 0)  -->
<!DOCTYPE svg PUBLIC "-//W3C//DTD SVG 1.1//EN" "http://www.w3.org/Graphics/SVG/1.1/DTD/svg11.dtd">
<svg version="1.1" id="Layer_1" xmlns="http://www.w3.org/2000/svg" xmlns:xlink="http://www.w3.org/1999/xlink" x="0px" y="0px"
	 width="504px" height="504px" viewBox="0 0 504 504" enable-background="new 0 0 504 504" xml:space="preserve">
<style type="text/css">
<![CDATA[
]]>
</style>
<g>
	<defs>
		<rect id="SVGID_1_" x="59.04" y="59.04" width="414.72" height="371.52"/>
	</defs>
	<clipPath id="SVGID_2_">
		<use xlink:href="#SVGID_1_"  overflow="visible"/>
	</clipPath>
	
		<polyline clip-path="url(#SVGID_2_)" fill="none" stroke="#FF0000" stroke-width="3.75" stroke-linecap="round" stroke-linejoin="round" stroke-miterlimit="10" points="
		74.4,416.8 74.48,414.82 74.55,414.82 74.63,414.82 74.71,413.83 74.78,413.83 74.86,413.83 74.94,413.83 75.01,413.83 
		75.09,413.83 75.17,413.83 75.24,413.83 75.32,413.83 75.4,413.83 75.48,413.83 75.55,413.83 75.63,412.83 75.71,412.83 
		75.78,412.83 75.86,412.83 75.94,412.83 76.01,412.83 76.09,412.83 76.17,412.83 76.24,412.83 76.32,412.83 76.4,412.83 
		76.47,411.84 76.55,411.84 76.63,411.84 76.7,411.84 76.78,411.84 76.86,411.84 76.93,411.84 77.01,411.84 77.09,411.84 
		77.17,411.84 77.24,411.84 77.32,411.84 77.4,411.84 77.47,410.85 77.55,410.85 77.63,410.85 77.7,410.85 77.78,410.85 
		77.86,410.85 77.93,410.85 78.01,410.85 78.09,410.85 78.16,410.85 78.24,409.86 78.32,409.86 78.39,409.86 78.47,409.86 
		78.55,409.86 78.62,409.86 78.7,409.86 78.78,409.86 78.86,409.86 78.93,409.86 79.01,409.86 79.09,409.86 79.16,408.87 
		79.24,408.87 79.32,408.87 79.39,408.87 79.47,408.87 79.55,407.88 79.62,407.88 79.7,407.88 79.78,407.88 79.85,407.88 
		79.93,406.89 80.01,406.89 80.08,406.89 80.16,406.89 80.24,406.89 80.31,406.89 80.39,406.89 80.47,406.89 80.55,406.89 
		80.62,406.89 80.7,406.89 80.78,405.9 80.85,405.9 80.93,405.9 81.01,405.9 81.08,405.9 81.16,405.9 81.24,405.9 81.31,405.9 
		81.39,405.9 81.47,405.9 81.54,405.9 81.62,404.9 81.7,404.9 81.77,404.9 81.85,404.9 81.93,404.9 82,404.9 82.08,404.9 
		82.16,404.9 82.24,404.9 82.31,404.9 82.39,404.9 82.47,404.9 82.54,403.91 82.62,403.91 82.7,403.91 82.77,403.91 82.85,403.91 
		82.93,403.91 83,403.91 83.08,403.91 83.16,403.91 83.23,403.91 83.31,403.91 83.39,403.91 83.46,403.91 83.54,402.92 
		83.62,402.92 83.69,402.92 83.77,402.92 83.85,402.92 83.93,402.92 84,402.92 84.08,386.07 84.16,386.07 84.23,386.07 
		84.31,386.07 84.39,385.08 84.46,384.09 84.54,382.1 84.62,382.1 84.69,382.1 84.77,382.1 84.85,381.11 84.92,381.11 85,381.11 
		85.08,381.11 85.15,381.11 85.23,381.11 85.31,381.11 85.38,381.11 85.46,381.11 85.54,381.11 85.62,381.11 85.69,381.11 
		85.77,381.11 85.85,380.12 85.92,380.12 86,380.12 86.08,380.12 86.15,380.12 86.23,380.12 86.31,380.12 86.38,380.12 
		86.46,380.12 86.54,380.12 86.61,380.12 86.69,380.12 86.77,380.12 86.84,380.12 86.92,379.13 87,379.13 87.07,379.13 
		87.15,379.13 87.23,379.13 87.3,379.13 87.38,379.13 87.46,379.13 87.54,379.13 87.61,379.13 87.69,379.13 87.77,379.13 
		87.84,379.13 87.92,378.14 88,378.14 88.07,378.14 88.15,378.14 88.23,378.14 88.3,378.14 88.38,378.14 88.46,378.14 88.53,378.14 
		88.61,378.14 88.69,378.14 88.76,378.14 88.84,378.14 88.92,377.15 88.99,377.15 89.07,376.15 89.15,376.15 89.23,376.15 
		89.3,376.15 89.38,376.15 89.46,376.15 89.53,376.15 89.61,376.15 89.69,376.15 89.76,376.15 89.84,376.15 89.92,376.15 
		89.99,375.16 90.07,375.16 90.15,375.16 90.22,375.16 90.3,374.17 90.38,374.17 90.45,374.17 90.53,374.17 90.61,373.18 
		90.68,372.19 90.76,372.19 90.84,372.19 90.92,372.19 90.99,372.19 91.07,372.19 91.15,372.19 91.22,372.19 91.3,372.19 
		91.38,372.19 91.45,372.19 91.53,372.19 91.61,372.19 91.68,372.19 91.76,372.19 91.84,372.19 91.91,372.19 91.99,371.2 
		92.07,371.2 92.14,371.2 92.22,371.2 92.3,371.2 92.37,371.2 92.45,371.2 92.53,371.2 92.61,371.2 92.68,371.2 92.76,371.2 
		92.84,371.2 92.91,371.2 92.99,371.2 93.07,371.2 93.14,371.2 93.22,371.2 93.3,371.2 93.37,371.2 93.45,370.21 93.53,370.21 
		93.6,370.21 93.68,370.21 93.76,370.21 93.83,370.21 93.91,370.21 93.99,370.21 94.06,370.21 94.14,370.21 94.22,370.21 
		94.3,369.21 94.37,369.21 94.45,369.21 94.53,369.21 94.6,369.21 94.68,369.21 94.76,369.21 94.83,369.21 94.91,368.22 
		94.99,368.22 95.06,368.22 95.14,368.22 95.22,368.22 95.29,368.22 95.37,368.22 95.45,368.22 95.52,368.22 95.6,368.22 
		95.68,368.22 95.75,368.22 95.83,368.22 95.91,368.22 95.99,366.24 96.06,366.24 96.14,366.24 96.22,366.24 96.29,366.24 
		96.37,366.24 96.45,366.24 96.52,366.24 96.6,366.24 96.68,365.25 96.75,365.25 96.83,365.25 96.91,365.25 96.98,365.25 
		97.06,365.25 97.14,365.25 97.21,365.25 97.29,365.25 97.37,365.25 97.44,365.25 97.52,365.25 97.6,365.25 97.68,365.25 
		97.75,365.25 97.83,365.25 97.91,364.26 97.98,364.26 98.06,364.26 98.14,364.26 98.21,364.26 98.29,364.26 98.37,364.26 
		98.44,364.26 98.52,364.26 98.6,364.26 98.67,364.26 98.75,364.26 98.83,364.26 98.9,364.26 98.98,364.26 99.06,364.26 
		99.13,364.26 99.21,363.27 99.29,363.27 99.36,363.27 99.44,363.27 99.52,363.27 99.6,363.27 99.67,363.27 99.75,363.27 
		99.83,363.27 99.9,363.27 99.98,363.27 100.06,363.27 100.13,363.27 100.21,363.27 100.29,363.27 100.36,363.27 100.44,363.27 
		100.52,362.28 100.59,362.28 100.67,362.28 100.75,362.28 100.82,362.28 100.9,362.28 100.98,362.28 101.05,362.28 101.13,362.28 
		101.21,362.28 101.29,362.28 101.36,362.28 101.44,362.28 101.52,362.28 101.59,362.28 101.67,362.28 101.75,362.28 101.82,361.28 
		101.9,361.28 101.98,361.28 102.05,361.28 102.13,361.28 102.21,361.28 102.28,361.28 102.36,361.28 102.44,361.28 102.51,361.28 
		102.59,361.28 102.67,361.28 102.74,361.28 102.82,361.28 102.9,361.28 102.98,361.28 103.05,361.28 103.13,361.28 103.21,361.28 
		103.28,360.29 103.36,360.29 103.44,360.29 103.51,360.29 103.59,360.29 103.67,360.29 103.74,360.29 103.82,360.29 103.9,360.29 
		103.97,360.29 104.05,360.29 104.13,360.29 104.2,360.29 104.28,360.29 104.36,360.29 104.43,360.29 104.51,360.29 104.59,359.3 
		104.67,357.32 104.74,357.32 104.82,357.32 104.9,357.32 104.97,357.32 105.05,357.32 105.13,357.32 105.2,357.32 105.28,357.32 
		105.36,356.33 105.43,356.33 105.51,356.33 105.59,356.33 105.66,356.33 105.74,356.33 105.82,356.33 105.89,356.33 105.97,356.33 
		106.05,356.33 106.12,356.33 106.2,356.33 106.28,356.33 106.36,356.33 106.43,355.34 106.51,355.34 106.59,355.34 106.66,355.34 
		106.74,355.34 106.82,355.34 106.89,355.34 106.97,355.34 107.05,355.34 107.12,355.34 107.2,355.34 107.28,355.34 107.35,355.34 
		107.43,355.34 107.51,354.34 107.58,354.34 107.66,354.34 107.74,354.34 107.81,354.34 107.89,354.34 107.97,354.34 108.05,354.34 
		108.12,354.34 108.2,354.34 108.28,354.34 108.35,354.34 108.43,354.34 108.51,354.34 108.58,354.34 108.66,353.35 108.74,353.35 
		108.81,353.35 108.89,353.35 108.97,353.35 109.04,353.35 109.12,353.35 109.2,353.35 109.27,353.35 109.35,353.35 109.43,353.35 
		109.5,353.35 109.58,353.35 109.66,353.35 109.74,353.35 109.81,352.36 109.89,352.36 109.97,352.36 110.04,352.36 110.12,352.36 
		110.2,352.36 110.27,352.36 110.35,352.36 110.43,352.36 110.5,352.36 110.58,352.36 110.66,352.36 110.73,352.36 110.81,352.36 
		110.89,352.36 110.96,351.37 111.04,351.37 111.12,351.37 111.19,351.37 111.27,351.37 111.35,351.37 111.43,351.37 111.5,351.37 
		111.58,351.37 111.66,351.37 111.73,351.37 111.81,351.37 111.89,351.37 111.96,351.37 112.04,351.37 112.12,350.38 112.19,350.38 
		112.27,350.38 112.35,350.38 112.42,350.38 112.5,350.38 112.58,350.38 112.65,350.38 112.73,350.38 112.81,350.38 112.88,350.38 
		112.96,350.38 113.04,350.38 113.11,350.38 113.19,350.38 113.27,349.39 113.35,349.39 113.42,349.39 113.5,349.39 113.58,349.39 
		113.65,349.39 113.73,349.39 113.81,349.39 113.88,349.39 113.96,349.39 114.04,349.39 114.11,349.39 114.19,349.39 114.27,349.39 
		114.34,349.39 114.42,349.39 114.5,348.4 114.57,348.4 114.65,348.4 114.73,348.4 114.8,348.4 114.88,348.4 114.96,348.4 
		115.04,348.4 115.11,348.4 115.19,348.4 115.27,348.4 115.34,348.4 115.42,348.4 115.5,348.4 115.57,348.4 115.65,347.41 
		115.73,347.41 115.8,347.41 115.88,347.41 115.96,347.41 116.03,347.41 116.11,347.41 116.19,347.41 116.26,347.41 116.34,347.41 
		116.42,347.41 116.49,347.41 116.57,347.41 116.65,347.41 116.73,347.41 116.8,346.41 116.88,346.41 116.96,346.41 117.03,346.41 
		117.11,346.41 117.19,346.41 117.26,346.41 117.34,346.41 117.42,346.41 117.49,346.41 117.57,346.41 117.65,346.41 117.72,346.41 
		117.8,345.42 117.88,345.42 117.95,345.42 118.03,345.42 118.11,345.42 118.18,345.42 118.26,345.42 118.34,345.42 118.42,345.42 
		118.49,345.42 118.57,345.42 118.65,345.42 118.72,345.42 118.8,345.42 118.88,345.42 118.95,344.43 119.03,344.43 119.11,344.43 
		119.18,344.43 119.26,344.43 119.34,344.43 119.41,344.43 119.49,344.43 119.57,344.43 119.64,344.43 119.72,344.43 119.8,344.43 
		119.87,344.43 119.95,344.43 120.03,344.43 120.11,344.43 120.18,344.43 120.26,344.43 120.34,344.43 120.41,344.43 120.49,343.44 
		120.57,343.44 120.64,343.44 120.72,343.44 120.8,343.44 120.87,343.44 120.95,343.44 121.03,343.44 121.1,343.44 121.18,343.44 
		121.26,343.44 121.33,343.44 121.41,343.44 121.49,343.44 121.56,343.44 121.64,343.44 121.72,343.44 121.8,343.44 121.87,343.44 
		121.95,343.44 122.03,343.44 122.1,342.45 122.18,342.45 122.26,342.45 122.33,342.45 122.41,342.45 122.49,342.45 122.56,342.45 
		122.64,342.45 122.72,342.45 122.79,342.45 122.87,342.45 122.95,342.45 123.02,342.45 123.1,342.45 123.18,341.46 123.25,341.46 
		123.33,341.46 123.41,341.46 123.49,341.46 123.56,341.46 123.64,341.46 123.72,341.46 123.79,341.46 123.87,341.46 123.95,341.46 
		124.02,341.46 124.1,341.46 124.18,341.46 124.25,341.46 124.33,340.47 124.41,340.47 124.48,340.47 124.56,340.47 124.64,340.47 
		124.71,340.47 124.79,340.47 124.87,340.47 124.94,340.47 125.02,340.47 125.1,340.47 125.17,340.47 125.25,340.47 125.33,340.47 
		125.41,340.47 125.48,340.47 125.56,340.47 125.64,340.47 125.71,340.47 125.79,339.47 125.87,339.47 125.94,339.47 126.02,339.47 
		126.1,339.47 126.17,339.47 126.25,339.47 126.33,339.47 126.4,339.47 126.48,339.47 126.56,339.47 126.63,339.47 126.71,339.47 
		126.79,339.47 126.86,339.47 126.94,339.47 127.02,339.47 127.1,339.47 127.17,339.47 127.25,339.47 127.33,339.47 127.4,339.47 
		127.48,339.47 127.56,339.47 127.63,338.48 127.71,338.48 127.79,338.48 127.86,338.48 127.94,338.48 128.02,338.48 128.09,338.48 
		128.17,338.48 128.25,338.48 128.32,338.48 128.4,338.48 128.48,338.48 128.55,338.48 128.63,338.48 128.71,338.48 128.79,338.48 
		128.86,338.48 128.94,338.48 129.02,338.48 129.09,338.48 129.17,338.48 129.25,338.48 129.32,338.48 129.4,337.49 129.48,337.49 
		129.55,337.49 129.63,337.49 129.71,337.49 129.78,337.49 129.86,337.49 129.94,337.49 130.01,337.49 130.09,337.49 130.17,337.49 
		130.24,337.49 130.32,337.49 130.4,337.49 130.48,337.49 130.55,337.49 130.63,337.49 130.71,337.49 130.78,337.49 130.86,337.49 
		130.94,337.49 131.01,337.49 131.09,336.5 131.17,336.5 131.24,336.5 131.32,336.5 131.4,336.5 131.47,336.5 131.55,336.5 
		131.63,336.5 131.7,336.5 131.78,336.5 131.86,336.5 131.93,336.5 132.01,336.5 132.09,335.51 132.17,335.51 132.24,335.51 
		132.32,335.51 132.4,335.51 132.47,335.51 132.55,335.51 132.63,335.51 132.7,335.51 132.78,335.51 132.86,335.51 132.93,333.53 
		133.01,333.53 133.09,333.53 133.16,333.53 133.24,333.53 133.32,333.53 133.39,333.53 133.47,333.53 133.55,333.53 133.62,333.53 
		133.7,333.53 133.78,333.53 133.86,333.53 133.93,333.53 134.01,333.53 134.09,333.53 134.16,333.53 134.24,333.53 134.32,333.53 
		134.39,333.53 134.47,333.53 134.55,333.53 134.62,333.53 134.7,333.53 134.78,333.53 134.85,332.53 134.93,332.53 135.01,332.53 
		135.08,332.53 135.16,332.53 135.24,332.53 135.31,332.53 135.39,332.53 135.47,332.53 135.55,332.53 135.62,332.53 135.7,332.53 
		135.78,332.53 135.85,332.53 135.93,332.53 136.01,332.53 136.08,332.53 136.16,332.53 136.24,332.53 136.31,332.53 136.39,332.53 
		136.47,332.53 136.54,332.53 136.62,331.54 136.7,331.54 136.77,331.54 136.85,331.54 136.93,331.54 137,331.54 137.08,331.54 
		137.16,331.54 137.23,331.54 137.31,331.54 137.39,331.54 137.47,331.54 137.54,331.54 137.62,331.54 137.7,331.54 137.77,331.54 
		137.85,331.54 137.93,331.54 138,331.54 138.08,331.54 138.16,331.54 138.23,331.54 138.31,331.54 138.39,331.54 138.46,331.54 
		138.54,330.55 138.62,330.55 138.69,330.55 138.77,330.55 138.85,330.55 138.92,330.55 139,330.55 139.08,330.55 139.16,330.55 
		139.23,330.55 139.31,330.55 139.39,330.55 139.46,330.55 139.54,330.55 139.62,330.55 139.69,330.55 139.77,330.55 139.85,330.55 
		139.92,330.55 140,330.55 140.08,330.55 140.15,330.55 140.23,330.55 140.31,330.55 140.38,330.55 140.46,330.55 140.54,329.56 
		140.61,329.56 140.69,329.56 140.77,329.56 140.85,329.56 140.92,329.56 141,329.56 141.08,329.56 141.15,329.56 141.23,329.56 
		141.31,329.56 141.38,329.56 141.46,329.56 141.54,329.56 141.61,329.56 141.69,329.56 141.77,329.56 141.84,329.56 141.92,329.56 
		142,329.56 142.07,329.56 142.15,329.56 142.23,329.56 142.3,329.56 142.38,329.56 142.46,328.57 142.54,328.57 142.61,328.57 
		142.69,328.57 142.77,328.57 142.84,328.57 142.92,328.57 143,328.57 143.07,328.57 143.15,328.57 143.23,328.57 143.3,328.57 
		143.38,328.57 143.46,328.57 143.53,328.57 143.61,328.57 143.69,328.57 143.76,328.57 143.84,328.57 143.92,328.57 143.99,328.57 
		144.07,328.57 144.15,328.57 144.23,328.57 144.3,328.57 144.38,327.58 144.46,327.58 144.53,327.58 144.61,327.58 144.69,327.58 
		144.76,327.58 144.84,327.58 144.92,327.58 144.99,327.58 145.07,327.58 145.15,327.58 145.22,327.58 145.3,327.58 145.38,327.58 
		145.45,327.58 145.53,327.58 145.61,327.58 145.68,327.58 145.76,327.58 145.84,327.58 145.92,327.58 145.99,327.58 146.07,327.58 
		146.15,327.58 146.22,327.58 146.3,327.58 146.38,326.59 146.45,326.59 146.53,326.59 146.61,326.59 146.68,326.59 146.76,326.59 
		146.84,326.59 146.91,326.59 146.99,326.59 147.07,326.59 147.14,326.59 147.22,326.59 147.3,326.59 147.37,326.59 147.45,326.59 
		147.53,326.59 147.61,326.59 147.68,326.59 147.76,326.59 147.84,326.59 147.91,326.59 147.99,326.59 148.07,326.59 148.14,325.6 
		148.22,325.6 148.3,325.6 148.37,325.6 148.45,325.6 148.53,325.6 148.6,325.6 148.68,325.6 148.76,325.6 148.83,325.6 
		148.91,325.6 148.99,325.6 149.06,325.6 149.14,325.6 149.22,325.6 149.29,325.6 149.37,325.6 149.45,325.6 149.53,325.6 
		149.6,325.6 149.68,325.6 149.76,325.6 149.83,325.6 149.91,325.6 149.99,325.6 150.06,324.6 150.14,324.6 150.22,324.6 
		150.29,324.6 150.37,324.6 150.45,324.6 150.52,324.6 150.6,324.6 150.68,324.6 150.75,324.6 150.83,324.6 150.91,324.6 
		150.98,324.6 151.06,324.6 151.14,324.6 151.22,324.6 151.29,323.61 151.37,323.61 151.45,323.61 151.52,323.61 151.6,323.61 
		151.68,323.61 151.75,323.61 151.83,323.61 151.91,323.61 151.98,323.61 152.06,323.61 152.14,323.61 152.21,323.61 152.29,323.61 
		152.37,323.61 152.44,322.62 152.52,322.62 152.6,322.62 152.67,322.62 152.75,322.62 152.83,322.62 152.91,322.62 152.98,322.62 
		153.06,322.62 153.14,322.62 153.21,322.62 153.29,322.62 153.37,322.62 153.44,322.62 153.52,322.62 153.6,322.62 153.67,321.63 
		153.75,321.63 153.83,321.63 153.9,321.63 153.98,321.63 154.06,321.63 154.13,321.63 154.21,321.63 154.29,321.63 154.36,321.63 
		154.44,321.63 154.52,321.63 154.6,321.63 154.67,321.63 154.75,321.63 154.83,321.63 154.9,320.64 154.98,320.64 155.06,320.64 
		155.13,320.64 155.21,320.64 155.29,320.64 155.36,320.64 155.44,320.64 155.52,320.64 155.59,320.64 155.67,320.64 155.75,320.64 
		155.82,320.64 155.9,320.64 155.98,320.64 156.05,320.64 156.13,319.65 156.21,319.65 156.29,319.65 156.36,319.65 156.44,319.65 
		156.52,319.65 156.59,319.65 156.67,319.65 156.75,319.65 156.82,319.65 156.9,319.65 156.98,319.65 157.05,315.68 157.13,315.68 
		157.21,315.68 157.28,315.68 157.36,314.69 157.44,314.69 157.51,314.69 157.59,314.69 157.67,314.69 157.74,314.69 157.82,314.69 
		157.9,314.69 157.98,314.69 158.05,314.69 158.13,314.69 158.21,314.69 158.28,314.69 158.36,314.69 158.44,314.69 158.51,313.7 
		158.59,313.7 158.67,313.7 158.74,313.7 158.82,313.7 158.9,313.7 158.97,313.7 159.05,313.7 159.13,313.7 159.2,313.7 
		159.28,313.7 159.36,313.7 159.43,313.7 159.51,313.7 159.59,312.71 159.67,312.71 159.74,312.71 159.82,312.71 159.9,312.71 
		159.97,312.71 160.05,312.71 160.13,312.71 160.2,312.71 160.28,312.71 160.36,312.71 160.43,312.71 160.51,312.71 160.59,312.71 
		160.66,312.71 160.74,311.72 160.82,311.72 160.89,311.72 160.97,311.72 161.05,311.72 161.12,311.72 161.2,311.72 161.28,311.72 
		161.35,311.72 161.43,311.72 161.51,311.72 161.59,311.72 161.66,311.72 161.74,311.72 161.82,311.72 161.89,310.73 161.97,310.73 
		162.05,310.73 162.12,310.73 162.2,310.73 162.28,310.73 162.35,310.73 162.43,310.73 162.51,310.73 162.58,310.73 162.66,310.73 
		162.74,310.73 162.81,310.73 162.89,310.73 162.97,310.73 163.04,309.73 163.12,309.73 163.2,309.73 163.28,309.73 163.35,309.73 
		163.43,309.73 163.51,309.73 163.58,309.73 163.66,309.73 163.74,309.73 163.81,309.73 163.89,309.73 163.97,309.73 164.04,309.73 
		164.12,309.73 164.2,308.74 164.27,308.74 164.35,308.74 164.43,308.74 164.5,308.74 164.58,308.74 164.66,308.74 164.73,308.74 
		164.81,308.74 164.89,308.74 164.97,308.74 165.04,308.74 165.12,308.74 165.2,308.74 165.27,307.75 165.35,307.75 165.43,307.75 
		165.5,307.75 165.58,307.75 165.66,307.75 165.73,307.75 165.81,307.75 165.89,307.75 165.96,307.75 166.04,307.75 166.12,307.75 
		166.19,307.75 166.27,307.75 166.35,307.75 166.42,306.76 166.5,306.76 166.58,306.76 166.66,306.76 166.73,306.76 166.81,306.76 
		166.89,306.76 166.96,306.76 167.04,306.76 167.12,306.76 167.19,306.76 167.27,306.76 167.35,306.76 167.42,306.76 167.5,305.77 
		167.58,305.77 167.65,305.77 167.73,305.77 167.81,305.77 167.88,305.77 167.96,305.77 168.04,305.77 168.11,305.77 168.19,305.77 
		168.27,305.77 168.35,305.77 168.42,305.77 168.5,305.77 168.58,305.77 168.65,304.78 168.73,304.78 168.81,304.78 168.88,304.78 
		168.96,304.78 169.04,304.78 169.11,304.78 169.19,304.78 169.27,304.78 169.34,304.78 169.42,304.78 169.5,304.78 169.57,304.78 
		169.65,304.78 169.73,304.78 169.8,303.79 169.88,303.79 169.96,303.79 170.04,303.79 170.11,303.79 170.19,303.79 170.27,303.79 
		170.34,303.79 170.42,303.79 170.5,303.79 170.57,303.79 170.65,303.79 170.73,303.79 170.8,303.79 170.88,302.79 170.96,302.79 
		171.03,302.79 171.11,302.79 171.19,302.79 171.26,302.79 171.34,302.79 171.42,302.79 171.49,302.79 171.57,302.79 171.65,302.79 
		171.73,302.79 171.8,302.79 171.88,302.79 171.96,302.79 172.03,301.8 172.11,301.8 172.19,301.8 172.26,301.8 172.34,301.8 
		172.42,301.8 172.49,301.8 172.57,301.8 172.65,301.8 172.72,301.8 172.8,301.8 172.88,301.8 172.95,301.8 173.03,301.8 
		173.11,301.8 173.18,300.81 173.26,300.81 173.34,300.81 173.42,300.81 173.49,300.81 173.57,300.81 173.65,300.81 173.72,300.81 
		173.8,300.81 173.88,300.81 173.95,300.81 174.03,300.81 174.11,300.81 174.18,300.81 174.26,300.81 174.34,299.82 174.41,299.82 
		174.49,299.82 174.57,299.82 174.64,299.82 174.72,299.82 174.8,299.82 174.87,299.82 174.95,299.82 175.03,299.82 175.1,299.82 
		175.18,299.82 175.26,299.82 175.34,299.82 175.41,298.83 175.49,298.83 175.57,298.83 175.64,298.83 175.72,298.83 175.8,298.83 
		175.87,298.83 175.95,298.83 176.03,298.83 176.1,298.83 176.18,298.83 176.26,298.83 176.33,298.83 176.41,298.83 176.49,298.83 
		176.56,297.84 176.64,297.84 176.72,297.84 176.79,297.84 176.87,297.84 176.95,297.84 177.03,297.84 177.1,297.84 177.18,297.84 
		177.26,297.84 177.33,297.84 177.41,297.84 177.49,297.84 177.56,297.84 177.64,297.84 177.72,296.85 177.79,296.85 177.87,296.85 
		177.95,296.85 178.02,296.85 178.1,296.85 178.18,296.85 178.25,296.85 178.33,296.85 178.41,296.85 178.48,296.85 178.56,296.85 
		178.64,296.85 178.72,296.85 178.79,296.85 178.87,295.85 178.95,295.85 179.02,295.85 179.1,295.85 179.18,295.85 179.25,295.85 
		179.33,295.85 179.41,295.85 179.48,295.85 179.56,295.85 179.64,295.85 179.71,295.85 179.79,295.85 179.87,295.85 179.94,294.86 
		180.02,294.86 180.1,294.86 180.17,294.86 180.25,294.86 180.33,294.86 180.41,294.86 180.48,294.86 180.56,294.86 180.64,294.86 
		180.71,294.86 180.79,294.86 180.87,294.86 180.94,294.86 181.02,294.86 181.1,294.86 181.17,293.87 181.25,293.87 181.33,293.87 
		181.4,293.87 181.48,293.87 181.56,293.87 181.63,293.87 181.71,293.87 181.79,293.87 181.86,293.87 181.94,293.87 182.02,293.87 
		182.1,293.87 182.17,293.87 182.25,293.87 182.33,293.87 182.4,293.87 182.48,293.87 182.56,293.87 182.63,293.87 182.71,293.87 
		182.79,293.87 182.86,293.87 182.94,293.87 183.02,292.88 183.09,292.88 183.17,292.88 183.25,292.88 183.32,292.88 183.4,292.88 
		183.48,292.88 183.55,292.88 183.63,292.88 183.71,292.88 183.79,292.88 183.86,292.88 183.94,292.88 184.02,292.88 184.09,292.88 
		184.17,292.88 184.25,292.88 184.32,292.88 184.4,291.89 184.48,291.89 184.55,291.89 184.63,291.89 184.71,291.89 184.78,291.89 
		184.86,291.89 184.94,291.89 185.01,291.89 185.09,291.89 185.17,291.89 185.24,291.89 185.32,291.89 185.4,291.89 185.48,291.89 
		185.55,291.89 185.63,291.89 185.71,291.89 185.78,291.89 185.86,291.89 185.94,291.89 186.01,291.89 186.09,291.89 186.17,291.89 
		186.24,291.89 186.32,290.9 186.4,290.9 186.47,290.9 186.55,290.9 186.63,290.9 186.7,290.9 186.78,290.9 186.86,290.9 
		186.93,290.9 187.01,290.9 187.09,290.9 187.16,290.9 187.24,290.9 187.32,290.9 187.4,290.9 187.47,290.9 187.55,290.9 
		187.63,290.9 187.7,290.9 187.78,290.9 187.86,290.9 187.93,290.9 188.01,290.9 188.09,290.9 188.16,290.9 188.24,289.91 
		188.32,289.91 188.39,289.91 188.47,289.91 188.55,289.91 188.62,289.91 188.7,289.91 188.78,289.91 188.85,289.91 188.93,289.91 
		189.01,289.91 189.09,289.91 189.16,289.91 189.24,289.91 189.32,289.91 189.39,289.91 189.47,289.91 189.55,289.91 189.62,289.91 
		189.7,289.91 189.78,289.91 189.85,289.91 189.93,289.91 190.01,289.91 190.08,288.92 190.16,288.92 190.24,288.92 190.31,288.92 
		190.39,288.92 190.47,288.92 190.54,288.92 190.62,288.92 190.7,288.92 190.78,288.92 190.85,288.92 190.93,288.92 191.01,288.92 
		191.08,288.92 191.16,288.92 191.24,288.92 191.31,288.92 191.39,288.92 191.47,288.92 191.54,288.92 191.62,288.92 191.7,288.92 
		191.77,288.92 191.85,288.92 191.93,288.92 192,287.92 192.08,287.92 192.16,287.92 192.23,287.92 192.31,287.92 192.39,287.92 
		192.47,287.92 192.54,287.92 192.62,287.92 192.7,287.92 192.77,287.92 192.85,287.92 192.93,287.92 193,287.92 193.08,287.92 
		193.16,287.92 193.23,287.92 193.31,287.92 193.39,287.92 193.46,287.92 193.54,287.92 193.62,287.92 193.69,287.92 193.77,287.92 
		193.85,286.93 193.92,286.93 194,286.93 194.08,286.93 194.16,286.93 194.23,286.93 194.31,286.93 194.39,286.93 194.46,286.93 
		194.54,286.93 194.62,286.93 194.69,286.93 194.77,286.93 194.85,286.93 194.92,286.93 195,286.93 195.08,286.93 195.15,286.93 
		195.23,286.93 195.31,286.93 195.38,285.94 195.46,285.94 195.54,285.94 195.61,285.94 195.69,285.94 195.77,285.94 195.85,285.94 
		195.92,285.94 196,285.94 196.08,285.94 196.15,285.94 196.23,285.94 196.31,285.94 196.38,285.94 196.46,285.94 196.54,285.94 
		196.61,285.94 196.69,285.94 196.77,285.94 196.84,285.94 196.92,285.94 197,285.94 197.07,285.94 197.15,285.94 197.23,285.94 
		197.3,285.94 197.38,284.95 197.46,284.95 197.54,284.95 197.61,284.95 197.69,284.95 197.77,284.95 197.84,284.95 197.92,284.95 
		198,284.95 198.07,284.95 198.15,284.95 198.23,284.95 198.3,284.95 198.38,284.95 198.46,284.95 198.53,284.95 198.61,284.95 
		198.69,284.95 198.76,284.95 198.84,283.96 198.92,283.96 198.99,283.96 199.07,283.96 199.15,283.96 199.22,283.96 199.3,283.96 
		199.38,283.96 199.46,283.96 199.53,283.96 199.61,283.96 199.69,283.96 199.76,283.96 199.84,283.96 199.92,282.97 199.99,282.97 
		200.07,282.97 200.15,282.97 200.22,282.97 200.3,282.97 200.38,282.97 200.45,282.97 200.53,282.97 200.61,282.97 200.68,282.97 
		200.76,282.97 200.84,282.97 200.91,282.97 200.99,282.97 201.07,281.98 201.15,281.98 201.22,281.98 201.3,281.98 201.38,281.98 
		201.45,281.98 201.53,281.98 201.61,281.98 201.68,281.98 201.76,281.98 201.84,281.98 201.91,281.98 201.99,281.98 202.07,281.98 
		202.14,281.98 202.22,280.98 202.3,280.98 202.37,280.98 202.45,280.98 202.53,280.98 202.6,280.98 202.68,280.98 202.76,280.98 
		202.84,280.98 202.91,280.98 202.99,280.98 203.07,280.98 203.14,280.98 203.22,280.98 203.3,280.98 203.37,279.99 203.45,279.99 
		203.53,279.99 203.6,279.99 203.68,279.99 203.76,279.99 203.83,279.99 203.91,279.99 203.99,279.99 204.06,279.99 204.14,279.99 
		204.22,279.99 204.29,279.99 204.37,279.99 204.45,279.99 204.53,279 204.6,279 204.68,279 204.76,279 204.83,279 204.91,279 
		204.99,279 205.06,279 205.14,279 205.22,279 205.29,279 205.37,279 205.45,279 205.52,279 205.6,279 205.68,278.01 205.75,278.01 
		205.83,278.01 205.91,278.01 205.98,278.01 206.06,278.01 206.14,278.01 206.22,278.01 206.29,278.01 206.37,278.01 206.45,278.01 
		206.52,278.01 206.6,278.01 206.68,278.01 206.75,278.01 206.83,277.02 206.91,277.02 206.98,277.02 207.06,277.02 207.14,277.02 
		207.21,277.02 207.29,277.02 207.37,277.02 207.44,277.02 207.52,277.02 207.6,277.02 207.67,277.02 207.75,277.02 207.83,277.02 
		207.91,277.02 207.98,276.03 208.06,276.03 208.14,276.03 208.21,276.03 208.29,276.03 208.37,276.03 208.44,276.03 208.52,276.03 
		208.6,276.03 208.67,276.03 208.75,276.03 208.83,276.03 208.9,276.03 208.98,276.03 209.06,276.03 209.13,275.04 209.21,275.04 
		209.29,275.04 209.36,275.04 209.44,275.04 209.52,275.04 209.6,275.04 209.67,275.04 209.75,275.04 209.83,275.04 209.9,275.04 
		209.98,275.04 210.06,275.04 210.13,275.04 210.21,275.04 210.29,275.04 210.36,275.04 210.44,275.04 210.52,274.04 210.59,274.04 
		210.67,274.04 210.75,274.04 210.82,274.04 210.9,274.04 210.98,274.04 211.05,274.04 211.13,274.04 211.21,274.04 211.28,274.04 
		211.36,274.04 211.44,274.04 211.52,274.04 211.59,274.04 211.67,274.04 211.75,274.04 211.82,274.04 211.9,274.04 211.98,274.04 
		212.05,274.04 212.13,274.04 212.21,274.04 212.28,274.04 212.36,274.04 212.44,273.05 212.51,273.05 212.59,273.05 212.67,273.05 
		212.74,273.05 212.82,273.05 212.9,273.05 212.97,273.05 213.05,273.05 213.13,273.05 213.21,273.05 213.28,273.05 213.36,273.05 
		213.44,273.05 213.51,273.05 213.59,273.05 213.67,273.05 213.74,273.05 213.82,273.05 213.9,273.05 213.97,273.05 214.05,273.05 
		214.13,273.05 214.2,273.05 214.28,273.05 214.36,273.05 214.43,272.06 214.51,272.06 214.59,272.06 214.66,272.06 214.74,272.06 
		214.82,272.06 214.9,272.06 214.97,272.06 215.05,272.06 215.13,272.06 215.2,272.06 215.28,272.06 215.36,272.06 215.43,272.06 
		215.51,272.06 215.59,272.06 215.66,272.06 215.74,272.06 215.82,272.06 215.89,272.06 215.97,272.06 216.05,272.06 216.12,272.06 
		216.2,272.06 216.28,272.06 216.35,272.06 216.43,271.07 216.51,271.07 216.59,271.07 216.66,271.07 216.74,271.07 216.82,271.07 
		216.89,271.07 216.97,271.07 217.05,271.07 217.12,271.07 217.2,271.07 217.28,271.07 217.35,271.07 217.43,271.07 217.51,271.07 
		217.58,271.07 217.66,271.07 217.74,271.07 217.81,271.07 217.89,271.07 217.97,271.07 218.04,271.07 218.12,271.07 218.2,271.07 
		218.28,271.07 218.35,270.08 218.43,270.08 218.51,270.08 218.58,270.08 218.66,270.08 218.74,270.08 218.81,270.08 218.89,270.08 
		218.97,270.08 219.04,270.08 219.12,270.08 219.2,270.08 219.27,270.08 219.35,270.08 219.43,270.08 219.5,270.08 219.58,270.08 
		219.66,270.08 219.73,270.08 219.81,270.08 219.89,270.08 219.97,270.08 220.04,270.08 220.12,269.09 220.2,269.09 220.27,269.09 
		220.35,269.09 220.43,269.09 220.5,269.09 220.58,269.09 220.66,269.09 220.73,269.09 220.81,269.09 220.89,269.09 220.96,269.09 
		221.04,269.09 221.12,269.09 221.19,269.09 221.27,269.09 221.35,269.09 221.42,269.09 221.5,269.09 221.58,269.09 221.66,269.09 
		221.73,269.09 221.81,269.09 221.89,268.1 221.96,268.1 222.04,268.1 222.12,268.1 222.19,268.1 222.27,268.1 222.35,268.1 
		222.42,268.1 222.5,268.1 222.58,268.1 222.65,268.1 222.73,268.1 222.81,268.1 222.88,268.1 222.96,268.1 223.04,268.1 
		223.11,268.1 223.19,268.1 223.27,268.1 223.34,268.1 223.42,268.1 223.5,268.1 223.58,268.1 223.65,268.1 223.73,268.1 
		223.81,268.1 223.88,267.11 223.96,267.11 224.04,267.11 224.11,267.11 224.19,267.11 224.27,267.11 224.34,267.11 224.42,267.11 
		224.5,267.11 224.57,267.11 224.65,266.11 224.73,265.12 224.8,265.12 224.88,264.13 224.96,264.13 225.03,264.13 225.11,264.13 
		225.19,264.13 225.27,264.13 225.34,264.13 225.42,264.13 225.5,264.13 225.57,264.13 225.65,264.13 225.73,264.13 225.8,264.13 
		225.88,264.13 225.96,264.13 226.03,263.14 226.11,263.14 226.19,263.14 226.26,263.14 226.34,263.14 226.42,263.14 226.49,263.14 
		226.57,263.14 226.65,263.14 226.72,263.14 226.8,263.14 226.88,263.14 226.96,263.14 227.03,263.14 227.11,262.15 227.19,262.15 
		227.26,262.15 227.34,262.15 227.42,262.15 227.49,262.15 227.57,262.15 227.65,262.15 227.72,262.15 227.8,262.15 227.88,262.15 
		227.95,262.15 228.03,262.15 228.11,262.15 228.18,262.15 228.26,261.16 228.34,261.16 228.41,261.16 228.49,261.16 228.57,261.16 
		228.65,261.16 228.72,261.16 228.8,261.16 228.88,261.16 228.95,261.16 229.03,261.16 229.11,261.16 229.18,261.16 229.26,261.16 
		229.34,261.16 229.41,260.17 229.49,260.17 229.57,260.17 229.64,260.17 229.72,260.17 229.8,260.17 229.87,260.17 229.95,260.17 
		230.03,260.17 230.1,260.17 230.18,260.17 230.26,260.17 230.34,260.17 230.41,260.17 230.49,260.17 230.57,259.17 230.64,259.17 
		230.72,259.17 230.8,259.17 230.87,259.17 230.95,259.17 231.03,259.17 231.1,259.17 231.18,259.17 231.26,259.17 231.33,259.17 
		231.41,259.17 231.49,259.17 231.56,259.17 231.64,258.18 231.72,258.18 231.79,258.18 231.87,258.18 231.95,258.18 232.03,258.18 
		232.1,258.18 232.18,258.18 232.26,258.18 232.33,258.18 232.41,258.18 232.49,258.18 232.56,258.18 232.64,258.18 232.72,258.18 
		232.79,257.19 232.87,257.19 232.95,257.19 233.02,257.19 233.1,257.19 233.18,257.19 233.25,257.19 233.33,257.19 233.41,257.19 
		233.48,257.19 233.56,257.19 233.64,257.19 233.72,257.19 233.79,257.19 233.87,256.2 233.95,256.2 234.02,256.2 234.1,256.2 
		234.18,256.2 234.25,256.2 234.33,256.2 234.41,256.2 234.48,256.2 234.56,256.2 234.64,256.2 234.71,256.2 234.79,256.2 
		234.87,256.2 234.94,255.21 235.02,255.21 235.1,255.21 235.17,255.21 235.25,255.21 235.33,255.21 235.41,255.21 235.48,255.21 
		235.56,255.21 235.64,255.21 235.71,255.21 235.79,255.21 235.87,255.21 235.94,255.21 236.02,255.21 236.1,254.22 236.17,254.22 
		236.25,254.22 236.33,254.22 236.4,254.22 236.48,254.22 236.56,254.22 236.63,254.22 236.71,254.22 236.79,254.22 236.86,254.22 
		236.94,254.22 237.02,254.22 237.09,254.22 237.17,254.22 237.25,254.22 237.33,253.23 237.4,253.23 237.48,253.23 237.56,253.23 
		237.63,253.23 237.71,253.23 237.79,253.23 237.86,253.23 237.94,253.23 238.02,253.23 238.09,253.23 238.17,253.23 238.25,253.23 
		238.32,253.23 238.4,253.23 238.48,253.23 238.55,252.24 238.63,252.24 238.71,252.24 238.78,252.24 238.86,252.24 238.94,252.24 
		239.02,252.24 239.09,252.24 239.17,252.24 239.25,252.24 239.32,252.24 239.4,252.24 239.48,252.24 239.55,252.24 239.63,252.24 
		239.71,251.24 239.78,251.24 239.86,251.24 239.94,251.24 240.01,251.24 240.09,251.24 240.17,251.24 240.24,251.24 240.32,251.24 
		240.4,251.24 240.47,251.24 240.55,251.24 240.63,251.24 240.71,251.24 240.78,251.24 240.86,251.24 240.94,250.25 241.01,250.25 
		241.09,250.25 241.17,250.25 241.24,250.25 241.32,250.25 241.4,250.25 241.47,250.25 241.55,250.25 241.63,250.25 241.7,250.25 
		241.78,250.25 241.86,250.25 241.93,250.25 242.01,250.25 242.09,250.25 242.16,249.26 242.24,249.26 242.32,249.26 242.4,249.26 
		242.47,249.26 242.55,249.26 242.63,249.26 242.7,249.26 242.78,249.26 242.86,249.26 242.93,249.26 243.01,249.26 243.09,249.26 
		243.16,249.26 243.24,249.26 243.32,248.27 243.39,248.27 243.47,248.27 243.55,248.27 243.62,248.27 243.7,248.27 243.78,248.27 
		243.85,248.27 243.93,248.27 244.01,248.27 244.09,248.27 244.16,248.27 244.24,248.27 244.32,248.27 244.39,248.27 244.47,248.27 
		244.55,247.28 244.62,247.28 244.7,247.28 244.78,247.28 244.85,247.28 244.93,247.28 245.01,247.28 245.08,247.28 245.16,247.28 
		245.24,247.28 245.31,247.28 245.39,247.28 245.47,247.28 245.54,247.28 245.62,247.28 245.7,247.28 245.78,247.28 245.85,246.29 
		245.93,246.29 246.01,246.29 246.08,246.29 246.16,246.29 246.24,246.29 246.31,246.29 246.39,246.29 246.47,246.29 246.54,246.29 
		246.62,246.29 246.7,246.29 246.77,246.29 246.85,246.29 246.93,246.29 247,245.3 247.08,245.3 247.16,245.3 247.23,245.3 
		247.31,245.3 247.39,245.3 247.47,245.3 247.54,245.3 247.62,245.3 247.7,245.3 247.77,245.3 247.85,245.3 247.93,245.3 248,245.3 
		248.08,245.3 248.16,244.3 248.23,244.3 248.31,244.3 248.39,244.3 248.46,244.3 248.54,244.3 248.62,244.3 248.69,244.3 
		248.77,244.3 248.85,244.3 248.92,244.3 249,244.3 249.08,244.3 249.15,244.3 249.23,244.3 249.31,244.3 249.39,244.3 
		249.46,244.3 249.54,244.3 249.62,244.3 249.69,244.3 249.77,244.3 249.85,243.31 249.92,243.31 250,243.31 250.08,243.31 
		250.15,243.31 250.23,243.31 250.31,243.31 250.38,243.31 250.46,243.31 250.54,243.31 250.61,243.31 250.69,243.31 250.77,243.31 
		250.84,243.31 250.92,243.31 251,243.31 251.08,243.31 251.15,243.31 251.23,243.31 251.31,243.31 251.38,243.31 251.46,243.31 
		251.54,243.31 251.61,243.31 251.69,243.31 251.77,242.32 251.84,242.32 251.92,242.32 252,242.32 252.07,242.32 252.15,242.32 
		252.23,242.32 252.3,242.32 252.38,242.32 252.46,242.32 252.53,242.32 252.61,242.32 252.69,242.32 252.77,242.32 252.84,242.32 
		252.92,242.32 253,242.32 253.07,242.32 253.15,242.32 253.23,242.32 253.3,242.32 253.38,242.32 253.46,242.32 253.53,242.32 
		253.61,242.32 253.69,241.33 253.76,241.33 253.84,241.33 253.92,241.33 253.99,241.33 254.07,241.33 254.15,241.33 254.22,241.33 
		254.3,241.33 254.38,241.33 254.46,241.33 254.53,241.33 254.61,241.33 254.69,241.33 254.76,241.33 254.84,241.33 254.92,241.33 
		254.99,241.33 255.07,241.33 255.15,240.34 255.22,240.34 255.3,240.34 255.38,240.34 255.45,240.34 255.53,240.34 255.61,240.34 
		255.68,240.34 255.76,240.34 255.84,240.34 255.91,240.34 255.99,240.34 256.07,240.34 256.15,240.34 256.22,240.34 256.3,240.34 
		256.38,240.34 256.45,240.34 256.53,240.34 256.61,240.34 256.68,240.34 256.76,240.34 256.84,240.34 256.91,240.34 256.99,239.35 
		257.07,239.35 257.14,239.35 257.22,239.35 257.3,239.35 257.37,239.35 257.45,239.35 257.53,239.35 257.6,239.35 257.68,239.35 
		257.76,239.35 257.84,239.35 257.91,239.35 257.99,239.35 258.07,239.35 258.14,239.35 258.22,239.35 258.3,239.35 258.37,239.35 
		258.45,239.35 258.53,239.35 258.6,239.35 258.68,239.35 258.76,239.35 258.83,239.35 258.91,238.36 258.99,238.36 259.06,238.36 
		259.14,238.36 259.22,238.36 259.29,238.36 259.37,238.36 259.45,238.36 259.53,238.36 259.6,238.36 259.68,238.36 259.76,238.36 
		259.83,238.36 259.91,238.36 259.99,238.36 260.06,238.36 260.14,238.36 260.22,238.36 260.29,238.36 260.37,238.36 260.45,238.36 
		260.52,238.36 260.6,238.36 260.68,238.36 260.75,238.36 260.83,237.36 260.91,237.36 260.98,237.36 261.06,237.36 261.14,237.36 
		261.21,237.36 261.29,237.36 261.37,237.36 261.45,237.36 261.52,237.36 261.6,237.36 261.68,237.36 261.75,237.36 261.83,237.36 
		261.91,237.36 261.98,237.36 262.06,237.36 262.14,237.36 262.21,237.36 262.29,237.36 262.37,237.36 262.44,237.36 262.52,237.36 
		262.6,237.36 262.67,237.36 262.75,236.37 262.83,236.37 262.9,236.37 262.98,236.37 263.06,236.37 263.14,236.37 263.21,236.37 
		263.29,236.37 263.37,236.37 263.44,236.37 263.52,236.37 263.6,236.37 263.67,236.37 263.75,236.37 263.83,236.37 263.9,236.37 
		263.98,236.37 264.06,236.37 264.13,235.38 264.21,235.38 264.29,235.38 264.36,235.38 264.44,235.38 264.52,235.38 264.59,235.38 
		264.67,235.38 264.75,235.38 264.83,235.38 264.9,235.38 264.98,235.38 265.06,235.38 265.13,235.38 265.21,235.38 265.29,235.38 
		265.36,235.38 265.44,235.38 265.52,235.38 265.59,235.38 265.67,235.38 265.75,235.38 265.82,235.38 265.9,235.38 265.98,235.38 
		266.05,234.39 266.13,234.39 266.21,234.39 266.28,234.39 266.36,234.39 266.44,234.39 266.52,234.39 266.59,234.39 266.67,234.39 
		266.75,234.39 266.82,234.39 266.9,234.39 266.98,234.39 267.05,234.39 267.13,234.39 267.21,234.39 267.28,234.39 267.36,234.39 
		267.44,234.39 267.51,234.39 267.59,234.39 267.67,234.39 267.74,234.39 267.82,234.39 267.9,234.39 267.97,233.4 268.05,233.4 
		268.13,233.4 268.21,233.4 268.28,233.4 268.36,233.4 268.44,233.4 268.51,233.4 268.59,233.4 268.67,233.4 268.74,233.4 
		268.82,233.4 268.9,233.4 268.97,233.4 269.05,233.4 269.13,233.4 269.2,233.4 269.28,233.4 269.36,232.41 269.43,232.41 
		269.51,232.41 269.59,232.41 269.66,232.41 269.74,232.41 269.82,232.41 269.9,232.41 269.97,232.41 270.05,232.41 270.13,232.41 
		270.2,232.41 270.28,232.41 270.36,232.41 270.43,232.41 270.51,231.42 270.59,231.42 270.66,231.42 270.74,231.42 270.82,231.42 
		270.89,231.42 270.97,231.42 271.05,231.42 271.12,231.42 271.2,231.42 271.28,231.42 271.35,231.42 271.43,231.42 271.51,231.42 
		271.59,231.42 271.66,231.42 271.74,230.43 271.82,230.43 271.89,230.43 271.97,230.43 272.05,230.43 272.12,230.43 272.2,230.43 
		272.28,230.43 272.35,230.43 272.43,230.43 272.51,230.43 272.58,230.43 272.66,230.43 272.74,230.43 272.81,230.43 272.89,229.43 
		272.97,229.43 273.04,229.43 273.12,229.43 273.2,229.43 273.27,229.43 273.35,229.43 273.43,229.43 273.51,229.43 273.58,229.43 
		273.66,229.43 273.74,229.43 273.81,229.43 273.89,229.43 273.97,229.43 274.04,229.43 274.12,228.44 274.2,228.44 274.27,228.44 
		274.35,228.44 274.43,228.44 274.5,228.44 274.58,228.44 274.66,228.44 274.73,228.44 274.81,228.44 274.89,228.44 274.96,228.44 
		275.04,228.44 275.12,228.44 275.2,228.44 275.27,228.44 275.35,227.45 275.43,227.45 275.5,227.45 275.58,227.45 275.66,227.45 
		275.73,227.45 275.81,227.45 275.89,227.45 275.96,227.45 276.04,227.45 276.12,227.45 276.19,227.45 276.27,227.45 276.35,227.45 
		276.42,227.45 276.5,227.45 276.58,226.46 276.65,226.46 276.73,226.46 276.81,226.46 276.89,226.46 276.96,226.46 277.04,226.46 
		277.12,226.46 277.19,226.46 277.27,226.46 277.35,226.46 277.42,226.46 277.5,226.46 277.58,226.46 277.65,225.47 277.73,225.47 
		277.81,225.47 277.88,225.47 277.96,225.47 278.04,225.47 278.11,225.47 278.19,225.47 278.27,225.47 278.34,225.47 278.42,225.47 
		278.5,225.47 278.58,225.47 278.65,225.47 278.73,225.47 278.81,224.48 278.88,224.48 278.96,224.48 279.04,224.48 279.11,224.48 
		279.19,224.48 279.27,224.48 279.34,224.48 279.42,224.48 279.5,224.48 279.57,224.48 279.65,224.48 279.73,224.48 279.8,224.48 
		279.88,223.49 279.96,223.49 280.03,223.49 280.11,223.49 280.19,223.49 280.27,223.49 280.34,223.49 280.42,223.49 280.5,223.49 
		280.57,223.49 280.65,223.49 280.73,223.49 280.8,223.49 280.88,223.49 280.96,223.49 281.03,222.49 281.11,222.49 281.19,222.49 
		281.26,222.49 281.34,222.49 281.42,222.49 281.49,222.49 281.57,222.49 281.65,222.49 281.72,222.49 281.8,222.49 281.88,222.49 
		281.96,222.49 282.03,222.49 282.11,222.49 282.19,221.5 282.26,221.5 282.34,221.5 282.42,221.5 282.49,221.5 282.57,221.5 
		282.65,221.5 282.72,221.5 282.8,221.5 282.88,221.5 282.95,221.5 283.03,221.5 283.11,221.5 283.18,221.5 283.26,220.51 
		283.34,220.51 283.41,220.51 283.49,220.51 283.57,220.51 283.65,220.51 283.72,220.51 283.8,220.51 283.88,220.51 283.95,220.51 
		284.03,220.51 284.11,220.51 284.18,220.51 284.26,220.51 284.34,220.51 284.41,219.52 284.49,219.52 284.57,219.52 284.64,219.52 
		284.72,219.52 284.8,219.52 284.87,219.52 284.95,219.52 285.03,219.52 285.1,219.52 285.18,219.52 285.26,219.52 285.33,219.52 
		285.41,219.52 285.49,219.52 285.57,218.53 285.64,218.53 285.72,218.53 285.8,218.53 285.87,218.53 285.95,218.53 286.03,218.53 
		286.1,218.53 286.18,218.53 286.26,218.53 286.33,218.53 286.41,218.53 286.49,218.53 286.56,218.53 286.64,217.54 286.72,217.54 
		286.79,217.54 286.87,217.54 286.95,217.54 287.02,217.54 287.1,217.54 287.18,217.54 287.26,217.54 287.33,217.54 287.41,217.54 
		287.49,217.54 287.56,217.54 287.64,217.54 287.72,217.54 287.79,216.55 287.87,216.55 287.95,216.55 288.02,216.55 288.1,216.55 
		288.18,216.55 288.25,216.55 288.33,216.55 288.41,216.55 288.48,216.55 288.56,216.55 288.64,216.55 288.71,216.55 288.79,216.55 
		288.87,216.55 288.95,215.56 289.02,215.56 289.1,215.56 289.18,215.56 289.25,215.56 289.33,215.56 289.41,215.56 289.48,215.56 
		289.56,215.56 289.64,215.56 289.71,215.56 289.79,215.56 289.87,215.56 289.94,215.56 290.02,215.56 290.1,215.56 290.17,215.56 
		290.25,215.56 290.33,215.56 290.4,215.56 290.48,215.56 290.56,215.56 290.64,215.56 290.71,215.56 290.79,214.56 290.87,214.56 
		290.94,214.56 291.02,214.56 291.1,214.56 291.17,214.56 291.25,214.56 291.33,214.56 291.4,214.56 291.48,214.56 291.56,214.56 
		291.63,214.56 291.71,214.56 291.79,214.56 291.86,214.56 291.94,214.56 292.02,214.56 292.09,214.56 292.17,214.56 292.25,214.56 
		292.33,214.56 292.4,213.57 292.48,213.57 292.56,213.57 292.63,212.58 292.71,212.58 292.79,212.58 292.86,212.58 292.94,212.58 
		293.02,212.58 293.09,212.58 293.17,212.58 293.25,212.58 293.32,212.58 293.4,212.58 293.48,212.58 293.55,212.58 293.63,212.58 
		293.71,212.58 293.78,211.59 293.86,211.59 293.94,211.59 294.02,211.59 294.09,211.59 294.17,211.59 294.25,211.59 294.32,211.59 
		294.4,211.59 294.48,211.59 294.55,211.59 294.63,211.59 294.71,211.59 294.78,211.59 294.86,211.59 294.94,210.6 295.01,210.6 
		295.09,210.6 295.17,210.6 295.24,210.6 295.32,210.6 295.4,210.6 295.47,210.6 295.55,210.6 295.63,210.6 295.71,210.6 
		295.78,210.6 295.86,210.6 295.94,210.6 296.01,210.6 296.09,209.61 296.17,209.61 296.24,209.61 296.32,209.61 296.4,209.61 
		296.47,209.61 296.55,209.61 296.63,209.61 296.7,209.61 296.78,209.61 296.86,209.61 296.93,209.61 297.01,209.61 297.09,209.61 
		297.16,209.61 297.24,208.62 297.32,208.62 297.39,208.62 297.47,208.62 297.55,208.62 297.63,208.62 297.7,208.62 297.78,208.62 
		297.86,208.62 297.93,208.62 298.01,208.62 298.09,208.62 298.16,208.62 298.24,208.62 298.32,208.62 298.39,207.62 298.47,207.62 
		298.55,207.62 298.62,207.62 298.7,207.62 298.78,207.62 298.85,207.62 298.93,207.62 299.01,207.62 299.08,207.62 299.16,207.62 
		299.24,207.62 299.32,207.62 299.39,207.62 299.47,206.63 299.55,206.63 299.62,206.63 299.7,206.63 299.78,206.63 299.85,206.63 
		299.93,206.63 300.01,206.63 300.08,206.63 300.16,206.63 300.24,206.63 300.31,206.63 300.39,206.63 300.47,206.63 300.54,206.63 
		300.62,205.64 300.7,205.64 300.77,205.64 300.85,205.64 300.93,205.64 301.01,205.64 301.08,205.64 301.16,205.64 301.24,205.64 
		301.31,205.64 301.39,205.64 301.47,205.64 301.54,205.64 301.62,205.64 301.7,205.64 301.77,205.64 301.85,205.64 301.93,205.64 
		302,205.64 302.08,205.64 302.16,205.64 302.23,205.64 302.31,205.64 302.39,205.64 302.46,204.65 302.54,204.65 302.62,204.65 
		302.7,204.65 302.77,204.65 302.85,204.65 302.93,204.65 303,204.65 303.08,204.65 303.16,204.65 303.23,204.65 303.31,204.65 
		303.39,204.65 303.46,204.65 303.54,204.65 303.62,204.65 303.69,204.65 303.77,204.65 303.85,204.65 303.92,204.65 304,204.65 
		304.08,204.65 304.15,204.65 304.23,204.65 304.31,204.65 304.39,204.65 304.46,203.66 304.54,203.66 304.62,203.66 304.69,203.66 
		304.77,203.66 304.85,203.66 304.92,203.66 305,203.66 305.08,203.66 305.15,203.66 305.23,203.66 305.31,203.66 305.38,203.66 
		305.46,203.66 305.54,203.66 305.61,203.66 305.69,203.66 305.77,203.66 305.84,203.66 305.92,203.66 306,203.66 306.08,203.66 
		306.15,203.66 306.23,203.66 306.31,203.66 306.38,203.66 306.46,202.67 306.54,202.67 306.61,202.67 306.69,202.67 306.77,202.67 
		306.84,202.67 306.92,202.67 307,202.67 307.07,202.67 307.15,202.67 307.23,202.67 307.3,202.67 307.38,202.67 307.46,202.67 
		307.53,202.67 307.61,202.67 307.69,202.67 307.77,202.67 307.84,202.67 307.92,202.67 308,201.68 308.07,201.68 308.15,201.68 
		308.23,201.68 308.3,201.68 308.38,201.68 308.46,201.68 308.53,201.68 308.61,201.68 308.69,201.68 308.76,201.68 308.84,201.68 
		308.92,201.68 308.99,201.68 309.07,201.68 309.15,201.68 309.22,201.68 309.3,201.68 309.38,201.68 309.46,201.68 309.53,201.68 
		309.61,201.68 309.69,201.68 309.76,201.68 309.84,200.68 309.92,200.68 309.99,200.68 310.07,200.68 310.15,200.68 310.22,200.68 
		310.3,200.68 310.38,200.68 310.45,200.68 310.53,200.68 310.61,200.68 310.68,200.68 310.76,200.68 310.84,200.68 310.91,200.68 
		310.99,200.68 311.07,200.68 311.14,200.68 311.22,200.68 311.3,200.68 311.38,199.69 311.45,199.69 311.53,199.69 311.61,199.69 
		311.68,199.69 311.76,199.69 311.84,199.69 311.91,199.69 311.99,199.69 312.07,199.69 312.14,199.69 312.22,199.69 312.3,199.69 
		312.37,199.69 312.45,199.69 312.53,199.69 312.6,199.69 312.68,199.69 312.76,199.69 312.83,198.7 312.91,198.7 312.99,198.7 
		313.07,198.7 313.14,198.7 313.22,198.7 313.3,198.7 313.37,198.7 313.45,198.7 313.53,198.7 313.6,198.7 313.68,198.7 
		313.76,198.7 313.83,198.7 313.91,198.7 313.99,198.7 314.06,198.7 314.14,198.7 314.22,197.71 314.29,197.71 314.37,197.71 
		314.45,197.71 314.52,197.71 314.6,197.71 314.68,197.71 314.76,197.71 314.83,197.71 314.91,197.71 314.99,197.71 315.06,197.71 
		315.14,197.71 315.22,197.71 315.29,197.71 315.37,197.71 315.45,197.71 315.52,196.72 315.6,196.72 315.68,196.72 315.75,196.72 
		315.83,196.72 315.91,196.72 315.98,196.72 316.06,196.72 316.14,196.72 316.21,196.72 316.29,196.72 316.37,196.72 316.45,196.72 
		316.52,196.72 316.6,196.72 316.68,196.72 316.75,196.72 316.83,196.72 316.91,196.72 316.98,195.73 317.06,195.73 317.14,195.73 
		317.21,195.73 317.29,195.73 317.37,195.73 317.44,195.73 317.52,195.73 317.6,195.73 317.67,195.73 317.75,195.73 317.83,195.73 
		317.9,195.73 317.98,195.73 318.06,195.73 318.14,195.73 318.21,195.73 318.29,195.73 318.37,195.73 318.44,195.73 318.52,195.73 
		318.6,195.73 318.67,195.73 318.75,195.73 318.83,195.73 318.9,194.74 318.98,194.74 319.06,194.74 319.13,194.74 319.21,194.74 
		319.29,194.74 319.36,194.74 319.44,194.74 319.52,194.74 319.59,194.74 319.67,194.74 319.75,194.74 319.83,194.74 319.9,194.74 
		319.98,194.74 320.06,194.74 320.13,194.74 320.21,194.74 320.29,194.74 320.36,194.74 320.44,194.74 320.52,193.75 320.59,193.75 
		320.67,193.75 320.75,193.75 320.82,193.75 320.9,193.75 320.98,193.75 321.05,193.75 321.13,193.75 321.21,193.75 321.28,193.75 
		321.36,193.75 321.44,193.75 321.52,193.75 321.59,193.75 321.67,193.75 321.75,193.75 321.82,193.75 321.9,192.75 321.98,192.75 
		322.05,192.75 322.13,192.75 322.21,192.75 322.28,192.75 322.36,192.75 322.44,192.75 322.51,192.75 322.59,192.75 322.67,192.75 
		322.74,192.75 322.82,192.75 322.9,192.75 322.97,192.75 323.05,192.75 323.13,192.75 323.2,191.76 323.28,191.76 323.36,191.76 
		323.44,191.76 323.51,191.76 323.59,191.76 323.67,191.76 323.74,191.76 323.82,191.76 323.9,191.76 323.97,191.76 324.05,191.76 
		324.13,191.76 324.2,191.76 324.28,191.76 324.36,190.77 324.43,190.77 324.51,190.77 324.59,190.77 324.66,190.77 324.74,190.77 
		324.82,190.77 324.89,190.77 324.97,190.77 325.05,190.77 325.13,190.77 325.2,190.77 325.28,190.77 325.36,190.77 325.43,190.77 
		325.51,189.78 325.59,189.78 325.66,189.78 325.74,189.78 325.82,189.78 325.89,189.78 325.97,189.78 326.05,189.78 326.12,189.78 
		326.2,189.78 326.28,189.78 326.35,189.78 326.43,189.78 326.51,189.78 326.58,188.79 326.66,188.79 326.74,188.79 326.82,188.79 
		326.89,188.79 326.97,188.79 327.05,188.79 327.12,188.79 327.2,188.79 327.28,188.79 327.35,188.79 327.43,188.79 327.51,188.79 
		327.58,188.79 327.66,188.79 327.74,187.8 327.81,187.8 327.89,187.8 327.97,187.8 328.04,187.8 328.12,187.8 328.2,187.8 
		328.27,187.8 328.35,187.8 328.43,187.8 328.51,187.8 328.58,187.8 328.66,187.8 328.74,187.8 328.81,186.81 328.89,186.81 
		328.97,186.81 329.04,186.81 329.12,186.81 329.2,186.81 329.27,186.81 329.35,186.81 329.43,186.81 329.5,186.81 329.58,186.81 
		329.66,186.81 329.73,186.81 329.81,186.81 329.89,186.81 329.96,185.81 330.04,185.81 330.12,185.81 330.2,185.81 330.27,185.81 
		330.35,185.81 330.43,185.81 330.5,185.81 330.58,185.81 330.66,185.81 330.73,185.81 330.81,185.81 330.89,185.81 330.96,185.81 
		331.04,185.81 331.12,185.81 331.19,185.81 331.27,185.81 331.35,185.81 331.42,185.81 331.5,185.81 331.58,185.81 331.65,185.81 
		331.73,185.81 331.81,184.82 331.89,184.82 331.96,184.82 332.04,184.82 332.12,184.82 332.19,184.82 332.27,184.82 332.35,184.82 
		332.42,184.82 332.5,184.82 332.58,184.82 332.65,184.82 332.73,184.82 332.81,184.82 332.88,184.82 332.96,184.82 333.04,184.82 
		333.11,184.82 333.19,184.82 333.27,184.82 333.34,184.82 333.42,184.82 333.5,184.82 333.58,184.82 333.65,184.82 333.73,184.82 
		333.81,183.83 333.88,183.83 333.96,183.83 334.04,183.83 334.11,183.83 334.19,183.83 334.27,183.83 334.34,183.83 334.42,183.83 
		334.5,183.83 334.57,183.83 334.65,183.83 334.73,183.83 334.8,183.83 334.88,183.83 334.96,183.83 335.03,183.83 335.11,183.83 
		335.19,183.83 335.26,183.83 335.34,183.83 335.42,183.83 335.5,183.83 335.57,183.83 335.65,183.83 335.73,183.83 335.8,182.84 
		335.88,182.84 335.96,182.84 336.03,182.84 336.11,182.84 336.19,182.84 336.26,182.84 336.34,182.84 336.42,182.84 336.49,182.84 
		336.57,182.84 336.65,182.84 336.72,182.84 336.8,182.84 336.88,182.84 336.95,182.84 337.03,182.84 337.11,182.84 337.19,182.84 
		337.26,182.84 337.34,182.84 337.42,182.84 337.49,182.84 337.57,182.84 337.65,181.85 337.72,181.85 337.8,181.85 337.88,181.85 
		337.95,181.85 338.03,181.85 338.11,181.85 338.18,181.85 338.26,181.85 338.34,181.85 338.41,181.85 338.49,181.85 338.57,181.85 
		338.64,181.85 338.72,181.85 338.8,181.85 338.88,181.85 338.95,181.85 339.03,181.85 339.11,181.85 339.18,181.85 339.26,181.85 
		339.34,181.85 339.41,181.85 339.49,181.85 339.57,181.85 339.64,180.86 339.72,180.86 339.8,180.86 339.87,180.86 339.95,180.86 
		340.03,180.86 340.1,180.86 340.18,180.86 340.26,180.86 340.33,180.86 340.41,180.86 340.49,180.86 340.57,180.86 340.64,180.86 
		340.72,180.86 340.8,180.86 340.87,180.86 340.95,180.86 341.03,180.86 341.1,180.86 341.18,180.86 341.26,180.86 341.33,180.86 
		341.41,180.86 341.49,180.86 341.56,180.86 341.64,179.87 341.72,179.87 341.79,179.87 341.87,179.87 341.95,179.87 342.02,179.87 
		342.1,179.87 342.18,179.87 342.26,179.87 342.33,179.87 342.41,179.87 342.49,179.87 342.56,179.87 342.64,178.87 342.72,178.87 
		342.79,178.87 342.87,178.87 342.95,178.87 343.02,178.87 343.1,178.87 343.18,178.87 343.25,178.87 343.33,178.87 343.41,178.87 
		343.48,178.87 343.56,178.87 343.64,178.87 343.71,177.88 343.79,177.88 343.87,177.88 343.95,177.88 344.02,177.88 344.1,177.88 
		344.18,177.88 344.25,177.88 344.33,177.88 344.41,177.88 344.48,177.88 344.56,177.88 344.64,177.88 344.71,177.88 344.79,177.88 
		344.87,176.89 344.94,176.89 345.02,176.89 345.1,176.89 345.17,176.89 345.25,176.89 345.33,176.89 345.4,176.89 345.48,176.89 
		345.56,176.89 345.64,176.89 345.71,176.89 345.79,176.89 345.87,176.89 345.94,176.89 346.02,176.89 346.1,176.89 346.17,175.9 
		346.25,175.9 346.33,175.9 346.4,175.9 346.48,175.9 346.56,175.9 346.63,175.9 346.71,175.9 346.79,175.9 346.86,175.9 
		346.94,175.9 347.02,175.9 347.09,175.9 347.17,175.9 347.25,175.9 347.32,175.9 347.4,175.9 347.48,175.9 347.56,175.9 
		347.63,175.9 347.71,175.9 347.79,175.9 347.86,175.9 347.94,175.9 348.02,174.91 348.09,174.91 348.17,174.91 348.25,174.91 
		348.32,174.91 348.4,174.91 348.48,174.91 348.55,174.91 348.63,174.91 348.71,174.91 348.78,174.91 348.86,174.91 348.94,174.91 
		349.01,174.91 349.09,174.91 349.17,174.91 349.25,174.91 349.32,174.91 349.4,174.91 349.48,174.91 349.55,174.91 349.63,174.91 
		349.71,174.91 349.78,174.91 349.86,174.91 349.94,173.92 350.01,173.92 350.09,173.92 350.17,173.92 350.24,173.92 350.32,173.92 
		350.4,173.92 350.47,173.92 350.55,173.92 350.63,173.92 350.7,173.92 350.78,173.92 350.86,173.92 350.94,173.92 351.01,173.92 
		351.09,173.92 351.17,173.92 351.24,173.92 351.32,173.92 351.4,173.92 351.47,173.92 351.55,173.92 351.63,173.92 351.7,173.92 
		351.78,173.92 351.86,173.92 351.93,172.93 352.01,172.93 352.09,172.93 352.16,172.93 352.24,172.93 352.32,172.93 352.39,172.93 
		352.47,172.93 352.55,172.93 352.63,172.93 352.7,172.93 352.78,172.93 352.86,172.93 352.93,172.93 353.01,172.93 353.09,172.93 
		353.16,172.93 353.24,172.93 353.32,172.93 353.39,172.93 353.47,172.93 353.55,172.93 353.62,172.93 353.7,172.93 353.78,172.93 
		353.85,172.93 353.93,171.94 354.01,171.94 354.08,171.94 354.16,171.94 354.24,171.94 354.32,171.94 354.39,171.94 354.47,171.94 
		354.55,171.94 354.62,171.94 354.7,171.94 354.78,171.94 354.85,171.94 354.93,171.94 355.01,171.94 355.08,171.94 355.16,171.94 
		355.24,171.94 355.31,171.94 355.39,171.94 355.47,171.94 355.54,171.94 355.62,171.94 355.7,171.94 355.77,171.94 355.85,170.94 
		355.93,170.94 356.01,170.94 356.08,170.94 356.16,170.94 356.24,170.94 356.31,170.94 356.39,170.94 356.47,170.94 356.54,170.94 
		356.62,170.94 356.7,170.94 356.77,170.94 356.85,170.94 356.93,170.94 357,170.94 357.08,170.94 357.16,170.94 357.23,170.94 
		357.31,170.94 357.39,170.94 357.46,170.94 357.54,170.94 357.62,170.94 357.7,170.94 357.77,169.95 357.85,169.95 357.93,169.95 
		358,169.95 358.08,169.95 358.16,169.95 358.23,169.95 358.31,169.95 358.39,169.95 358.46,169.95 358.54,169.95 358.62,169.95 
		358.69,169.95 358.77,169.95 358.85,169.95 358.92,169.95 359,169.95 359.08,169.95 359.15,169.95 359.23,169.95 359.31,169.95 
		359.38,169.95 359.46,169.95 359.54,169.95 359.62,169.95 359.69,168.96 359.77,168.96 359.85,168.96 359.92,168.96 360,168.96 
		360.08,167.97 360.15,167.97 360.23,167.97 360.31,167.97 360.38,167.97 360.46,167.97 360.54,167.97 360.61,167.97 360.69,167.97 
		360.77,167.97 360.84,167.97 360.92,167.97 361,166.98 361.07,166.98 361.15,166.98 361.23,166.98 361.31,166.98 361.38,165.99 
		361.46,165.99 361.54,165.99 361.61,165.99 361.69,165.99 361.77,165.99 361.84,165.99 361.92,165.99 362,165.99 362.07,165.99 
		362.15,165.99 362.23,165 362.3,165 362.38,165 362.46,165 362.53,165 362.61,165 362.69,165 362.76,165 362.84,165 362.92,165 
		363,165 363.07,165 363.15,165 363.23,165 363.3,165 363.38,165 363.46,164 363.53,164 363.61,164 363.69,164 363.76,164 
		363.84,164 363.92,164 363.99,164 364.07,164 364.15,164 364.22,164 364.3,164 364.38,164 364.45,164 364.53,164 364.61,163.01 
		364.69,163.01 364.76,163.01 364.84,163.01 364.92,163.01 364.99,163.01 365.07,163.01 365.15,163.01 365.22,163.01 365.3,163.01 
		365.38,163.01 365.45,163.01 365.53,163.01 365.61,163.01 365.68,163.01 365.76,163.01 365.84,162.02 365.91,162.02 365.99,162.02 
		366.07,162.02 366.14,162.02 366.22,162.02 366.3,162.02 366.38,162.02 366.45,162.02 366.53,162.02 366.61,162.02 366.68,162.02 
		366.76,162.02 366.84,162.02 366.91,162.02 366.99,162.02 367.07,161.03 367.14,161.03 367.22,161.03 367.3,161.03 367.37,161.03 
		367.45,161.03 367.53,161.03 367.6,161.03 367.68,161.03 367.76,161.03 367.83,161.03 367.91,161.03 367.99,161.03 368.07,161.03 
		368.14,161.03 368.22,160.04 368.3,160.04 368.37,160.04 368.45,160.04 368.53,160.04 368.6,160.04 368.68,160.04 368.76,160.04 
		368.83,160.04 368.91,160.04 368.99,160.04 369.06,160.04 369.14,160.04 369.22,160.04 369.29,160.04 369.37,160.04 369.45,159.05 
		369.52,159.05 369.6,159.05 369.68,159.05 369.76,159.05 369.83,159.05 369.91,159.05 369.99,159.05 370.06,159.05 370.14,159.05 
		370.22,159.05 370.29,159.05 370.37,159.05 370.45,159.05 370.52,159.05 370.6,159.05 370.68,158.06 370.75,158.06 370.83,158.06 
		370.91,158.06 370.98,158.06 371.06,158.06 371.14,158.06 371.21,158.06 371.29,158.06 371.37,158.06 371.45,158.06 371.52,158.06 
		371.6,158.06 371.68,158.06 371.75,158.06 371.83,158.06 371.91,157.07 371.98,157.07 372.06,157.07 372.14,157.07 372.21,157.07 
		372.29,157.07 372.37,157.07 372.44,157.07 372.52,157.07 372.6,157.07 372.67,157.07 372.75,157.07 372.83,157.07 372.9,157.07 
		372.98,157.07 373.06,156.07 373.13,156.07 373.21,156.07 373.29,156.07 373.37,156.07 373.44,156.07 373.52,156.07 373.6,156.07 
		373.67,156.07 373.75,156.07 373.83,156.07 373.9,156.07 373.98,156.07 374.06,156.07 374.13,156.07 374.21,156.07 374.29,156.07 
		374.36,156.07 374.44,156.07 374.52,156.07 374.59,155.08 374.67,155.08 374.75,155.08 374.82,155.08 374.9,155.08 374.98,155.08 
		375.06,155.08 375.13,155.08 375.21,155.08 375.29,155.08 375.36,155.08 375.44,155.08 375.52,155.08 375.59,155.08 375.67,155.08 
		375.75,155.08 375.82,155.08 375.9,155.08 375.98,155.08 376.05,155.08 376.13,155.08 376.21,155.08 376.28,155.08 376.36,155.08 
		376.44,155.08 376.51,154.09 376.59,154.09 376.67,154.09 376.75,154.09 376.82,154.09 376.9,154.09 376.98,154.09 377.05,154.09 
		377.13,154.09 377.21,154.09 377.28,154.09 377.36,154.09 377.44,154.09 377.51,154.09 377.59,154.09 377.67,154.09 377.74,154.09 
		377.82,154.09 377.9,154.09 377.97,154.09 378.05,153.1 378.13,153.1 378.2,153.1 378.28,153.1 378.36,153.1 378.44,153.1 
		378.51,153.1 378.59,153.1 378.67,153.1 378.74,153.1 378.82,153.1 378.9,153.1 378.97,153.1 379.05,153.1 379.13,153.1 
		379.2,153.1 379.28,153.1 379.36,153.1 379.43,153.1 379.51,153.1 379.59,153.1 379.66,153.1 379.74,153.1 379.82,153.1 
		379.89,153.1 379.97,152.11 380.05,152.11 380.13,152.11 380.2,152.11 380.28,152.11 380.36,152.11 380.43,152.11 380.51,152.11 
		380.59,152.11 380.66,152.11 380.74,152.11 380.82,152.11 380.89,152.11 380.97,152.11 381.05,152.11 381.12,152.11 381.2,152.11 
		381.28,152.11 381.35,152.11 381.43,152.11 381.51,152.11 381.58,152.11 381.66,152.11 381.74,152.11 381.82,152.11 381.89,151.12 
		381.97,151.12 382.05,151.12 382.12,151.12 382.2,151.12 382.28,151.12 382.35,151.12 382.43,151.12 382.51,151.12 382.58,151.12 
		382.66,151.12 382.74,151.12 382.81,151.12 382.89,151.12 382.97,151.12 383.04,151.12 383.12,151.12 383.2,151.12 383.27,151.12 
		383.35,151.12 383.43,151.12 383.51,151.12 383.58,151.12 383.66,151.12 383.74,151.12 383.81,150.13 383.89,150.13 383.97,150.13 
		384.04,150.13 384.12,150.13 384.2,150.13 384.27,150.13 384.35,150.13 384.43,150.13 384.5,150.13 384.58,150.13 384.66,150.13 
		384.73,150.13 384.81,150.13 384.89,150.13 384.96,150.13 385.04,150.13 385.12,150.13 385.19,150.13 385.27,150.13 385.35,150.13 
		385.43,150.13 385.5,150.13 385.58,150.13 385.66,150.13 385.73,150.13 385.81,150.13 385.89,150.13 385.96,149.13 386.04,149.13 
		386.12,149.13 386.19,149.13 386.27,149.13 386.35,149.13 386.42,149.13 386.5,149.13 386.58,149.13 386.65,149.13 386.73,149.13 
		386.81,149.13 386.88,149.13 386.96,149.13 387.04,149.13 387.12,149.13 387.19,149.13 387.27,149.13 387.35,149.13 387.42,149.13 
		387.5,149.13 387.58,149.13 387.65,149.13 387.73,149.13 387.81,149.13 387.88,149.13 387.96,149.13 388.04,149.13 388.11,148.14 
		388.19,148.14 388.27,148.14 388.34,148.14 388.42,148.14 388.5,148.14 388.57,148.14 388.65,148.14 388.73,148.14 388.81,148.14 
		388.88,148.14 388.96,148.14 389.04,148.14 389.11,148.14 389.19,148.14 389.27,148.14 389.34,148.14 389.42,148.14 389.5,148.14 
		389.57,148.14 389.65,148.14 389.73,148.14 389.8,148.14 389.88,148.14 389.96,148.14 390.03,148.14 390.11,148.14 390.19,147.15 
		390.26,147.15 390.34,147.15 390.42,147.15 390.5,147.15 390.57,147.15 390.65,147.15 390.73,147.15 390.8,147.15 390.88,147.15 
		390.96,147.15 391.03,147.15 391.11,147.15 391.19,147.15 391.26,147.15 391.34,147.15 391.42,147.15 391.49,147.15 391.57,147.15 
		391.65,147.15 391.72,147.15 391.8,147.15 391.88,147.15 391.95,147.15 392.03,147.15 392.11,147.15 392.19,147.15 392.26,147.15 
		392.34,146.16 392.42,146.16 392.49,146.16 392.57,146.16 392.65,146.16 392.72,146.16 392.8,146.16 392.88,146.16 392.95,146.16 
		393.03,146.16 393.11,146.16 393.18,146.16 393.26,146.16 393.34,146.16 393.41,146.16 393.49,146.16 393.57,146.16 393.64,146.16 
		393.72,146.16 393.8,146.16 393.88,146.16 393.95,146.16 394.03,146.16 394.11,146.16 394.18,146.16 394.26,146.16 394.34,146.16 
		394.41,145.17 394.49,145.17 394.57,145.17 394.64,145.17 394.72,145.17 394.8,145.17 394.87,145.17 394.95,145.17 395.03,145.17 
		395.1,145.17 395.18,145.17 395.26,145.17 395.33,145.17 395.41,145.17 395.49,145.17 395.57,145.17 395.64,145.17 395.72,145.17 
		395.8,145.17 395.87,145.17 395.95,145.17 396.03,145.17 396.1,145.17 396.18,145.17 396.26,145.17 396.33,145.17 396.41,145.17 
		396.49,144.18 396.56,144.18 396.64,144.18 396.72,144.18 396.79,144.18 396.87,144.18 396.95,144.18 397.02,144.18 397.1,144.18 
		397.18,144.18 397.25,144.18 397.33,144.18 397.41,144.18 397.49,144.18 397.56,144.18 397.64,144.18 397.72,144.18 397.79,144.18 
		397.87,144.18 397.95,144.18 398.02,144.18 398.1,144.18 398.18,144.18 398.25,144.18 398.33,144.18 398.41,144.18 398.48,144.18 
		398.56,144.18 398.64,143.19 398.71,143.19 398.79,143.19 398.87,143.19 398.94,143.19 399.02,143.19 399.1,143.19 399.18,143.19 
		399.25,143.19 399.33,143.19 399.41,143.19 399.48,143.19 399.56,143.19 399.64,143.19 399.71,143.19 399.79,143.19 399.87,143.19 
		399.94,143.19 400.02,143.19 400.1,143.19 400.17,143.19 400.25,143.19 400.33,143.19 400.4,143.19 400.48,143.19 400.56,143.19 
		400.63,143.19 400.71,143.19 400.79,142.19 400.87,142.19 400.94,142.19 401.02,142.19 401.1,142.19 401.17,142.19 401.25,142.19 
		401.33,142.19 401.4,142.19 401.48,142.19 401.56,142.19 401.63,142.19 401.71,142.19 401.79,142.19 401.86,142.19 401.94,142.19 
		402.02,142.19 402.09,142.19 402.17,142.19 402.25,142.19 402.32,142.19 402.4,142.19 402.48,142.19 402.56,142.19 402.63,142.19 
		402.71,142.19 402.79,142.19 402.86,142.19 402.94,142.19 403.02,141.2 403.09,141.2 403.17,141.2 403.25,141.2 403.32,141.2 
		403.4,141.2 403.48,141.2 403.55,141.2 403.63,141.2 403.71,141.2 403.78,141.2 403.86,141.2 403.94,141.2 404.01,141.2 
		404.09,141.2 404.17,141.2 404.25,141.2 404.32,141.2 404.4,141.2 404.48,141.2 404.55,141.2 404.63,141.2 404.71,141.2 
		404.78,141.2 404.86,141.2 404.94,141.2 405.01,140.21 405.09,140.21 405.17,140.21 405.24,140.21 405.32,140.21 405.4,140.21 
		405.47,140.21 405.55,140.21 405.63,140.21 405.7,140.21 405.78,140.21 405.86,140.21 405.94,140.21 406.01,140.21 406.09,140.21 
		406.17,140.21 406.24,140.21 406.32,140.21 406.4,140.21 406.47,140.21 406.55,140.21 406.63,140.21 406.7,140.21 406.78,140.21 
		406.86,140.21 406.93,140.21 407.01,140.21 407.09,140.21 407.16,139.22 407.24,139.22 407.32,139.22 407.39,139.22 407.47,139.22 
		407.55,139.22 407.63,139.22 407.7,139.22 407.78,139.22 407.86,139.22 407.93,139.22 408.01,139.22 408.09,139.22 408.16,139.22 
		408.24,139.22 408.32,139.22 408.39,139.22 408.47,139.22 408.55,139.22 408.62,139.22 408.7,139.22 408.78,139.22 408.85,139.22 
		408.93,139.22 409.01,139.22 409.08,139.22 409.16,139.22 409.24,138.23 409.31,138.23 409.39,138.23 409.47,138.23 409.55,138.23 
		409.62,138.23 409.7,138.23 409.78,138.23 409.85,138.23 409.93,138.23 410.01,138.23 410.08,138.23 410.16,138.23 410.24,138.23 
		410.31,138.23 410.39,138.23 410.47,138.23 410.54,138.23 410.62,138.23 410.7,138.23 410.77,138.23 410.85,138.23 410.93,138.23 
		411,138.23 411.08,138.23 411.16,138.23 411.24,138.23 411.31,138.23 411.39,138.23 411.47,137.24 411.54,137.24 411.62,137.24 
		411.7,137.24 411.77,137.24 411.85,137.24 411.93,137.24 412,137.24 412.08,137.24 412.16,137.24 412.23,137.24 412.31,137.24 
		412.39,137.24 412.46,137.24 412.54,137.24 412.62,137.24 412.69,137.24 412.77,137.24 412.85,137.24 412.93,137.24 413,137.24 
		413.08,137.24 413.16,137.24 413.23,137.24 413.31,137.24 413.39,137.24 413.46,137.24 413.54,137.24 413.62,136.25 413.69,136.25 
		413.77,136.25 413.85,136.25 413.92,136.25 414,136.25 414.08,136.25 414.15,136.25 414.23,136.25 414.31,136.25 414.38,136.25 
		414.46,136.25 414.54,136.25 414.62,136.25 414.69,136.25 414.77,136.25 414.85,136.25 414.92,136.25 415,136.25 415.08,136.25 
		415.15,136.25 415.23,136.25 415.31,136.25 415.38,136.25 415.46,136.25 415.54,136.25 415.61,136.25 415.69,135.26 415.77,135.26 
		415.84,135.26 415.92,135.26 416,135.26 416.07,135.26 416.15,135.26 416.23,135.26 416.31,135.26 416.38,135.26 416.46,135.26 
		416.54,135.26 416.61,135.26 416.69,135.26 416.77,135.26 416.84,135.26 416.92,135.26 417,135.26 417.07,135.26 417.15,135.26 
		417.23,135.26 417.3,135.26 417.38,135.26 417.46,135.26 417.53,135.26 417.61,135.26 417.69,135.26 417.76,135.26 417.84,135.26 
		417.92,134.26 418,134.26 418.07,134.26 418.15,134.26 418.23,134.26 418.3,134.26 418.38,134.26 418.46,134.26 418.53,134.26 
		418.61,134.26 418.69,134.26 418.76,134.26 418.84,134.26 418.92,134.26 418.99,134.26 419.07,134.26 419.15,134.26 419.22,134.26 
		419.3,134.26 419.38,134.26 419.45,134.26 419.53,134.26 419.61,134.26 419.69,134.26 419.76,134.26 419.84,134.26 419.92,134.26 
		419.99,134.26 420.07,133.27 420.15,133.27 420.22,133.27 420.3,133.27 420.38,133.27 420.45,133.27 420.53,133.27 420.61,133.27 
		420.68,133.27 420.76,133.27 420.84,133.27 420.91,133.27 420.99,133.27 421.07,133.27 421.14,133.27 421.22,133.27 421.3,133.27 
		421.37,133.27 421.45,133.27 421.53,133.27 421.61,133.27 421.68,133.27 421.76,133.27 421.84,133.27 421.91,132.28 421.99,132.28 
		422.07,132.28 422.14,132.28 422.22,132.28 422.3,132.28 422.37,132.28 422.45,132.28 422.53,132.28 422.6,132.28 422.68,132.28 
		422.76,132.28 422.83,132.28 422.91,132.28 422.99,132.28 423.06,132.28 423.14,132.28 423.22,132.28 423.3,132.28 423.37,132.28 
		423.45,132.28 423.53,132.28 423.6,132.28 423.68,132.28 423.76,132.28 423.83,132.28 423.91,132.28 423.99,131.29 424.06,131.29 
		424.14,131.29 424.22,131.29 424.29,131.29 424.37,131.29 424.45,131.29 424.52,131.29 424.6,131.29 424.68,131.29 424.75,131.29 
		424.83,131.29 424.91,131.29 424.99,131.29 425.06,131.29 425.14,131.29 425.22,131.29 425.29,131.29 425.37,131.29 425.45,131.29 
		425.52,131.29 425.6,131.29 425.68,131.29 425.75,131.29 425.83,131.29 425.91,131.29 425.98,131.29 426.06,131.29 426.14,131.29 
		426.21,130.3 426.29,130.3 426.37,130.3 426.44,130.3 426.52,130.3 426.6,130.3 426.68,130.3 426.75,130.3 426.83,130.3 
		426.91,130.3 426.98,130.3 427.06,130.3 427.14,130.3 427.21,130.3 427.29,130.3 427.37,130.3 427.44,130.3 427.52,130.3 
		427.6,130.3 427.67,130.3 427.75,130.3 427.83,130.3 427.9,130.3 427.98,130.3 428.06,130.3 428.13,130.3 428.21,130.3 
		428.29,130.3 428.37,129.31 428.44,129.31 428.52,129.31 428.6,129.31 428.67,129.31 428.75,129.31 428.83,129.31 428.9,129.31 
		428.98,129.31 429.06,129.31 429.13,129.31 429.21,129.31 429.29,129.31 429.36,129.31 429.44,129.31 429.52,129.31 429.59,129.31 
		429.67,129.31 429.75,129.31 429.82,129.31 429.9,129.31 429.98,129.31 430.06,129.31 430.13,129.31 430.21,129.31 430.29,129.31 
		430.36,129.31 430.44,129.31 430.52,128.32 430.59,128.32 430.67,128.32 430.75,128.32 430.82,128.32 430.9,128.32 430.98,128.32 
		431.05,128.32 431.13,128.32 431.21,128.32 431.28,128.32 431.36,128.32 431.44,128.32 431.51,128.32 431.59,128.32 431.67,128.32 
		431.75,128.32 431.82,128.32 431.9,128.32 431.98,128.32 432.05,128.32 432.13,128.32 432.21,128.32 432.28,128.32 432.36,128.32 
		432.44,128.32 432.51,128.32 432.59,127.32 432.67,127.32 432.74,127.32 432.82,127.32 432.9,127.32 432.97,127.32 433.05,127.32 
		433.13,127.32 433.2,127.32 433.28,127.32 433.36,127.32 433.44,127.32 433.51,127.32 433.59,127.32 433.67,127.32 433.74,127.32 
		433.82,127.32 433.9,127.32 433.97,127.32 434.05,127.32 434.13,127.32 434.2,127.32 434.28,127.32 434.36,127.32 434.43,127.32 
		434.51,127.32 434.59,127.32 434.66,127.32 434.74,126.33 434.82,126.33 434.89,126.33 434.97,126.33 435.05,126.33 435.12,126.33 
		435.2,126.33 435.28,126.33 435.36,126.33 435.43,126.33 435.51,126.33 435.59,126.33 435.66,126.33 435.74,126.33 435.82,126.33 
		435.89,126.33 435.97,126.33 436.05,126.33 436.12,126.33 436.2,126.33 436.28,126.33 436.35,126.33 436.43,126.33 436.51,126.33 
		436.58,126.33 436.66,126.33 436.74,126.33 436.81,126.33 436.89,125.34 436.97,125.34 437.05,125.34 437.12,125.34 437.2,125.34 
		437.28,125.34 437.35,125.34 437.43,125.34 437.51,125.34 437.58,125.34 437.66,125.34 437.74,125.34 437.81,125.34 437.89,125.34 
		437.97,125.34 438.04,125.34 438.12,125.34 438.2,125.34 438.27,125.34 438.35,125.34 438.43,125.34 438.5,125.34 438.58,125.34 
		438.66,125.34 438.74,123.36 438.81,123.36 438.89,123.36 438.97,123.36 439.04,123.36 439.12,123.36 439.2,123.36 439.27,123.36 
		439.35,123.36 439.43,123.36 439.5,123.36 439.58,123.36 439.66,123.36 439.73,123.36 439.81,123.36 439.89,123.36 439.96,123.36 
		440.04,123.36 440.12,123.36 440.19,123.36 440.27,123.36 440.35,123.36 440.43,123.36 440.5,123.36 440.58,123.36 440.66,123.36 
		440.73,123.36 440.81,123.36 440.89,123.36 440.96,122.37 441.04,122.37 441.12,122.37 441.19,122.37 441.27,122.37 441.35,122.37 
		441.42,122.37 441.5,122.37 441.58,122.37 441.65,122.37 441.73,122.37 441.81,122.37 441.88,122.37 441.96,122.37 442.04,122.37 
		442.12,122.37 442.19,122.37 442.27,122.37 442.35,122.37 442.42,122.37 442.5,122.37 442.58,122.37 442.65,122.37 442.73,122.37 
		442.81,122.37 442.88,122.37 442.96,122.37 443.04,122.37 443.11,121.38 443.19,121.38 443.27,121.38 443.34,121.38 443.42,121.38 
		443.5,121.38 443.57,121.38 443.65,121.38 443.73,121.38 443.81,121.38 443.88,121.38 443.96,121.38 444.04,121.38 444.11,121.38 
		444.19,121.38 444.27,121.38 444.34,121.38 444.42,121.38 444.5,121.38 444.57,121.38 444.65,121.38 444.73,121.38 444.8,121.38 
		444.88,121.38 444.96,121.38 445.03,121.38 445.11,121.38 445.19,120.39 445.26,120.39 445.34,120.39 445.42,120.39 445.5,120.39 
		445.57,120.39 445.65,120.39 445.73,120.39 445.8,120.39 445.88,120.39 445.96,120.39 446.03,120.39 446.11,120.39 446.19,120.39 
		446.26,120.39 446.34,120.39 446.42,120.39 446.49,120.39 446.57,120.39 446.65,120.39 446.72,120.39 446.8,120.39 446.88,120.39 
		446.95,120.39 447.03,120.39 447.11,120.39 447.18,120.39 447.26,120.39 447.34,119.39 447.42,119.39 447.49,119.39 447.57,119.39 
		447.65,119.39 447.72,119.39 447.8,119.39 447.88,119.39 447.95,119.39 448.03,119.39 448.11,119.39 448.18,119.39 448.26,119.39 
		448.34,119.39 448.41,119.39 448.49,119.39 448.57,119.39 448.64,119.39 448.72,119.39 448.8,119.39 448.87,119.39 448.95,119.39 
		449.03,119.39 449.11,119.39 449.18,119.39 449.26,119.39 449.34,119.39 449.41,119.39 449.49,118.4 449.57,118.4 449.64,118.4 
		449.72,118.4 449.8,118.4 449.87,118.4 449.95,118.4 450.03,118.4 450.1,118.4 450.18,118.4 450.26,118.4 450.33,118.4 
		450.41,118.4 450.49,118.4 450.56,118.4 450.64,118.4 450.72,118.4 450.8,118.4 450.87,118.4 450.95,118.4 451.03,118.4 
		451.1,118.4 451.18,118.4 451.26,118.4 451.33,118.4 451.41,118.4 451.49,118.4 451.56,118.4 451.64,117.41 451.72,117.41 
		451.79,117.41 451.87,117.41 451.95,117.41 452.02,117.41 452.1,117.41 452.18,117.41 452.25,117.41 452.33,117.41 452.41,117.41 
		452.49,117.41 452.56,117.41 452.64,117.41 452.72,117.41 452.79,117.41 452.87,117.41 452.95,117.41 453.02,117.41 453.1,117.41 
		453.18,117.41 453.25,117.41 453.33,117.41 453.41,117.41 453.48,117.41 453.56,117.41 453.64,117.41 453.71,117.41 453.79,117.41 
		453.87,116.42 453.94,116.42 454.02,116.42 454.1,116.42 454.18,116.42 454.25,116.42 454.33,116.42 454.41,116.42 454.48,116.42 
		454.56,116.42 454.64,116.42 454.71,116.42 454.79,116.42 454.87,116.42 454.94,116.42 455.02,116.42 455.1,116.42 455.17,116.42 
		455.25,116.42 455.33,116.42 455.4,116.42 455.48,116.42 455.56,116.42 455.63,116.42 455.71,116.42 455.79,116.42 455.87,116.42 
		455.94,116.42 456.02,116.42 456.1,115.43 456.17,115.43 456.25,115.43 456.33,115.43 456.4,115.43 456.48,115.43 456.56,115.43 
		456.63,115.43 456.71,115.43 456.79,115.43 456.86,115.43 456.94,115.43 457.02,115.43 457.09,115.43 457.17,115.43 457.25,115.43 
		457.32,115.43 457.4,115.43 457.48,115.43 457.56,115.43 457.63,115.43 457.71,115.43 457.79,115.43 457.86,115.43 457.94,115.43 
		458.02,115.43 458.09,115.43 458.17,115.43 458.25,115.43 458.32,114.44 458.4,114.44 	"/>
</g>
<line fill="none" stroke="#000000" stroke-width="0.75" stroke-linecap="round" stroke-linejoin="round" stroke-miterlimit="10" x1="74.32" y1="430.56" x2="458.4" y2="430.56"/>
<line fill="none" stroke="#000000" stroke-width="0.75" stroke-linecap="round" stroke-linejoin="round" stroke-miterlimit="10" x1="74.32" y1="430.56" x2="74.32" y2="437.76"/>
<line fill="none" stroke="#000000" stroke-width="0.75" stroke-linecap="round" stroke-linejoin="round" stroke-miterlimit="10" x1="151.14" y1="430.56" x2="151.14" y2="437.76"/>
<line fill="none" stroke="#000000" stroke-width="0.75" stroke-linecap="round" stroke-linejoin="round" stroke-miterlimit="10" x1="227.95" y1="430.56" x2="227.95" y2="437.76"/>
<line fill="none" stroke="#000000" stroke-width="0.75" stroke-linecap="round" stroke-linejoin="round" stroke-miterlimit="10" x1="304.77" y1="430.56" x2="304.77" y2="437.76"/>
<line fill="none" stroke="#000000" stroke-width="0.75" stroke-linecap="round" stroke-linejoin="round" stroke-miterlimit="10" x1="381.58" y1="430.56" x2="381.58" y2="437.76"/>
<line fill="none" stroke="#000000" stroke-width="0.75" stroke-linecap="round" stroke-linejoin="round" stroke-miterlimit="10" x1="458.4" y1="430.56" x2="458.4" y2="437.76"/>
<text transform="matrix(1 0 0 1 69.3198 456.4805)" font-family="'Helvetica'" font-size="18">0</text>
<text transform="matrix(1 0 0 1 131.1201 456.4805)" font-family="'Helvetica'" font-size="18">1000</text>
<text transform="matrix(1 0 0 1 207.9399 456.4805)" font-family="'Helvetica'" font-size="18">2000</text>
<text transform="matrix(1 0 0 1 284.75 456.4805)" font-family="'Helvetica'" font-size="18">3000</text>
<text transform="matrix(1 0 0 1 361.5703 456.4805)" font-family="'Helvetica'" font-size="18">4000</text>
<text transform="matrix(1 0 0 1 438.3799 456.4805)" font-family="'Helvetica'" font-size="18">5000</text>
<line fill="none" stroke="#000000" stroke-width="0.75" stroke-linecap="round" stroke-linejoin="round" stroke-miterlimit="10" x1="59.04" y1="421.76" x2="59.04" y2="74.78"/>
<line fill="none" stroke="#000000" stroke-width="0.75" stroke-linecap="round" stroke-linejoin="round" stroke-miterlimit="10" x1="59.04" y1="421.76" x2="51.84" y2="421.76"/>
<line fill="none" stroke="#000000" stroke-width="0.75" stroke-linecap="round" stroke-linejoin="round" stroke-miterlimit="10" x1="59.04" y1="372.19" x2="51.84" y2="372.19"/>
<line fill="none" stroke="#000000" stroke-width="0.75" stroke-linecap="round" stroke-linejoin="round" stroke-miterlimit="10" x1="59.04" y1="322.62" x2="51.84" y2="322.62"/>
<line fill="none" stroke="#000000" stroke-width="0.75" stroke-linecap="round" stroke-linejoin="round" stroke-miterlimit="10" x1="59.04" y1="273.05" x2="51.84" y2="273.05"/>
<line fill="none" stroke="#000000" stroke-width="0.75" stroke-linecap="round" stroke-linejoin="round" stroke-miterlimit="10" x1="59.04" y1="223.49" x2="51.84" y2="223.49"/>
<line fill="none" stroke="#000000" stroke-width="0.75" stroke-linecap="round" stroke-linejoin="round" stroke-miterlimit="10" x1="59.04" y1="173.92" x2="51.84" y2="173.92"/>
<line fill="none" stroke="#000000" stroke-width="0.75" stroke-linecap="round" stroke-linejoin="round" stroke-miterlimit="10" x1="59.04" y1="124.35" x2="51.84" y2="124.35"/>
<line fill="none" stroke="#000000" stroke-width="0.75" stroke-linecap="round" stroke-linejoin="round" stroke-miterlimit="10" x1="59.04" y1="74.78" x2="51.84" y2="74.78"/>
<text transform="matrix(-6.123234e-17 -1 1 -6.123234e-17 41.7598 426.7598)" font-family="'Helvetica'" font-size="18">0</text>
<text transform="matrix(-6.123234e-17 -1 1 -6.123234e-17 41.7598 382.2002)" font-family="'Helvetica'" font-size="18">50</text>
<text transform="matrix(-6.123234e-17 -1 1 -6.123234e-17 41.7598 337.6309)" font-family="'Helvetica'" font-size="18">100</text>
<text transform="matrix(-6.123234e-17 -1 1 -6.123234e-17 41.7603 288.0703)" font-family="'Helvetica'" font-size="18">150</text>
<text transform="matrix(-6.123234e-17 -1 1 -6.123234e-17 41.7598 238.5)" font-family="'Helvetica'" font-size="18">200</text>
<text transform="matrix(-6.123234e-17 -1 1 -6.123234e-17 41.7603 188.9297)" font-family="'Helvetica'" font-size="18">250</text>
<text transform="matrix(-6.123234e-17 -1 1 -6.123234e-17 41.7598 139.3604)" font-family="'Helvetica'" font-size="18">300</text>
<text transform="matrix(-6.123234e-17 -1 1 -6.123234e-17 41.7603 89.79)" font-family="'Helvetica'" font-size="18">350</text>
<polyline fill="none" stroke="#000000" stroke-width="0.75" stroke-linecap="round" stroke-linejoin="round" stroke-miterlimit="10" points="
	59.04,430.56 473.76,430.56 473.76,59.04 59.04,59.04 59.04,430.56 "/>
<text transform="matrix(1 0 0 1 240.8901 485.2803)" font-family="'Helvetica'" font-size="18">clients</text>
<text transform="matrix(-6.123234e-17 -1 1 -6.123234e-17 12.96 293.8096)" font-family="'Helvetica'" font-size="18">milliseconds</text>
</svg>
